<?xml version="1.0" encoding="utf-8"?>
<!-- Generator: Adobe Illustrator 16.0.0, SVG Export Plug-In . SVG Version: 6.00 Build 0)  -->
<!DOCTYPE svg PUBLIC "-//W3C//DTD SVG 1.1//EN" "http://www.w3.org/Graphics/SVG/1.1/DTD/svg11.dtd">
<svg version="1.1" id="Слой_1" xmlns="http://www.w3.org/2000/svg" xmlns:xlink="http://www.w3.org/1999/xlink" x="0px" y="0px"
	 width="841.89px" height="595.28px" viewBox="0 0 841.89 595.28" enable-background="new 0 0 841.89 595.28" xml:space="preserve">
<path fill="none" stroke="#434344" stroke-width="18" stroke-miterlimit="10" d="M703.948,301.288
	c0,152.53-123.641,276.171-276.171,276.171c-152.523,0-276.168-123.641-276.168-276.171c0-152.521,123.645-276.162,276.168-276.162
	C580.308,25.126,703.948,148.767,703.948,301.288z"/>
<path fill="#434344" d="M427.439,331.931c0,14.881-10.554,26.941-23.576,26.941l0,0c-13.021,0-23.576-12.061-23.576-26.941V197.208
	c0-14.882,10.554-26.941,23.576-26.941l0,0c13.022,0,23.576,12.059,23.576,26.941V331.931z"/>
<path fill="#434344" d="M504.566,313.069c10.793,0,19.533,10.554,19.533,23.576l0,0c0,13.021-8.74,23.575-19.533,23.575h-97.673
	c-10.793,0-19.533-10.554-19.533-23.575l0,0c0-13.022,8.74-23.576,19.533-23.576H504.566z"/>
</svg>
