<?xml version="1.0" encoding="utf-8"?>
<!-- Generator: Adobe Illustrator 16.0.0, SVG Export Plug-In . SVG Version: 6.00 Build 0)  -->
<!DOCTYPE svg PUBLIC "-//W3C//DTD SVG 1.1//EN" "http://www.w3.org/Graphics/SVG/1.1/DTD/svg11.dtd">
<svg version="1.1" id="Слой_1" xmlns="http://www.w3.org/2000/svg" xmlns:xlink="http://www.w3.org/1999/xlink" x="0px" y="0px"
	 width="841.89px" height="595.28px" viewBox="0 0 841.89 595.28" enable-background="new 0 0 841.89 595.28" xml:space="preserve">
<path fill="none" stroke="#434344" stroke-width="18" stroke-miterlimit="10" d="M703.948,301.288
	c0,152.53-123.641,276.171-276.171,276.171c-152.523,0-276.168-123.641-276.168-276.171c0-152.521,123.645-276.162,276.168-276.162
	C580.308,25.126,703.948,148.767,703.948,301.288z"/>
<path fill="#434344" d="M499.118,443.246c0,0,11.958,6.834,25.444,1.91c8.131-2.961,25.822-31.025,29.691-38.761
	c5.727-11.434,0.05-16.738-3.436-20.956c-12.663-15.333-29.258-32.78-39.277-43.095c-3.163-3.256-10.71-3.83-18.139-0.354
	c-8.817,4.121-20.771,22.13-35.588,15.794c-34.571-14.78-76.271-66.55-83.966-86.299c-3.614-9.283,16.167-25.376,19.372-34.802
	c1.368-4.039,5.646-7.588,0.332-17.038c-7.523-13.385-43.679-43.182-43.679-43.182s-6.778-7.096-12.53-5.742
	c-9.766,2.292-38.766,19.703-43.983,28.272c-3.573,5.866-2.823,20.997-0.539,27.476c9.642,27.268,38.899,78.379,88.224,126.511
	C433.364,404.028,499.118,443.246,499.118,443.246"/>
</svg>
