<?xml version="1.0" encoding="utf-8"?>
<!-- Generator: Adobe Illustrator 16.0.0, SVG Export Plug-In . SVG Version: 6.00 Build 0)  -->
<!DOCTYPE svg PUBLIC "-//W3C//DTD SVG 1.1//EN" "http://www.w3.org/Graphics/SVG/1.1/DTD/svg11.dtd">
<svg version="1.1" id="Слой_1" xmlns="http://www.w3.org/2000/svg" xmlns:xlink="http://www.w3.org/1999/xlink" x="0px" y="0px"
	 width="841.89px" height="595.28px" viewBox="0 0 841.89 595.28" enable-background="new 0 0 841.89 595.28" xml:space="preserve">
<path fill="none" stroke="#434344" stroke-width="18" stroke-miterlimit="10" d="M703.948,301.288
	c0,152.53-123.641,276.171-276.171,276.171c-152.523,0-276.168-123.641-276.168-276.171c0-152.521,123.645-276.162,276.168-276.162
	C580.308,25.126,703.948,148.767,703.948,301.288z"/>
<path fill="none" stroke="#434344" stroke-width="40" stroke-miterlimit="10" d="M504.009,243.794
	c0,46.025-37.31,83.338-83.352,83.338c-46.024,0-83.343-37.313-83.343-83.338c0-46.038,37.319-83.352,83.343-83.352
	C466.699,160.442,504.009,197.756,504.009,243.794z"/>
<path fill="#434344" d="M326.293,280.993c27.298-2.099,54.165,35.698,84.097,36.249c52.002,0.975,103.993-43.319,107.822-43.319
	l-95.055,196.612L326.293,280.993z"/>
</svg>
