<?xml version="1.0" encoding="UTF-8" standalone="no"?>
<!-- Generator: Adobe Illustrator 16.0.0, SVG Export Plug-In . SVG Version: 6.00 Build 0)  -->

<svg
   xmlns:dc="http://purl.org/dc/elements/1.1/"
   xmlns:cc="http://creativecommons.org/ns#"
   xmlns:rdf="http://www.w3.org/1999/02/22-rdf-syntax-ns#"
   xmlns:svg="http://www.w3.org/2000/svg"
   xmlns="http://www.w3.org/2000/svg"
   xmlns:sodipodi="http://sodipodi.sourceforge.net/DTD/sodipodi-0.dtd"
   xmlns:inkscape="http://www.inkscape.org/namespaces/inkscape"
   version="1.1"
   id="Слой_1"
   x="0px"
   y="0px"
   width="150px"
   height="150px"
   viewBox="0 0 150 150"
   enable-background="new 0 0 150 150"
   xml:space="preserve"
   inkscape:version="0.91 r13725"
   sodipodi:docname="delivery__free.svg"><metadata
     id="metadata3372"><rdf:RDF><cc:Work
         rdf:about=""><dc:format>image/svg+xml</dc:format><dc:type
           rdf:resource="http://purl.org/dc/dcmitype/StillImage" /><dc:title></dc:title></cc:Work></rdf:RDF></metadata><defs
     id="defs3370" /><sodipodi:namedview
     pagecolor="#ffffff"
     bordercolor="#666666"
     borderopacity="1"
     objecttolerance="10"
     gridtolerance="10"
     guidetolerance="10"
     inkscape:pageopacity="0"
     inkscape:pageshadow="2"
     inkscape:window-width="1292"
     inkscape:window-height="746"
     id="namedview3368"
     showgrid="false"
     inkscape:zoom="4.4500587"
     inkscape:cx="77.595155"
     inkscape:cy="90.30976"
     inkscape:window-x="66"
     inkscape:window-y="-8"
     inkscape:window-maximized="1"
     inkscape:current-layer="Слой_1" /><g
     id="g3344"
     style="fill:#ffffff"
     transform="matrix(1.0429885,0,0,1.0641125,-6.2493234,9.5530158)"><circle
       cx="77.333"
       cy="57.333"
       r="24.5"
       id="circle3346"
       style="fill:#ffffff" /><ellipse
       cx="77.5"
       cy="37.417"
       rx="10"
       ry="9.4169998"
       id="ellipse3348"
       style="fill:#ffffff" /><ellipse
       cx="59"
       cy="56.834"
       rx="10.334"
       ry="9.8330002"
       id="ellipse3350"
       style="fill:#ffffff" /><ellipse
       cx="96.5"
       cy="57.084"
       rx="9.6669998"
       ry="10.25"
       id="ellipse3352"
       style="fill:#ffffff" /><ellipse
       cx="77.333"
       cy="76.417"
       rx="10"
       ry="9.4160004"
       id="ellipse3354"
       style="fill:#ffffff" /><ellipse
       transform="matrix(0.7457,0.6663,-0.6663,0.7457,51.8031,-49.5634)"
       cx="90.833"
       cy="43.083"
       rx="10.001"
       ry="9.4160004"
       id="ellipse3356"
       style="fill:#ffffff" /><ellipse
       transform="matrix(-0.7457,0.6662,-0.6662,-0.7457,140.2491,32.9759)"
       cx="63.832001"
       cy="43.25"
       rx="10.001"
       ry="9.4160004"
       id="ellipse3358"
       style="fill:#ffffff" /><ellipse
       transform="matrix(-0.7457,0.6663,-0.6663,-0.7457,206.5514,64.3352)"
       cx="90.999001"
       cy="71.584"
       rx="10.001"
       ry="9.415"
       id="ellipse3360"
       style="fill:#ffffff" /><path
       d="m 70.549,78.609 c 4.03,-3.295 4.251,-9.595 0.493,-14.074 -3.756,-4.477 -10.068,-5.438 -14.1,-2.145 -4.029,3.296 -4.249,9.595 -0.492,14.073 3.758,4.479 10.069,5.44 14.099,2.146 z"
       id="path3362"
       style="fill:#ffffff"
       inkscape:connector-curvature="0" /></g><rect
     x="53.622108"
     y="63.751102"
     width="43.833"
     height="22.167"
     id="rect3364"
     style="fill:none" /><text
     font-size="18"
     id="text3366"
     x="51.474731"
     y="77.8396"
     style="font-size:16.62773132px;font-family:MyriadPro-Bold;fill:#60a1b7"
     transform="scale(1.0201021,0.98029403)">FREE</text>
</svg>