<?xml version="1.0" encoding="utf-8"?>
<!-- Generator: Adobe Illustrator 16.0.0, SVG Export Plug-In . SVG Version: 6.00 Build 0)  -->
<!DOCTYPE svg PUBLIC "-//W3C//DTD SVG 1.1//EN" "http://www.w3.org/Graphics/SVG/1.1/DTD/svg11.dtd">
<svg version="1.1" id="Слой_1" xmlns="http://www.w3.org/2000/svg" xmlns:xlink="http://www.w3.org/1999/xlink" x="0px" y="0px"
	 width="841.89px" height="595.28px" viewBox="0 0 841.89 595.28" enable-background="new 0 0 841.89 595.28" xml:space="preserve">
<g>
	<path fill="none" stroke="#434344" stroke-width="18" stroke-miterlimit="10" d="M703.948,301.288
		c0,152.53-123.641,276.171-276.171,276.171c-152.523,0-276.168-123.641-276.168-276.171c0-152.521,123.645-276.162,276.168-276.162
		C580.308,25.126,703.948,148.767,703.948,301.288z"/>
	<path fill="#434344" d="M434.369,114.587c-4.875-0.5-7.873-0.554-7.873-0.554s-70.845,3.938-89.738,61.391
		c-4.618,14.031,2.361,59.038,2.361,59.038s-20.917-7.61-11.808,32.287c6.296,27.563,19.681,27.535,19.681,27.535
		s4.917,25.986,7.87,33.07c2.951,7.087,15.747,23.607,15.747,23.607l0.784,44.095c0,0-110.32,48.522-144.839,64.547
		c-6.614,3.071-19.453,12.3-19.453,12.3c125.956,101.583,171.624,102.05,209.165,105.806c4.202,0.422,13.905-26.909,18.104-26.78
		V114.587z"/>
	<path fill="#434344" d="M424.925,114.587c4.869-0.5,7.868-0.544,7.868-0.544s70.845,3.929,89.739,61.381
		c4.616,14.04-2.363,59.038-2.363,59.038s20.923-7.602,11.807,32.287c-6.289,27.563-19.675,27.544-19.675,27.544
		s-4.922,25.987-7.873,33.072c-2.951,7.083-15.742,23.605-15.742,23.605l-0.79,44.085c0,0,110.325,48.531,144.843,64.555
		c6.61,3.063,18.807,14.313,18.807,14.313c-143.435,111.111-172.557,99.244-210.09,102.998c-4.202,0.417-24.142,1.449-28.339,1.579
		L424.925,114.587z"/>
</g>
</svg>
