<?xml version="1.0" encoding="utf-8"?>
<!-- Generator: Adobe Illustrator 19.0.1, SVG Export Plug-In . SVG Version: 6.00 Build 0)  -->
<svg version="1.1" id="Слой_1" xmlns="http://www.w3.org/2000/svg" xmlns:xlink="http://www.w3.org/1999/xlink" x="0px" y="0px"
	 viewBox="0 0 640 480" style="enable-background:new 0 0 640 480;" xml:space="preserve">
<style type="text/css">
	.st0{fill:#1D1D1B;}
	.st1{fill:#FFFFFF;}
	.st2{fill:#1D1D1B;stroke:#FFFFFF;stroke-miterlimit:10;}
</style>
<g>
	<path class="st0" d="M139.9,164.6c0,0-53.9,12.4-60.2,20.4c-11.7,14.8,0,186.1,0,186.1s62,39.8,240.2,39.8
		c145.8,0,240.2-33.3,240.2-33.3s11.9-174.1,0-194.4c-6.6-11.3-49.1-18.5-49.1-18.5"/>
	<path class="st1" d="M555.6,187.2c0,16.1-104.2,29.2-232.8,29.2c-128.6,0-232.8-13.1-232.8-29.2c0-16.1,104.2-29.2,232.8-29.2
		C451.3,158.1,555.6,171.1,555.6,187.2z"/>
	<path class="st2" d="M327.8,72.4c0,11.5-14.9,20.8-33.3,20.8c-18.4,0-33.3-9.3-33.3-20.8c0-11.5,14.9-20.8,33.3-20.8
		C312.9,51.6,327.8,60.9,327.8,72.4z"/>
	<path class="st2" d="M386.7,82.6c0,11.5-14.9,20.8-33.3,20.8c-18.4,0-33.3-9.3-33.3-20.8c0-11.5,14.9-20.8,33.3-20.8
		C371.7,61.8,386.7,71.1,386.7,82.6z"/>
	<ellipse class="st2" cx="408.9" cy="98.4" rx="33.3" ry="20.8"/>
	<ellipse class="st2" cx="386.7" cy="114.1" rx="33.3" ry="20.8"/>
	<ellipse class="st2" cx="442.2" cy="119.2" rx="33.3" ry="20.8"/>
	<ellipse class="st2" cx="486.7" cy="149.7" rx="33.3" ry="20.8"/>
	<path class="st2" d="M353.3,103.5c0,11.5-14.9,20.8-33.3,20.8c-18.4,0-33.3-9.3-33.3-20.8c0-11.5,14.9-20.8,33.3-20.8
		C338.4,82.6,353.3,91.9,353.3,103.5z"/>
	<path class="st2" d="M268.6,93.3c0,11.5-14.9,20.8-33.3,20.8c-18.4,0-33.3-9.3-33.3-20.8c0-11.5,14.9-20.8,33.3-20.8
		C253.6,72.4,268.6,81.8,268.6,93.3z"/>
	<path class="st2" d="M301.9,98.4c0,11.5-14.9,20.8-33.3,20.8c-18.4,0-33.3-9.3-33.3-20.8c0-11.5,14.9-20.8,33.3-20.8
		C287,77.5,301.9,86.9,301.9,98.4z"/>
	<path class="st2" d="M235.2,114.1c0,11.5-14.9,20.8-33.3,20.8c-18.4,0-33.3-9.3-33.3-20.8c0-11.5,14.9-20.8,33.3-20.8
		C220.3,93.3,235.2,102.6,235.2,114.1z"/>
	<ellipse class="st2" cx="245" cy="128.9" rx="33.3" ry="20.8"/>
	<path class="st2" d="M327.8,128.9c0,11.5-14.9,20.8-33.3,20.8c-18.4,0-33.3-9.3-33.3-20.8c0-11.5,14.9-20.8,33.3-20.8
		C312.9,108.1,327.8,117.4,327.8,128.9z"/>
	<path class="st2" d="M386.7,128.9c0,11.5-14.9,20.8-33.3,20.8c-18.4,0-33.3-9.3-33.3-20.8c0-11.5,14.9-20.8,33.3-20.8
		C371.7,108.1,386.7,117.4,386.7,128.9z"/>
	<ellipse class="st2" cx="397.8" cy="140" rx="33.3" ry="20.8"/>
	<ellipse class="st2" cx="435.7" cy="158.1" rx="33.3" ry="20.8"/>
	<ellipse class="st2" cx="383" cy="170.6" rx="33.3" ry="20.8"/>
	<path class="st2" d="M361.2,155.8c0,11.5-14.9,20.8-33.3,20.8c-18.4,0-33.3-9.3-33.3-20.8c0-11.5,14.9-20.8,33.3-20.8
		C346.2,134.9,361.2,144.3,361.2,155.8z"/>
	<path class="st2" d="M301.9,160.9c0,11.5-14.9,20.8-33.3,20.8c-18.4,0-33.3-9.3-33.3-20.8c0-11.5,14.9-20.8,33.3-20.8
		C287,140,301.9,149.4,301.9,160.9z"/>
	<ellipse class="st2" cx="158" cy="149.7" rx="33.3" ry="20.8"/>
	<ellipse class="st2" cx="208" cy="149.7" rx="33.3" ry="20.8"/>
	<ellipse class="st2" cx="158" cy="178.9" rx="33.3" ry="20.8"/>
	<path class="st2" d="M235.2,181.7c0,11.5-14.9,20.8-33.3,20.8c-18.4,0-33.3-9.3-33.3-20.8c0-11.5,14.9-20.8,33.3-20.8
		C220.3,160.9,235.2,170.2,235.2,181.7z"/>
	<ellipse class="st2" cx="253.3" cy="191.4" rx="33.3" ry="20.8"/>
	<ellipse class="st2" cx="308" cy="187.2" rx="33.3" ry="20.8"/>
	<ellipse class="st2" cx="361.2" cy="191.4" rx="33.3" ry="20.8"/>
	<ellipse class="st2" cx="475.6" cy="176.6" rx="33.3" ry="20.8"/>
	<ellipse class="st2" cx="427.8" cy="185.9" rx="33.3" ry="20.8"/>
</g>
</svg>
