<?xml version="1.0" encoding="utf-8"?>
<!-- Generator: Adobe Illustrator 19.0.1, SVG Export Plug-In . SVG Version: 6.00 Build 0)  -->
<svg version="1.1" id="Слой_1" xmlns="http://www.w3.org/2000/svg" xmlns:xlink="http://www.w3.org/1999/xlink" x="0px" y="0px"
	 viewBox="0 0 640 480" style="enable-background:new 0 0 640 480;" xml:space="preserve">
<style type="text/css">
	.st0{fill:#1D1D1B;}
	.st1{fill:#FFFFFF;}
</style>
<g>
	<g>
		<path class="st0" d="M533.9,124.3c0,0,0.1,2.2,0.4,6.3c0.2,4.1,0.6,10.1,1,17.8c0.3,7.7,0.7,16.9,1,27.6
			c0.3,10.7,0.5,22.7,0.5,35.8c-0.1,13.1-0.3,27.4-1,42.4c-0.7,15.1-1.7,30.9-3.6,47.3c-1,8.2-2.3,16.5-4.1,24.9
			c-0.9,4.2-1.9,8.4-3.2,12.6c-1.3,4.2-2.7,8.4-4.7,12.5c-0.5,1-1,2.1-1.6,3l-0.9,1.5l-0.9,1.4c-0.6,0.9-1.3,1.9-1.9,2.8
			c-0.7,0.9-1.3,1.8-2,2.7c-2.8,3.6-5.9,6.9-9.1,10c-6.5,6.2-13.7,11.6-21.2,16.4c-7.5,4.8-15.3,9.1-23.2,13
			c-8,3.8-16.1,7.2-24.2,10.3c-16.2,6.2-32.5,11.3-48.4,15.6c-15.9,4.3-31.4,8-46.2,10.9c-14.8,2.9-28.8,5.3-41.8,7.3
			c-6.5,1-12.7,1.9-18.7,2.7c-5.9,0.8-11.6,1.5-16.9,2.1c-10.6,1.2-19.9,2.1-27.5,2.8c-7.6,0.7-13.6,1.1-17.7,1.3
			c-4.1,0.2-6.3,0.4-6.3,0.4l0-0.4c0,0,8.7-0.7,23.9-2.4c15.2-1.7,36.9-4.5,62.8-8.9c12.9-2.2,26.9-4.8,41.6-7.9
			c14.7-3.1,30.1-6.8,45.9-11.2c15.8-4.4,32-9.5,48-15.8c8-3.1,16-6.5,23.8-10.3c7.8-3.8,15.5-7.9,22.9-12.6
			c7.4-4.7,14.4-9.9,20.7-15.9c3.1-3,6.1-6.2,8.8-9.5c2.7-3.4,5.1-7,7-10.8c1.9-3.8,3.3-7.9,4.6-11.9c1.3-4.1,2.3-8.2,3.2-12.3
			c1.8-8.2,3.1-16.5,4.2-24.6c2.1-16.2,3.3-32.1,4.2-47.1c0.8-15,1.2-29.2,1.5-42.3c0.4-26.2,0.1-48.1-0.3-63.4
			c-0.4-15.3-0.8-24-0.8-24L533.9,124.3z"/>
	</g>
	<path class="st0" d="M488.9,238.5c11.5,69.4-52.7,124.6-106.4,141.8c-68.1,21.8-131-6.3-140.4-62.9c-9.4-56.5,38.2-120,106.4-141.8
		C416.6,153.9,479.5,182,488.9,238.5z"/>
	<path class="st0" d="M402.4,23.1c0,0,58.5-1.8,94,22.9c27.6,19.2,34.3,42.2,34.3,42.2h-60.5c0,0-18-24.8-25-32.5
		C434.4,43.6,402.4,23.1,402.4,23.1z"/>
	<path class="st0" d="M396.7,23.1c0,0,22.3,11.7,39.5,28.2c18,17.3,30.2,36.9,30.2,36.9l-52.7,3.1c0,0-27.4-25-37.5-32.3
		c-11.1-8-48.4-28.4-48.4-28.4s27.5-6.3,36.3-7.5C381.8,20.5,396.7,23.1,396.7,23.1z"/>
	<path class="st0" d="M233.5,58.5c0,0,25.7-12,44.1-15.9c9.8-2.1,42.1-8.2,42.1-8.2s30.8,15.4,40.8,22.1
		c12.2,8.2,45.5,36.6,45.5,36.6s-29.2,0.5-38.9,2.4c-9.5,1.9-39.2,11-39.2,11s-23.4-21-42.4-29.3C266.5,69,233.5,58.5,233.5,58.5z"
		/>
	<path class="st0" d="M134.6,110c0,0,31.9-24.3,43.7-30.8c9.5-5.3,40.9-16.4,40.9-16.4s33.4,13.4,43.6,18.3
		c14,6.7,53.2,28.9,53.2,28.9s-33.6,11.7-44.4,18.3c-10.6,6.4-41.3,33.7-41.3,33.7s-35.5-25.1-47.9-31.8
		C170.9,124,134.6,110,134.6,110z"/>
	<path class="st0" d="M126.7,121.6c0,0-11.7,21.9-13.9,28.9c-5.6,17.8-5.6,37.5-5.6,37.5s29.5,11.3,38.9,16.9
		c11.9,7,46.1,33.2,46.1,33.2s3.1-28.2,6.2-36.6c2.9-7.8,16.7-26.5,16.7-26.5s-32.6-25.6-44.4-32.7
		C160.5,136.1,126.7,121.6,126.7,121.6z"/>
	<path class="st0" d="M105.5,196.2c0,0-3.7,31.2-4.5,41.9c-1,12.9-2.1,51.9-2.1,51.9s25.2,11,33,15.5c15.9,9.3,58.3,46.7,58.3,46.7
		s1.4-93.9,0-95.8c-1-1.3-38.2-35.2-62.8-52.5C116.5,196.3,105.5,196.2,105.5,196.2z"/>
	<path class="st0" d="M98.9,300.7c1.6-1.8,17.3,16.2,37.8,32.7c24.4,19.6,54,38.5,54,38.5v86.2c0,0-61.1-24.2-66.2-29.4
		c-16.2-16.3-16.6-25.6-20.8-53C98.5,341.7,96,304.1,98.9,300.7z"/>
</g>
<path class="st1" d="M414.5,186.9c0,0-43.7,76.3-42.2,91.1l94.2-39.9C466.5,238.1,467.6,204.8,414.5,186.9
	C405.2,183.8,414.5,186.9,414.5,186.9z"/>
<path class="st1" d="M466.5,259.8c0,0-96.5,20.1-93.8,30.5c3.9,14.9,87.8,10.3,87.8,10.3l0,0C470,290,466.5,259.8,466.5,259.8z"/>
</svg>
