<?xml version="1.0" encoding="utf-8"?>
<!-- Generator: Adobe Illustrator 19.0.1, SVG Export Plug-In . SVG Version: 6.00 Build 0)  -->
<svg version="1.1" id="Слой_1" xmlns="http://www.w3.org/2000/svg" xmlns:xlink="http://www.w3.org/1999/xlink" x="0px" y="0px"
	 viewBox="0 0 640 480" style="enable-background:new 0 0 640 480;" xml:space="preserve">
<style type="text/css">
	.st0{fill:#1D1D1B;}
	.st1{fill:#FFFFFF;}
</style>
<g>
	<g>
		<path class="st0" d="M115.5,94.3c0,0,1.2-1.2,3.8-3.3c2.5-2,6.4-4.8,11.5-8c5.1-3.2,11.6-6.8,19.2-10.4
			c7.6-3.6,16.4-7.3,26.2-10.8c19.6-7,43.1-13.1,68.7-17.5c12.8-2.2,26.1-4,39.6-5.5c13.6-1.4,27.4-2.4,41.2-3.1
			c13.8-0.6,27.7-0.8,41.3-0.4c13.6,0.4,27.1,1.3,40,2.8c12.9,1.4,25.4,3.4,37,5.7c11.7,2.3,22.7,4.9,32.7,7.7
			c10,2.8,19.1,5.8,27,8.6c8,2.8,14.8,5.6,20.3,8.1c5.5,2.5,9.8,4.5,12.7,6c2.9,1.5,4.4,2.4,4.4,2.4L541,77c0,0-1.5-0.8-4.5-2.2
			c-2.9-1.4-7.3-3.3-12.9-5.6c-5.6-2.2-12.5-4.8-20.5-7.5c-8-2.7-17.1-5.4-27.1-7.9c-10-2.6-20.9-5.1-32.6-7.2
			c-11.7-2.1-24-4-36.9-5.4c-12.8-1.4-26.2-2.4-39.7-2.9c-13.6-0.5-27.3-0.5-41.2,0c-13.8,0.6-27.6,1.4-41.1,2.7
			c-13.5,1.3-26.8,3-39.6,5.1c-12.8,2.1-25,4.6-36.6,7.4c-11.5,2.8-22.3,6-32.1,9.3c-9.8,3.4-18.6,6.9-26.2,10.4
			c-7.6,3.5-14.1,7-19.3,10.1c-5.2,3.1-9,5.9-11.6,7.9c-2.6,2-3.8,3.2-3.8,3.2L115.5,94.3z"/>
	</g>
	<path class="st0" d="M107.2,110.8c0,0,116.8,97.1,286.1,81.9c127.2-11.4,147.8-98.3,147.8-98.3v270.4c0,0-51,65.8-141.9,76.1
		c-155,17.6-283.7-59.7-283.7-59.7L107.2,110.8z"/>
	<path class="st0" d="M466.9,109.8c0,19.3-61.6,35-137.5,35c-75.9,0-137.5-15.7-137.5-35c0-19.3,61.6-35,137.5-35
		C405.3,74.8,466.9,90.5,466.9,109.8z"/>
	<path class="st1" d="M445,106c0,9.5-28,17.2-62.5,17.2c-34.5,0-62.5-7.7-62.5-17.2s28-17.2,62.5-17.2C417,88.9,445,96.6,445,106z"
		/>
	<path class="st1" d="M203.7,348.2c0,9.5-11,17.2-24.6,17.2c-13.6,0-24.6-7.7-24.6-17.2c0-9.5,11-17.2,24.6-17.2
		C192.7,331,203.7,338.7,203.7,348.2z"/>
	<path class="st1" d="M295.4,383.6c0,11.2-16.1,20.2-36,20.2c-19.9,0-36-9-36-20.2c0-11.1,16.1-20.2,36-20.2
		C279.2,363.4,295.4,372.4,295.4,383.6z"/>
	<path class="st1" d="M253.3,335.1c0,5.6-8.1,10.1-18,10.1c-9.9,0-18-4.5-18-10.1c0-5.6,8.1-10.1,18-10.1
		C245.3,325,253.3,329.5,253.3,335.1z"/>
</g>
</svg>
