<?xml version="1.0" encoding="utf-8"?>
<!-- Generator: Adobe Illustrator 19.0.1, SVG Export Plug-In . SVG Version: 6.00 Build 0)  -->
<svg version="1.1" id="Слой_1" xmlns="http://www.w3.org/2000/svg" xmlns:xlink="http://www.w3.org/1999/xlink" x="0px" y="0px"
	 viewBox="0 0 640 480" style="enable-background:new 0 0 640 480;" xml:space="preserve">
<style type="text/css">
	.st0{fill:#FFFFFF;}
	.st1{fill:#1D1D1B;}
	.st2{fill:none;}
</style>
<g>
	<g>
		<path class="st0" d="M277.1,99.7c0,0,288.2,63,273,112C526.5,287.9,47.7,408.2,71.7,387.1c100.3-88,177.4-254.7,177.4-254.7"/>
		<path class="st1" d="M277.1,99.5c0,0,4.3,1,12.5,2.8c8.1,1.9,20,4.6,35.1,8.4c15.1,3.7,33.4,8.4,54.3,14.2
			c20.9,5.8,44.4,12.7,69.7,21.2c12.6,4.3,25.7,9,39.1,14.5c6.7,2.7,13.4,5.7,20.1,8.9c6.7,3.2,13.4,6.7,20,10.7
			c3.3,2,6.5,4.2,9.6,6.6c3.1,2.4,6.1,5,8.7,8.1c2.6,3.1,4.9,6.7,5.6,11c0.3,2.1,0.1,4.4-0.5,6.4c-0.6,2-1.5,3.9-2.6,5.7
			c-2.1,3.6-4.7,6.8-7.6,9.8c-2.9,3-6,5.7-9.2,8.3c-6.4,5.2-13.4,9.8-20.5,14.2c-14.3,8.7-29.5,16.4-45.1,23.6
			c-15.6,7.2-31.6,14-47.9,20.4c-32.6,12.9-66.2,24.6-100.1,35.6c-33.9,11-68,21.2-101.7,30.5c-16.9,4.7-33.7,9.1-50.3,13.4
			c-16.7,4.2-33.2,8.1-49.5,11.6c-8.2,1.7-16.3,3.4-24.5,4.7c-4.1,0.7-8.1,1.3-12.3,1.7c-2.1,0.2-4.1,0.3-6.4,0.2
			c-0.6,0-1.2-0.1-1.9-0.2c-0.4-0.1-0.8-0.2-1.3-0.4c-0.3-0.1-0.6-0.3-0.9-0.6c-0.3-0.3-0.7-0.8-1-1.4c-0.2-0.7-0.2-1.4-0.1-1.8
			c0.1-0.5,0.3-0.8,0.5-1.1c0.3-0.5,0.6-0.8,0.9-1.1l1.2-1.1c12-10.5,23-21.6,33.3-32.8c20.6-22.4,38.3-45.2,53.7-66.9
			c7.7-10.8,14.9-21.4,21.5-31.5c6.7-10.1,12.8-19.9,18.5-29.1c11.3-18.4,20.7-34.9,28.2-48.4c7.5-13.6,13.2-24.4,17-31.8
			c3.8-7.4,5.7-11.4,5.7-11.4l0.5,0.2c0,0-1.8,4.1-5.4,11.6c-3.6,7.5-9,18.5-16.2,32.3c-7.2,13.8-16.3,30.4-27.3,49.1
			c-5.5,9.4-11.5,19.2-18,29.5c-6.5,10.3-13.6,21-21.2,31.9c-7.6,11-15.8,22.2-24.7,33.6c-8.9,11.4-18.3,22.9-28.7,34.3
			c-10.3,11.3-21.4,22.6-33.5,33.3l-1,0.9c-0.1,0.1-0.1,0.2-0.1,0.1c0-0.1,0.1-0.1,0.2-0.4c0.1-0.2,0.1-0.7-0.1-1.1
			c-0.1-0.4-0.4-0.7-0.5-0.8c-0.2-0.1-0.2-0.2-0.3-0.2c-0.1,0,0,0,0.2,0c0.3,0.1,0.7,0.1,1.1,0.1c1.7,0.1,3.7-0.1,5.7-0.2
			c3.9-0.4,7.9-0.9,11.9-1.6c8-1.3,16.1-2.9,24.2-4.6c32.5-6.9,66-15.2,99.7-24.3c33.8-9.1,67.9-19.1,101.7-29.9
			c33.9-10.8,67.5-22.3,100.1-35c16.3-6.3,32.3-13,47.9-20.1c15.6-7.1,30.7-14.7,44.9-23.2c7.1-4.3,14-8.8,20.3-13.9
			c3.2-2.5,6.2-5.2,9-8c2.8-2.9,5.3-5.9,7.3-9.3c1-1.7,1.8-3.4,2.4-5.2c0.6-1.7,0.7-3.5,0.5-5.3c-0.5-3.6-2.5-6.9-4.9-9.8
			c-2.4-2.9-5.3-5.5-8.3-7.8c-3-2.4-6.2-4.5-9.4-6.5c-6.4-4-13.1-7.5-19.7-10.8c-6.7-3.2-13.3-6.2-19.9-8.9
			c-13.2-5.5-26.3-10.3-38.9-14.7c-25.2-8.7-48.6-15.7-69.4-21.7c-20.8-5.9-39.1-10.7-54.2-14.6c-15.1-3.8-27-6.7-35.1-8.6
			C281.4,101,277,100,277,100L277.1,99.5z"/>
	</g>
	<g>
		<path class="st0" d="M75.2,388.3c0,0,230.5-56.1,302.5-81c158.1-54.8,176.8-97.6,176.8-97.6"/>
		<path class="st1" d="M75.2,388c0,0,1.9-0.6,5.6-1.6c3.6-1,9-2.7,15.8-4.6c6.8-1.9,15.1-4.3,24.6-7c9.5-2.7,20.2-5.8,31.9-9
			c11.7-3.2,24.3-6.9,37.7-10.5c6.7-1.9,13.6-3.8,20.6-5.7c3.5-1,7.1-2,10.7-3c3.6-1,7.2-2,10.9-3c14.6-4,29.7-8.2,45-12.5
			c15.3-4.2,30.9-8.6,46.4-13.1c15.5-4.5,31-8.9,46-13.9c1.9-0.6,3.7-1.2,5.6-1.9c1.9-0.7,3.7-1.3,5.6-1.9c3.7-1.3,7.4-2.6,11.1-3.9
			c3.7-1.3,7.3-2.6,10.9-3.9c3.6-1.3,7.2-2.7,10.7-4c3.5-1.3,7-2.7,10.5-4c3.5-1.3,6.9-2.7,10.2-4.1c1.7-0.7,3.4-1.3,5-2
			c1.7-0.7,3.3-1.4,4.9-2c3.3-1.4,6.5-2.7,9.7-4.1c6.4-2.7,12.5-5.5,18.4-8.3c5.9-2.7,11.5-5.5,16.9-8.2c2.7-1.4,5.3-2.7,7.8-4.1
			c1.3-0.7,2.5-1.4,3.8-2c1.2-0.7,2.4-1.4,3.6-2c4.8-2.6,9.3-5.3,13.4-7.9c8.3-5.2,15.2-10.2,20.6-14.6c5.4-4.5,9.4-8.3,11.8-11.2
			c1.2-1.4,2.1-2.6,2.6-3.4c0.5-0.8,0.8-1.2,0.8-1.2l0.5,0.2c0,0-0.2,0.5-0.7,1.3c-0.5,0.9-1.3,2.1-2.5,3.6
			c-2.3,3-6.1,7.2-11.4,11.9c-5.3,4.7-12.1,10.1-20.3,15.6c-8.2,5.5-17.7,11.3-28.4,17.1c-21.3,11.7-47.2,23.4-75.4,34.4
			c-14.1,5.6-28.9,10.9-44,16c-15.1,5-30.7,9.6-46.2,14.1c-31.1,8.9-62.4,17.2-91.8,24.8c-29.4,7.7-56.8,14.6-80.3,20.5
			c-47.1,11.8-78.5,19.4-78.5,19.4L75.2,388z"/>
	</g>
	<g>
		<path class="st0" d="M286.5,98.8c0,0-32.7-3.5-44.2,12.6c-10,14-4,21.8,4.9,25.7c8.2,3.6,30-2,39.2-0.6
			c12.8,2,11.1,17.3,23.1,21.3c10.9,3.6,31.1-3.3,42.4-2.6c19.8,1.4,21,18,29.4,19.7c16.4,3.2,30.7-7.5,47.1-2
			c6.9,2.3,20.2,23,26,26.8c12,7.7,35.3,0.3,41.9,2c3.9,1,15,15.1,19,15.9c10.6,2.3,40,10.6,45.5-7.9c8.6-29-51-54.2-125.9-77.8
			C354.6,106.5,286.5,98.8,286.5,98.8"/>
		<path class="st1" d="M286.5,98.8c0,0-0.7-0.1-2.1-0.1c-1.4-0.1-3.5-0.1-6.2-0.1c-2.7,0.1-6.1,0.2-10,0.8
			c-3.9,0.5-8.4,1.4-13.1,3.3c-2.3,0.9-4.7,2.1-7,3.7c-2.3,1.6-4.3,3.6-5.9,6.2c-1.7,2.5-3.2,5.3-3.9,8.4c-0.4,1.5-0.5,3.2-0.3,4.7
			c0.2,1.6,0.7,3.1,1.7,4.5c1.8,2.8,4.9,4.7,8.2,6.1c1.6,0.6,3.4,0.8,5.3,0.9c1.9,0.1,3.8,0,5.8-0.1c3.9-0.2,7.9-0.8,12.1-1.2
			c4.2-0.4,8.4-1,12.9-0.9c1.1,0,2.3,0.1,3.5,0.4l0.4,0.1l0.5,0.1c0.3,0.1,0.6,0.2,0.9,0.3c0.6,0.2,1.2,0.4,1.7,0.7
			c2.2,1.1,4.2,2.8,5.6,4.7c3,3.8,4.7,8.2,7.6,11.4c1.5,1.6,3.2,2.8,5.2,3.6c0.2,0.1,0.5,0.2,0.7,0.3l0.9,0.2c0.5,0.1,1,0.2,1.6,0.3
			c1.1,0.2,2.2,0.3,3.4,0.3c4.6,0.1,9.5-0.6,14.3-1.4c4.9-0.8,9.9-1.8,15.1-2.3c1.3-0.1,2.6-0.2,4-0.3c0.7,0,1.4,0,2.1,0l0.5,0
			l0.3,0l0.2,0l1,0.1c2.8,0.3,5.5,0.9,8.2,2c2.6,1.1,5.1,2.7,7.3,4.5c2.1,1.9,4,4.1,5.6,6.2c1.7,2.1,3.2,4.3,4.9,5.6
			c0.4,0.3,0.9,0.6,1.3,0.8c0.2,0.1,0.4,0.2,0.7,0.2c0.1,0,0.3,0.1,0.3,0.1l0.5,0.1l1,0.2l0.9,0.1c0.6,0.1,1.3,0.1,1.9,0.2
			c5.1,0.2,10.3-0.7,15.7-1.9c5.4-1.1,11-2.5,17-2.4c3,0,6,0.4,9,1.3l1.1,0.3l0.3,0.1c0.1,0,0.4,0.1,0.4,0.1l0.5,0.2
			c0.4,0.2,1,0.5,1.3,0.7c0.4,0.2,0.7,0.5,1,0.7c1.3,0.9,2.4,2,3.5,3c4.2,4.2,7.7,8.7,11.4,13.1c1.8,2.2,3.6,4.4,5.5,6.4
			c0.9,1,1.9,2,2.8,2.6l0.2,0.1c0,0,0.2,0.1,0.1,0.1l0.5,0.3c0.3,0.2,0.7,0.4,0.9,0.5l0.8,0.4l0.9,0.4c2.4,0.9,5,1.4,7.7,1.6
			c2.7,0.2,5.5,0.2,8.3,0c2.8-0.2,5.6-0.5,8.5-0.8c2.9-0.3,5.7-0.7,8.8-0.9c0.8,0,1.6-0.1,2.4,0c0.8,0,1.7,0.1,2.8,0.4
			c0.1,0,0.5,0.2,0.8,0.3c0.3,0.2,0.5,0.2,0.7,0.4c0.4,0.2,0.8,0.5,1.1,0.7c0.7,0.5,1.3,1,1.8,1.5c2.3,2,4.3,4.1,6.4,6.2
			c2,2,4.1,4.1,6.1,5.7c0.5,0.4,1,0.7,1.4,0.9c0.1,0,0.2,0.1,0.2,0.1c-0.1,0,0.2,0.1,0.4,0.1l1.1,0.2l4.2,1
			c5.6,1.2,11.2,2.3,16.7,2.5c2.8,0.1,5.5,0,8.1-0.4c2.6-0.5,5.1-1.3,7.1-2.6c2-1.3,3.6-3.2,4.5-5.5c0.2-0.5,0.4-1.2,0.6-1.7l0.3-1
			l0.2-0.9c0.2-1.2,0.3-2.5,0.2-3.7c-0.3-5-2.9-9.8-6.4-13.8c-3.5-4.1-7.8-7.6-12.2-10.7c-9-6.3-18.8-11.4-28.5-16
			c-9.8-4.6-19.7-8.6-29.5-12.3c-9.8-3.7-19.4-7.2-28.8-10.4c-9.5-3.2-18.6-6.2-27.6-9c-2.2-0.7-4.5-1.4-6.7-2.1
			c-2.2-0.7-4.4-1.3-6.6-1.9c-4.3-1.3-8.6-2.5-12.8-3.7c-8.4-2.4-16.4-4.4-24.1-6.4c-3.8-1-7.6-1.9-11.2-2.8
			c-3.7-0.9-7.2-1.7-10.7-2.5c-13.8-3.1-25.9-5.6-35.9-7.5c-10-1.9-17.9-3.2-23.2-4C289.4,99.2,286.5,98.8,286.5,98.8
			s2.9,0.3,8.3,0.9c5.4,0.7,13.3,1.7,23.4,3.3c10,1.6,22.2,3.8,36.1,6.5c13.9,2.8,29.5,6.3,46.4,10.7c16.9,4.4,35.1,9.7,54.1,15.9
			c19,6.2,39,13.2,59,22.2c10,4.6,20,9.6,29.4,16.2c4.7,3.3,9.2,7,13.2,11.5c1.9,2.3,3.7,4.7,5.1,7.5c1.4,2.8,2.3,5.9,2.5,9.1
			c0.1,1.6,0,3.2-0.3,4.8l-0.2,1.2l-0.3,1c-0.2,0.9-0.5,1.6-0.8,2.4c-1.2,3.1-3.5,5.8-6.3,7.7c-2.8,1.9-5.9,2.8-9,3.4
			c-3.1,0.5-6.1,0.6-9.2,0.5c-6-0.2-11.9-1.3-17.6-2.6l-4.3-1l-1-0.2c-0.2,0-1.1-0.3-1.5-0.5c-1-0.5-1.6-1-2.3-1.5
			c-2.5-2-4.6-4.1-6.6-6.1c-2.1-2-4.1-4.1-6.1-5.9c-0.5-0.5-1-0.9-1.5-1.2c-0.2-0.2-0.5-0.3-0.7-0.5c-0.1,0-0.3-0.2-0.3-0.2
			c0,0,0,0-0.2-0.1c-0.2-0.1-0.9-0.2-1.5-0.2c-0.6,0-1.3,0-2,0c-2.7,0.1-5.6,0.5-8.5,0.9c-2.9,0.3-5.8,0.6-8.8,0.8c-3,0.2-6,0.2-9,0
			c-3-0.2-6.1-0.8-9.1-1.9l-1.1-0.5l-1.2-0.6c-0.4-0.2-0.7-0.4-1-0.6l-0.5-0.3c-0.3-0.2-0.2-0.2-0.4-0.2l-0.3-0.2
			c-1.4-1.1-2.4-2.1-3.5-3.2c-2-2.2-3.9-4.4-5.7-6.6c-3.6-4.4-7.2-8.9-11-12.7c-1-0.9-1.9-1.8-2.9-2.5c-0.2-0.2-0.5-0.3-0.7-0.5
			c-0.3-0.2-0.3-0.2-0.6-0.3l-0.5-0.2c-0.2-0.1,0,0-0.1,0l-0.2-0.1l-0.9-0.3c-2.5-0.7-5.1-1.1-7.7-1.1c-10.5-0.2-21.2,4.6-32.9,4
			c-0.7-0.1-1.4-0.1-2.2-0.2l-1.1-0.1l-1-0.2l-0.5-0.1c-0.3-0.1-0.5-0.1-0.7-0.2c-0.4-0.1-0.8-0.3-1.3-0.4c-0.8-0.4-1.5-0.8-2.2-1.3
			c-1.3-1-2.3-2.1-3.2-3.2c-0.9-1.1-1.7-2.2-2.5-3.2c-1.6-2.1-3.2-4-5-5.6c-1.8-1.6-3.8-2.9-6.1-3.8c-4.4-1.9-9.3-2.2-14.3-1.8
			c-5,0.4-10,1.3-14.9,2c-5,0.7-10,1.3-15,1.1c-1.3-0.1-2.5-0.2-3.8-0.4c-0.6-0.1-1.3-0.3-1.9-0.4l-0.9-0.3c-0.4-0.1-0.6-0.2-1-0.4
			c-2.5-1-4.7-2.6-6.3-4.5c-3.4-3.8-5-8.3-7.6-11.7c-1.3-1.7-2.8-3.1-4.5-3.9c-0.4-0.2-0.9-0.4-1.4-0.6c-0.2-0.1-0.5-0.1-0.7-0.2
			l-0.3-0.1l-0.4-0.1c-1-0.2-2-0.3-3-0.4c-4.2-0.1-8.4,0.3-12.6,0.7c-4.1,0.4-8.2,0.8-12.2,1c-2,0.1-4,0.1-6,0c-2-0.2-4-0.4-5.9-1.2
			c-1.8-0.8-3.5-1.7-5-2.9c-1.5-1.2-2.9-2.5-3.9-4.2c-1-1.6-1.6-3.4-1.8-5.3c-0.2-1.8,0.1-3.6,0.5-5.3c0.9-3.3,2.6-6.2,4.4-8.7
			c1.7-2.6,4-4.7,6.3-6.3c2.4-1.6,4.8-2.8,7.2-3.7c4.8-1.8,9.4-2.5,13.3-3c3.9-0.4,7.3-0.5,10-0.5c2.7,0,4.8,0.1,6.2,0.2
			C285.8,98.7,286.5,98.8,286.5,98.8z"/>
	</g>
	<path class="st1" d="M302.8,176.2c-3.8,6.6-19.3,11.2-19.3,11.2l9.7,16.1c0,0-6.6,5.5-9.7,6.3c-3.5,0.9-14.8-0.5-14.8-0.5
		l-7.6-16.4c0,0-14.1,1.7-21.7-1.7c-5.3-2.4-20.5-19.4,21.1-30C303.5,150.3,305.8,171,302.8,176.2z"/>
	<path class="st1" d="M262.6,272.4c-3.8,4.9-2.2,15.5-2.2,15.5l-15.2,1.6c0,0-2,6-1.6,8.1c0.4,2.3,5.1,7.9,5.1,7.9l14.7-2.9
		c0,0,3.2,8.6,8.2,11.3c3.5,1.9,25.3,4.8,19.9-22.8C286,262.7,265.6,268.5,262.6,272.4z"/>
	<path class="st1" d="M174.7,308.3c-3,2.3-3.8,9.1-3.8,9.1l-9.1-1.9c0,0-2.1,3.3-2.2,4.6c-0.1,1.5,1.7,5.8,1.7,5.8l9,1.1
		c0,0,0.5,5.9,3,8.5c1.7,1.8,14.1,4.7,15.4-13.2C190,303.7,177,306.5,174.7,308.3z"/>
	<path class="st1" d="M419.9,188.5c0,0-27.4,23.6-35.6,31.9c-10.2,10.3-35.6,31.9-35.6,31.9s51,42.2,79.5-2.8
		C447.4,219.2,419.9,188.5,419.9,188.5z"/>
	<ellipse class="st0" cx="398" cy="258.1" rx="1.9" ry="1.1"/>
	<path class="st1" d="M412.5,244.5"/>
	<path class="st1" d="M410.7,248.5"/>
	<path class="st0" d="M417.4,244.8c0,3-1.5,5.4-3.3,5.4c-1.8,0-3.3-2.4-3.3-5.4c0-3,1.5-5.4,3.3-5.4
		C415.9,239.4,417.4,241.8,417.4,244.8z"/>
	<path class="st0" d="M394.7,240.7c2.4-0.2,4.5,0.5,4.6,1.6c0.1,1-1.9,2-4.3,2.2c-2.5,0.2-4.5-0.5-4.6-1.6
		C390.3,241.9,392.2,240.9,394.7,240.7z"/>
	<ellipse transform="matrix(0.9469 -0.3215 0.3215 0.9469 -49.3675 146.0912)" class="st0" cx="417.6" cy="222.5" rx="2.5" ry="4"/>
	<path class="st1" d="M239.6,231.7c0,0-9.8,25.9-13.5,34c-4.6,10.1-13.5,34-13.5,34s-36.1-19.9-13-53.5
		C215.1,223.6,239.6,231.7,239.6,231.7z"/>
	<path class="st0" d="M202.2,276.8c-0.2,0.3,0.1,0.7,0.5,0.9c0.4,0.2,0.9,0.2,1,0c0.2-0.3-0.1-0.7-0.5-0.9
		C202.8,276.5,202.3,276.5,202.2,276.8z"/>
	<path class="st1" d="M200.5,268.1"/>
	<path class="st1" d="M200.2,270.2"/>
	
		<ellipse transform="matrix(-0.8605 -0.5094 0.5094 -0.8605 235.3046 600.0444)" class="st0" cx="199.8" cy="267.8" rx="1.5" ry="2.7"/>
	<path class="st0" d="M208.6,270.7c-0.9-0.6-1.9-0.8-2.2-0.4c-0.3,0.4,0.2,1.3,1.2,2c0.9,0.7,1.9,0.8,2.2,0.4
		C210.1,272.2,209.5,271.3,208.6,270.7z"/>
	<path class="st0" d="M203.2,256.6c-0.8,0.7-1.1,1.7-0.7,2.2c0.4,0.5,1.4,0.3,2.2-0.4c0.8-0.7,1.1-1.7,0.7-2.2
		C205,255.7,204,255.9,203.2,256.6z"/>
	<path class="st1" d="M346.6,231.9c0,0-21.4,14.4-28.7,18.4c-9,5-28.7,18.4-28.7,18.4s-20-47.3,16.4-57.3
		C330.3,204.5,346.6,231.9,346.6,231.9z"/>
	<path class="st0" d="M310.2,222.2c0-0.6-0.8-1.1-1.9-1.1c-1,0-1.9,0.5-1.9,1.1c0,0.6,0.8,1.1,1.9,1.1
		C309.3,223.3,310.2,222.8,310.2,222.2z"/>
	<path class="st1" d="M322.4,235.8"/>
	<path class="st1" d="M320.8,231.8"/>
	<ellipse class="st0" cx="324" cy="235.5" rx="3.2" ry="5.4"/>
	<path class="st0" d="M305.1,239.7c2.4,0.2,4.4-0.5,4.5-1.6c0.1-1-1.8-2-4.2-2.2c-2.4-0.2-4.4,0.5-4.5,1.6
		C300.8,238.5,302.7,239.5,305.1,239.7z"/>
	<path class="st0" d="M329.8,258.8c0.7-2.1,0.2-4.2-1.1-4.6c-1.3-0.4-2.9,0.9-3.6,3c-0.7,2.1-0.2,4.2,1.1,4.6
		C327.5,262.2,329.1,260.9,329.8,258.8z"/>
	<path class="st1" d="M480.5,226.4c-1.6,2.5-6.5,3.6-6.5,3.6l1.6,7.2c0,0-2.4,1.9-3.3,2.1c-1.1,0.2-4.3-1-4.3-1l-1-7.2
		c0,0-4.2-0.1-6.2-1.9c-1.4-1.3-3.7-11.1,9.3-13.3C483.4,213.8,481.7,224.4,480.5,226.4z"/>
	<path class="st2" d="M222.4,242.6c0,3-1.5,5.4-3.3,5.4c-1.8,0-3.3-2.4-3.3-5.4c0-3,1.5-5.4,3.3-5.4
		C220.9,237.2,222.4,239.6,222.4,242.6z"/>
</g>
</svg>
