<?xml version="1.0" encoding="utf-8"?>
<!-- Generator: Adobe Illustrator 19.0.1, SVG Export Plug-In . SVG Version: 6.00 Build 0)  -->
<svg version="1.1" id="Слой_1" xmlns="http://www.w3.org/2000/svg" xmlns:xlink="http://www.w3.org/1999/xlink" x="0px" y="0px"
	 viewBox="0 0 640 480" style="enable-background:new 0 0 640 480;" xml:space="preserve">
<style type="text/css">
	.st0{fill:#1D1D1B;}
	.st1{fill:#FFFFFF;}
	.st2{fill:#1D1D1B;stroke:#FFFFFF;stroke-miterlimit:10;}
</style>
<path class="st0" d="M503.2,145.7c27.9-4.9,81.9,4.9,81.9,4.9s-64.4,26.9-90.7,33.6c-33.9,8.7-70.3-2.3-70.3-2.3
	S479.2,150,503.2,145.7z"/>
<path class="st0" d="M469,109.5c22.9-16.6,75.8-31.4,75.8-31.4s-46.1,52.4-66.8,70c-26.7,22.7-64.2,28.7-64.2,28.7
	S449.3,123.9,469,109.5z"/>
<g>
	<path class="st0" d="M144.4,179.7c0,0-49.8,11.4-55.7,18.8c-10.8,13.7,0,172.2,0,172.2s57.4,36.8,222.3,36.8
		c134.9,0,222.3-30.8,222.3-30.8s11-161,0-179.9c-6.1-10.5-45.4-17.1-45.4-17.1"/>
	<path class="st1" d="M528.9,200.7c0,14.9-96.4,27-215.4,27s-215.4-12.1-215.4-27c0-14.9,96.4-27,215.4-27S528.9,185.8,528.9,200.7z
		"/>
	<path class="st2" d="M318.2,94.5c0,10.6-13.8,19.3-30.8,19.3c-17,0-30.8-8.6-30.8-19.3c0-10.6,13.8-19.3,30.8-19.3
		C304.4,75.2,318.2,83.8,318.2,94.5z"/>
	<path class="st2" d="M372.7,103.9c0,10.6-13.8,19.3-30.8,19.3c-17,0-30.8-8.6-30.8-19.3c0-10.6,13.8-19.3,30.8-19.3
		C358.9,84.6,372.7,93.2,372.7,103.9z"/>
	<path class="st2" d="M424.1,118.4c0,10.6-13.8,19.3-30.8,19.3c-17,0-30.8-8.6-30.8-19.3c0-10.6,13.8-19.3,30.8-19.3
		C410.3,99.2,424.1,107.8,424.1,118.4z"/>
	<path class="st2" d="M403.5,133c0,10.6-13.8,19.3-30.8,19.3c-17,0-30.8-8.6-30.8-19.3c0-10.6,13.8-19.3,30.8-19.3
		C389.7,113.7,403.5,122.4,403.5,133z"/>
	<path class="st2" d="M454.9,137.7c0,10.6-13.8,19.3-30.8,19.3c-17,0-30.8-8.6-30.8-19.3c0-10.6,13.8-19.3,30.8-19.3
		C441.1,118.4,454.9,127.1,454.9,137.7z"/>
	<path class="st2" d="M496,166c0,10.6-13.8,19.3-30.8,19.3c-17,0-30.8-8.6-30.8-19.3c0-10.6,13.8-19.3,30.8-19.3
		C482.2,146.7,496,155.3,496,166z"/>
	<path class="st2" d="M341.8,123.2c0,10.6-13.8,19.3-30.8,19.3c-17,0-30.8-8.6-30.8-19.3c0-10.6,13.8-19.3,30.8-19.3
		C328,103.9,341.8,112.5,341.8,123.2z"/>
	<path class="st2" d="M263.4,113.7c0,10.6-13.8,19.3-30.8,19.3c-17,0-30.8-8.6-30.8-19.3c0-10.6,13.8-19.3,30.8-19.3
		C249.6,94.5,263.4,103.1,263.4,113.7z"/>
	<path class="st2" d="M294.3,118.4c0,10.6-13.8,19.3-30.8,19.3c-17,0-30.8-8.6-30.8-19.3c0-10.6,13.8-19.3,30.8-19.3
		C280.5,99.2,294.3,107.8,294.3,118.4z"/>
	<path class="st2" d="M232.6,133c0,10.6-13.8,19.3-30.8,19.3c-17,0-30.8-8.6-30.8-19.3c0-10.6,13.8-19.3,30.8-19.3
		C218.8,113.7,232.6,122.4,232.6,133z"/>
	<path class="st2" d="M272.5,146.7c0,10.6-13.8,19.3-30.8,19.3c-17,0-30.8-8.6-30.8-19.3c0-10.6,13.8-19.3,30.8-19.3
		C258.7,127.4,272.5,136.1,272.5,146.7z"/>
	<path class="st2" d="M318.2,146.7c0,10.6-13.8,19.3-30.8,19.3c-17,0-30.8-8.6-30.8-19.3c0-10.6,13.8-19.3,30.8-19.3
		C304.4,127.4,318.2,136.1,318.2,146.7z"/>
	<path class="st2" d="M372.7,146.7c0,10.6-13.8,19.3-30.8,19.3c-17,0-30.8-8.6-30.8-19.3c0-10.6,13.8-19.3,30.8-19.3
		C358.9,127.4,372.7,136.1,372.7,146.7z"/>
	<path class="st2" d="M413.8,157c0,10.6-13.8,19.3-30.8,19.3c-17,0-30.8-8.6-30.8-19.3c0-10.6,13.8-19.3,30.8-19.3
		C400,137.7,413.8,146.3,413.8,157z"/>
	<path class="st2" d="M448.9,173.7c0,10.6-13.8,19.3-30.8,19.3c-17,0-30.8-8.6-30.8-19.3c0-10.6,13.8-19.3,30.8-19.3
		C435.1,154.4,448.9,163,448.9,173.7z"/>
	<path class="st2" d="M400.1,185.3c0,10.6-13.8,19.3-30.8,19.3c-17,0-30.8-8.6-30.8-19.3c0-10.6,13.8-19.3,30.8-19.3
		C386.3,166,400.1,174.6,400.1,185.3z"/>
	<path class="st2" d="M349.1,171.6c0,10.6-13.8,19.3-30.8,19.3c-17,0-30.8-8.6-30.8-19.3c0-10.6,13.8-19.3,30.8-19.3
		C335.3,152.3,349.1,160.9,349.1,171.6z"/>
	<path class="st2" d="M294.3,176.3c0,10.6-13.8,19.3-30.8,19.3c-17,0-30.8-8.6-30.8-19.3c0-10.6,13.8-19.3,30.8-19.3
		C280.5,157,294.3,165.6,294.3,176.3z"/>
	<path class="st2" d="M192,166c0,10.6-13.8,19.3-30.8,19.3c-17,0-30.8-8.6-30.8-19.3c0-10.6,13.8-19.3,30.8-19.3
		C178.2,146.7,192,155.3,192,166z"/>
	<path class="st2" d="M238.2,166c0,10.6-13.8,19.3-30.8,19.3c-17,0-30.8-8.6-30.8-19.3c0-10.6,13.8-19.3,30.8-19.3
		C224.4,146.7,238.2,155.3,238.2,166z"/>
	<path class="st2" d="M192,193c0,10.6-13.8,19.3-30.8,19.3c-17,0-30.8-8.6-30.8-19.3c0-10.6,13.8-19.3,30.8-19.3
		C178.2,173.7,192,182.3,192,193z"/>
	<path class="st2" d="M232.6,195.5c0,10.6-13.8,19.3-30.8,19.3c-17,0-30.8-8.6-30.8-19.3c0-10.6,13.8-19.3,30.8-19.3
		C218.8,176.3,232.6,184.9,232.6,195.5z"/>
	<path class="st2" d="M280.2,204.5c0,10.6-13.8,19.3-30.8,19.3c-17,0-30.8-8.6-30.8-19.3c0-10.6,13.8-19.3,30.8-19.3
		C266.4,185.3,280.2,193.9,280.2,204.5z"/>
	<path class="st2" d="M330.7,200.7c0,10.6-13.8,19.3-30.8,19.3c-17,0-30.8-8.6-30.8-19.3c0-10.6,13.8-19.3,30.8-19.3
		C316.9,181.4,330.7,190,330.7,200.7z"/>
	<path class="st2" d="M379.9,204.5c0,10.6-13.8,19.3-30.8,19.3c-17,0-30.8-8.6-30.8-19.3c0-10.6,13.8-19.3,30.8-19.3
		C366.1,185.3,379.9,193.9,379.9,204.5z"/>
	<path class="st2" d="M485.8,190.8c0,10.6-13.8,19.3-30.8,19.3c-17,0-30.8-8.6-30.8-19.3c0-10.6,13.8-19.3,30.8-19.3
		C471.9,171.6,485.8,180.2,485.8,190.8z"/>
	<path class="st2" d="M441.6,199.4c0,10.6-13.8,19.3-30.8,19.3c-17,0-30.8-8.6-30.8-19.3c0-10.6,13.8-19.3,30.8-19.3
		C427.8,180.1,441.6,188.7,441.6,199.4z"/>
</g>
<g>
	<path class="st1" d="M98.1,227.6c0,0,1,2.8,2.9,7.6c1.9,4.8,4.7,11.7,8.4,19.9c3.6,8.1,8.1,17.5,13.5,27.3
		c5.3,9.8,11.5,19.9,18.7,29.4c7.1,9.6,14.3,19,21.3,27.7c7,8.7,13.6,16.7,19.4,23.5c5.8,6.8,10.6,12.4,14.1,16.3
		c3.5,3.9,5.4,6.1,5.4,6.1s-2-2.2-5.5-6.1c-3.5-3.9-8.4-9.4-14.2-16.2c-5.8-6.8-12.5-14.8-19.5-23.4c-7-8.7-14.3-18-21.4-27.6
		c-7.1-9.5-13.3-19.7-18.6-29.5c-5.3-9.8-9.8-19.2-13.4-27.4c-3.6-8.2-6.3-15.1-8.2-19.9C99.1,230.5,98.1,227.6,98.1,227.6z"/>
</g>
<g>
	<path class="st1" d="M156,229.2c0,0,1.1,3,3.1,8.1c2,5.1,5.1,12.4,9,21c3.9,8.6,8.8,18.5,14.5,28.8c5.7,10.3,12.4,21,20.1,31
		c7.6,10.1,15.4,19.9,22.9,29.1c7.5,9.1,14.6,17.5,20.8,24.7c6.2,7.1,11.4,13,15.1,17.1c3.7,4.1,5.8,6.4,5.8,6.4s-2.1-2.3-5.9-6.4
		c-3.7-4.1-9-9.9-15.2-17c-6.2-7.1-13.4-15.5-20.9-24.6c-7.5-9.1-15.4-19-23-29c-7.7-10-14.3-20.8-20.1-31.1
		c-5.7-10.3-10.5-20.3-14.4-28.9c-3.9-8.6-6.8-15.9-8.8-21.1C157,232.2,156,229.2,156,229.2z"/>
</g>
<g>
	<path class="st1" d="M216.8,233.9c0,0,1.1,2.9,3.1,7.9c2.1,5,5.1,12.1,9.1,20.5c3.9,8.4,8.8,18.1,14.6,28.2
		c5.8,10.1,12.5,20.5,20.2,30.2c7.6,9.8,15.4,19.4,22.9,28.3c7.5,8.9,14.6,17.1,20.8,24c6.2,6.9,11.4,12.7,15,16.7
		c3.7,4,5.8,6.2,5.8,6.2s-2.1-2.2-5.9-6.2c-3.7-4-9-9.6-15.2-16.5c-6.2-6.9-13.3-15.1-20.8-23.9c-7.5-8.9-15.4-18.4-23-28.2
		c-7.7-9.7-14.4-20.2-20.1-30.3c-5.7-10.1-10.6-19.8-14.5-28.2c-3.9-8.4-6.9-15.6-8.9-20.6C217.8,236.8,216.8,233.9,216.8,233.9z"/>
</g>
<g>
	<path class="st1" d="M280.2,238.2c0,0,1.1,2.8,3.2,7.5c2.1,4.8,5.2,11.5,9.2,19.5c4,8,8.9,17.2,14.7,26.7c2.9,4.8,6.1,9.6,9.4,14.4
		c3.4,4.8,7,9.5,10.8,14c7.6,9.2,15.3,18.2,22.8,26.5c7.4,8.3,14.5,15.9,20.6,22.4c6.1,6.5,11.3,11.8,14.9,15.6
		c3.7,3.7,5.8,5.8,5.8,5.8s-2.1-2.1-5.8-5.8c-3.7-3.7-8.9-9-15.1-15.4c-6.2-6.5-13.3-14.1-20.7-22.4c-7.5-8.3-15.3-17.3-22.9-26.4
		c-3.8-4.6-7.4-9.3-10.8-14.1c-3.4-4.8-6.5-9.6-9.4-14.4c-5.8-9.5-10.7-18.7-14.6-26.7c-4-8-7-14.8-9-19.6
		C281.2,241,280.2,238.2,280.2,238.2z"/>
</g>
<g>
	<path class="st1" d="M344.4,236.1c0,0,1.1,2.7,3.2,7.3c2.1,4.6,5.2,11.2,9.2,19c4,7.7,8.9,16.7,14.8,25.9c2.9,4.6,6.1,9.3,9.5,13.9
		c3.4,4.6,7,9.2,10.8,13.5c3.8,4.4,7.6,8.8,11.4,13.1c3.8,4.3,7.6,8.4,11.3,12.4c7.4,8,14.5,15.4,20.6,21.6
		c6.1,6.2,11.2,11.4,14.9,15c3.6,3.6,5.7,5.6,5.7,5.6s-2.1-2-5.8-5.5c-3.7-3.5-8.9-8.6-15-14.8c-6.1-6.2-13.2-13.5-20.6-21.5
		c-3.7-4-7.5-8.1-11.4-12.4c-3.8-4.3-7.7-8.6-11.5-13c-3.8-4.4-7.5-9-10.8-13.6c-3.4-4.6-6.5-9.3-9.4-13.9
		c-5.8-9.2-10.7-18.2-14.7-25.9c-4-7.8-7-14.4-9.1-19.1C345.5,238.8,344.4,236.1,344.4,236.1z"/>
</g>
<g>
	<path class="st1" d="M413.8,233.5c0,0,1.1,2.5,3.3,6.8c2.1,4.3,5.3,10.4,9.4,17.6c4.1,7.2,9.1,15.4,15,23.8c3,4.2,6.1,8.5,9.6,12.7
		c3.4,4.2,7.1,8.3,10.9,12.3c1.9,2,3.8,4,5.7,6c1.9,2,3.8,3.9,5.7,5.9c3.8,3.9,7.6,7.6,11.2,11.3c7.4,7.2,14.3,13.9,20.4,19.5
		c6,5.6,11.1,10.3,14.7,13.5c3.6,3.2,5.6,5,5.6,5s-2.1-1.8-5.7-5c-3.6-3.2-8.8-7.8-14.8-13.4c-6.1-5.6-13.1-12.2-20.4-19.4
		c-3.7-3.6-7.5-7.4-11.3-11.2c-1.9-1.9-3.8-3.9-5.7-5.9c-1.9-2-3.8-4-5.7-6c-3.8-4-7.5-8.1-10.9-12.3c-3.4-4.2-6.6-8.5-9.5-12.8
		c-5.9-8.5-10.9-16.7-14.9-23.9c-4.1-7.2-7.1-13.4-9.2-17.7C414.9,236.1,413.8,233.5,413.8,233.5z"/>
</g>
<g>
	<path class="st1" d="M525.2,249c0,0-1.1,2.5-3.2,6.9c-2.1,4.3-5.2,10.5-9.2,17.7c-4.1,7.2-9.1,15.4-14.9,23.9
		c-2.9,4.2-6.1,8.5-9.5,12.8c-3.4,4.2-7,8.4-10.9,12.3c-1.9,2-3.8,4-5.7,6c-1.9,2-3.8,3.9-5.7,5.9c-3.8,3.9-7.6,7.6-11.3,11.2
		c-7.4,7.2-14.4,13.8-20.4,19.4c-6.1,5.6-11.2,10.2-14.8,13.4c-3.6,3.2-5.7,5-5.7,5s2.1-1.8,5.6-5c3.6-3.2,8.6-7.9,14.7-13.5
		c6-5.6,13-12.3,20.4-19.5c3.7-3.6,7.4-7.4,11.2-11.3c1.9-1.9,3.8-3.9,5.7-5.9c1.9-2,3.8-4,5.7-6c3.8-4,7.5-8.1,10.9-12.3
		c3.4-4.2,6.6-8.5,9.6-12.7c5.9-8.4,10.9-16.7,15-23.8c4.1-7.2,7.3-13.3,9.4-17.6C524.1,251.5,525.2,249,525.2,249z"/>
</g>
<g>
	<path class="st1" d="M448.9,234.7c0,0-1.6,3.1-4.6,8.3c-3,5.2-7.5,12.6-13.3,21.2c-5.8,8.6-12.9,18.4-21.3,28.3
		c-4.2,5-8.6,10-13.4,14.8c-4.7,4.9-9.8,9.6-15,14.1c-2.6,2.3-5.2,4.6-7.8,6.8c-2.6,2.3-5.2,4.5-7.8,6.7c-2.6,2.2-5.2,4.4-7.7,6.5
		c-2.6,2.1-5.1,4.2-7.6,6.3c-5,4.1-9.9,8-14.5,11.7c-4.6,3.7-9.1,7.2-13.2,10.3c-8.2,6.4-15.1,11.5-19.9,15.1
		c-4.9,3.6-7.7,5.6-7.7,5.6s11.1-8.2,27.4-21c4.1-3.2,8.5-6.7,13.1-10.4c4.6-3.7,9.5-7.6,14.5-11.8c2.5-2.1,5-4.2,7.6-6.3
		c2.6-2.1,5.1-4.3,7.7-6.5c2.6-2.2,5.2-4.4,7.8-6.7c2.6-2.3,5.2-4.5,7.8-6.8c2.6-2.3,5.2-4.6,7.7-6.9c2.5-2.3,5-4.7,7.4-7.1
		c4.8-4.8,9.2-9.8,13.4-14.8c8.4-9.9,15.5-19.7,21.3-28.2C442.5,246.9,448.9,234.7,448.9,234.7z"/>
</g>
<g>
	<path class="st1" d="M363.6,239.8c0,0-1.9,3.1-5.6,8.2c-3.7,5.2-9,12.5-16,20.8c-6.9,8.4-15.4,17.8-25.2,27.2
		c-4.9,4.7-10.1,9.4-15.6,13.9c-2.7,2.3-5.6,4.5-8.5,6.7c-2.9,2.1-5.8,4.3-8.7,6.4c-5.9,4.2-11.8,8.4-17.6,12.5
		c-5.9,4.1-11.6,8-17.3,11.8c-5.6,3.8-11.1,7.4-16.3,10.8c-5.2,3.4-10.2,6.6-14.7,9.5c-4.6,2.9-8.8,5.6-12.5,7.9
		c-3.8,2.3-7,4.3-9.7,6c-5.4,3.3-8.5,5.1-8.5,5.1s12.4-7.5,30.7-19.2c4.6-2.9,9.5-6.1,14.7-9.5c5.2-3.4,10.7-7,16.3-10.8
		c5.6-3.8,11.4-7.8,17.2-11.8c5.8-4.1,11.7-8.3,17.6-12.5c2.9-2.1,5.8-4.3,8.7-6.4c2.9-2.2,5.7-4.4,8.5-6.6
		c5.5-4.5,10.7-9.2,15.6-13.9c9.8-9.4,18.3-18.8,25.3-27.1c6.9-8.3,12.4-15.6,16.1-20.7C361.6,242.9,363.6,239.8,363.6,239.8z"/>
</g>
<g>
	<path class="st1" d="M299,240.1c0,0-2,2.9-5.7,7.7c-3.8,4.8-9.3,11.6-16.3,19.2c-7.1,7.7-15.7,16.3-25.6,24.9
		c-4.9,4.3-10.2,8.5-15.7,12.6c-5.5,4.1-11.4,7.9-17.2,11.7c-2.9,1.9-5.9,3.8-8.8,5.7c-2.9,1.9-5.8,3.7-8.7,5.5
		c-5.8,3.6-11.5,7.2-17.1,10.6c-5.6,3.4-11,6.6-16.2,9.7c-5.2,3-10,5.9-14.6,8.5c-4.5,2.6-8.7,5-12.4,7c-3.7,2.1-6.9,3.9-9.6,5.3
		c-5.3,2.9-8.4,4.6-8.4,4.6s12.2-6.7,30.3-17.2c4.5-2.6,9.4-5.5,14.5-8.5c5.1-3.1,10.6-6.3,16.1-9.7c5.6-3.4,11.3-7,17.1-10.6
		c2.9-1.8,5.8-3.7,8.7-5.6c2.9-1.9,5.8-3.8,8.7-5.7c5.8-3.9,11.7-7.6,17.2-11.7c5.5-4.1,10.8-8.3,15.7-12.5
		c9.9-8.5,18.6-17.1,25.7-24.8c7.1-7.7,12.7-14.3,16.5-19.1C297,242.9,299,240.1,299,240.1z"/>
</g>
<g>
	<path class="st1" d="M244.2,229.2c0,0-1.6,2.1-4.5,5.6c-1.5,1.7-3.3,3.9-5.5,6.2c-1.1,1.2-2.2,2.4-3.5,3.7c-1.2,1.3-2.6,2.6-4,4
		c-2.8,2.8-5.9,5.7-9.2,8.7c-1.7,1.5-3.4,3-5.2,4.6c-1.8,1.5-3.7,3-5.6,4.6c-2,1.5-3.9,3-6,4.5c-2.1,1.5-4.1,3-6.3,4.4
		c-2.2,1.4-4.3,2.9-6.6,4.2c-2.2,1.4-4.5,2.7-6.7,4.1c-2.3,1.3-4.5,2.7-6.7,4c-2.3,1.3-4.5,2.6-6.7,3.9c-4.5,2.6-8.9,5.1-13.2,7.5
		c-8.6,4.8-16.6,9.2-23.6,12.8c-3.5,1.9-6.7,3.5-9.5,5c-2.8,1.5-5.3,2.7-7.4,3.8c-4.1,2.1-6.4,3.2-6.4,3.2s9.4-4.7,23.2-12.2
		c6.9-3.7,15-8.1,23.5-12.9c4.3-2.4,8.7-4.9,13.1-7.5c2.2-1.3,4.5-2.6,6.7-3.9c2.2-1.3,4.5-2.7,6.7-4c2.2-1.4,4.5-2.7,6.7-4.1
		c2.2-1.4,4.4-2.8,6.6-4.2c2.1-1.4,4.2-2.9,6.3-4.4c2-1.5,4-3,6-4.5c1.9-1.5,3.8-3,5.6-4.6c1.8-1.5,3.6-3,5.2-4.5
		c3.4-3,6.5-5.9,9.2-8.7c1.4-1.4,2.7-2.7,4-4c1.3-1.3,2.4-2.5,3.5-3.7c2.2-2.3,4-4.4,5.5-6.1C242.6,231.3,244.2,229.2,244.2,229.2z"
		/>
</g>
</svg>
