<?xml version="1.0" encoding="utf-8"?>
<!-- Generator: Adobe Illustrator 19.0.1, SVG Export Plug-In . SVG Version: 6.00 Build 0)  -->
<svg version="1.1" id="Слой_1" xmlns="http://www.w3.org/2000/svg" xmlns:xlink="http://www.w3.org/1999/xlink" x="0px" y="0px"
	 viewBox="0 0 640 480" style="enable-background:new 0 0 640 480;" xml:space="preserve">
<style type="text/css">
	.st0{fill:#1D1D1B;}
	.st1{fill:none;stroke:#1D1D1B;stroke-width:3;stroke-miterlimit:10;}
</style>
<g>
	<path class="st0" d="M487.2,309.3c0,66.2-90.1,119.8-201.2,119.8c-111.1,0-201.2-53.7-201.2-119.8c0-66.2,90.1-119.9,201.2-119.9
		C397.1,189.5,487.2,243.1,487.2,309.3z"/>
	<path class="st0" d="M379.2,228.5c0,38.3-42.2,69.4-94.3,69.4c-52.1,0-94.3-31.1-94.3-69.4c0-38.3,42.2-69.4,94.3-69.4
		C336.9,159.1,379.2,190.2,379.2,228.5z"/>
	<path class="st0" d="M297,120.8c0,6-6,10.9-13.3,10.9c-7.4,0-13.3-4.9-13.3-10.9c0-6,6-10.9,13.3-10.9
		C291,109.9,297,114.8,297,120.8z"/>
	<path class="st1" d="M163.1,235.3c-4.6-81-3.1-81.5,0-94.7c9.2-39,51-105.8,120.6-105.8c71.8,0,114.4,62.2,123.9,100.2
		c7.1,28.5-1.8,105.4-1.8,105.4"/>
	<rect x="276.6" y="126.6" class="st0" width="13.6" height="47.4"/>
	<path class="st0" d="M456.1,258.3c0,0,23.3-34.8,31.1-44.5c6.8-8.6,27.4-31,27.4-31s17.1-0.8,22.2,0c5,0.8,19.6,1.9,18.5,6.7
		c-0.9,3.9-20.6,18.2-24.4,24.3c-11.2,18-18.6,66.4-28.1,84.1c-7.1,13.2-31.8,44-31.8,44"/>
</g>
</svg>
