<?xml version="1.0" encoding="utf-8"?>
<!-- Generator: Adobe Illustrator 19.0.1, SVG Export Plug-In . SVG Version: 6.00 Build 0)  -->
<svg version="1.1" id="Слой_1" xmlns="http://www.w3.org/2000/svg" xmlns:xlink="http://www.w3.org/1999/xlink" x="0px" y="0px"
	 viewBox="0 0 640 480" style="enable-background:new 0 0 640 480;" xml:space="preserve">
<g>
	<g>
		<g>
			<path d="M88.4,201.4c-0.1,12.6,0.8,25.3,2,37.9c2.4,24.2,6.6,48.8,15.7,71.5c4.2,10.6,9.5,20.9,16.9,29.7
				c8.1,9.6,18.3,17.7,28.6,24.8c22.7,15.6,48.3,26.9,74.2,36.1c22.6,8,45.8,14.4,69.3,19c17.8,3.4,35.5,4.5,53.6,4.7
				c27.9,0.3,55.9-1.3,83.4-5.9c24.7-4.1,51.1-10.6,71.7-25.6c20.6-15.1,31.5-40.4,38-64.4c5.3-19.3,8.1-39.5,8.8-59.6
				c0-1.2,0.1-2.3,0.1-3.5c0-3.2-5-3.2-5,0c0,14.2-1.8,28.6-4.4,42.6c-4.7,25.4-12.9,53.1-30.9,72.4c-15.9,17.2-40.6,24.9-62.8,29.9
				c-26.9,6.1-54.7,8.4-82.2,9c-19.3,0.4-39.1,0.5-58.3-2.5c-20.6-3.3-40.9-8.4-60.8-14.5c-25.8-7.9-51.3-17.8-74.8-31.1
				c-21.3-12-42.6-27.1-54.5-49c-11.6-21.3-16.8-46-20.1-69.8c-2.2-16.2-3.5-32.6-3.6-48.9c0-0.9,0-1.8,0-2.6
				C93.4,198.2,88.4,198.2,88.4,201.4L88.4,201.4z"/>
		</g>
	</g>
	<path d="M461.3,178.9c0,0-37.9,8.8-72.4,30.2c-27.6,17.1-53,56.9-53,56.9L247,229.1c0,0,27.7-39.6,41-52.8
		c13.5-13.4,66.2-53.4,66.2-53.4s-39.6,11.5-78.7,42.7c-32.8,26.2-49.9,55.1-49.9,55.1L162,201.4c0,0,36.8-44.8,44.9-54.2
		c34-39.1,73.2-67.3,73.2-67.3s-61,30.7-80.3,47.6c-15.9,14-55.6,71-55.6,71s-58.6-11-62.9-22.2c-12.6-32.6,44.4-83.1,102.5-107.3
		c55.2-23,172.2-12.2,262.6,33.9c31.9,16.3,126.6,77.1,112.4,124.4c-8,26.6-106.7,68.9-147.9,67.9c-15.7-0.4-58.2-20.9-58.2-20.9
		c6.4-8.6,16.6-25.2,43-47.6C413.8,211.7,461.3,178.9,461.3,178.9z"/>
</g>
</svg>
