<?xml version="1.0" encoding="utf-8"?>
<!-- Generator: Adobe Illustrator 19.0.1, SVG Export Plug-In . SVG Version: 6.00 Build 0)  -->
<svg version="1.1" id="Слой_1" xmlns="http://www.w3.org/2000/svg" xmlns:xlink="http://www.w3.org/1999/xlink" x="0px" y="0px"
	 viewBox="0 0 640 480" style="enable-background:new 0 0 640 480;" xml:space="preserve">
<style type="text/css">
	.st0{fill:#1D1D1B;stroke:#FFFFFF;stroke-width:2;stroke-miterlimit:10;}
	.st1{fill:#FFFFFF;}
	.st2{fill:#FFFFFF;stroke:#1D1D1B;stroke-miterlimit:10;}
</style>
<path class="st0" d="M267,407.4c-6.6-11.1,30.1-203.6,64-248.8C347,137.4,468,64.9,482.2,73c20.1,11.6,0.7,147.1-16.7,173
	C428.8,300.7,270.4,413,267,407.4z"/>
<path class="st1" d="M459.9,243.7c-9.8,14.1-44.7,6.9-78-16.1c-33.3-23-52.3-53.2-42.5-67.3c9.8-14.1,44.7-6.9,78,16.1
	C450.6,199.4,469.7,229.6,459.9,243.7z"/>
<path class="st2" d="M417.2,216c0,0,12.4-21.7,15-29.6c2.7-8.2,5.8-34.1,5.8-34.1s-3.7-5.7-5.7-6.7c-2.1-1.1-8.3-0.3-8.3-0.3
	s-8.3,20.7-13.2,27.4c-5.1,7-23.9,20.3-23.9,20.3s5.2,13.4,12.5,18.2C407.4,216.4,417.2,216,417.2,216z"/>
<polygon class="st1" points="428.5,139.4 423.8,109.3 430.8,117.7 443.9,108 "/>
<polygon class="st1" points="435.2,141.4 449.4,116.9 451.1,128.6 460.3,131.1 "/>
<path class="st0" d="M339.6,419.8c-12.9-0.2-157.4-132.5-178.1-185.1c-9.7-24.7-7.8-165.8,6.6-173.5c20.4-11,125.5,76.6,138.5,105.1
	C333.8,226.2,346.2,419.9,339.6,419.8z"/>
<path class="st1" d="M301.6,169.7c6.9,15.7-17.6,41.7-54.7,57.9c-37.1,16.2-72.7,16.6-79.6,0.8c-6.9-15.7,17.6-41.7,54.7-57.9
	C259.1,154.4,294.7,154,301.6,169.7z"/>
<path class="st2" d="M255.6,191.5c0,0-12-22-17.3-28.3c-5.6-6.6-26-22.8-26-22.8s-6.7,0.2-8.7,1.3c-2,1.2-4.6,6.9-4.6,6.9
	s13.2,18,16.4,25.7c3.3,8,4.7,31,4.7,31s14.2,2.6,22-1.1C250.8,200.1,255.6,191.5,255.6,191.5z"/>
<polygon class="st1" points="201.6,137 188.2,112.1 199.1,116.8 206,110.2 "/>
</svg>
