<?xml version="1.0" encoding="utf-8"?>
<!-- Generator: Adobe Illustrator 19.0.1, SVG Export Plug-In . SVG Version: 6.00 Build 0)  -->
<svg version="1.1" id="Слой_1" xmlns="http://www.w3.org/2000/svg" xmlns:xlink="http://www.w3.org/1999/xlink" x="0px" y="0px"
	 viewBox="0 0 640 480" style="enable-background:new 0 0 640 480;" xml:space="preserve">
<style type="text/css">
	.st0{fill:#1D1D1B;stroke:#FFFFFF;stroke-width:3;stroke-miterlimit:10;}
	.st1{fill:#1D1D1B;}
	.st2{fill:#FFFFFF;}
</style>
<path class="st0" d="M311.5,238.6c0,0,69-72.6,87.3-104.2c19.9-34.4,52.6-91.8,52.6-91.8s6.7,52.7-12,90
	C416.9,177.3,311.5,238.6,311.5,238.6z"/>
<path class="st0" d="M308.8,199.3c0,0,89.5-36.6,117.5-55.6c30.4-20.7,80.7-55.3,80.7-55.3s-11.6,41.4-41.8,64.6
	C428.8,180.7,308.8,199.3,308.8,199.3z"/>
<path class="st0" d="M324.6,267.6c0,0,37.4-89.2,43.7-122.4c6.9-36.1,17.9-96.2,17.9-96.2s21.1,37.4,16.1,75.2
	C396.3,169.6,324.6,267.6,324.6,267.6z"/>
<g>
	<g>
		<path class="st1" d="M367.4,150.3c0,0,0.1,1.2,0.3,3.4c0.2,2.2,0.5,5.5,0.7,9.8c0.2,4.2,0.5,9.3,0.8,15.2
			c0.2,5.9,0.5,12.5,0.6,19.7c0.1,7.2,0,15.1-0.2,23.4c-0.3,8.3-0.8,17.1-1.8,26.1c-0.5,4.5-1.2,9.2-2.2,13.8
			c-1,4.7-2.2,9.4-4.4,14.1c-0.3,0.6-0.6,1.2-0.9,1.8l-0.3,0.4l-0.1,0.2l-0.1,0.1c0,0.1,0,0-0.1,0.2l-0.5,0.7c-0.3,0.5-0.6,1-1,1.5
			l-1.2,1.6c-1.6,2.1-3.3,4-5.1,5.7c-3.7,3.5-7.7,6.5-11.9,9.2c-4.2,2.7-8.5,5.1-12.9,7.2c-4.4,2.1-8.9,4-13.4,5.7
			c-9,3.4-18,6.3-26.8,8.5c-8.8,2.3-17.4,4.3-25.5,5.8c-8.2,1.5-15.9,2.8-23.1,3.8c-7.2,1-13.8,1.8-19.6,2.3
			c-5.9,0.5-11,0.9-15.2,1.2c-4.2,0.3-7.5,0.4-9.8,0.5c-2.3,0.1-3.5,0.1-3.5,0.1l0-0.4c0,0,4.8-0.4,13.1-1.3
			c8.4-1,20.3-2.5,34.5-4.9c14.2-2.4,30.7-5.7,48.1-10.6c8.7-2.4,17.6-5.2,26.4-8.7c8.8-3.4,17.5-7.5,25.6-12.6
			c4-2.6,7.9-5.4,11.4-8.7c3.4-3.3,6.5-7,8.7-11.1c2-4.2,3.3-8.8,4.3-13.3c1-4.5,1.7-9,2.3-13.5c1.2-8.9,1.8-17.6,2.3-25.9
			c0.5-8.2,0.7-16.1,0.8-23.3c0.2-14.4,0.1-26.4-0.1-34.8c-0.2-8.4-0.4-13.2-0.4-13.2L367.4,150.3z"/>
	</g>
	<path class="st1" d="M342.5,213.1c6.3,38.2-29,68.5-58.5,78c-37.4,12-72-3.5-77.2-34.6c-5.2-31.1,21-66,58.5-78
		C302.8,166.5,337.4,182,342.5,213.1z"/>
	<path class="st1" d="M295,94.7c0,0,32.2-1,51.7,12.6c15.2,10.6,18.8,23.2,18.8,23.2h-33.2c0,0-9.9-13.6-13.7-17.9
		C312.6,105.9,295,94.7,295,94.7z"/>
	<path class="st1" d="M291.9,94.6c0,0,12.3,6.4,21.7,15.5c9.9,9.5,16.6,20.3,16.6,20.3l-29,1.7c0,0-15.1-13.7-20.6-17.7
		C274.5,110,254,98.8,254,98.8s15.1-3.4,19.9-4.1C283.7,93.2,291.9,94.6,291.9,94.6z"/>
	<path class="st1" d="M202.2,114.1c0,0,14.1-6.6,24.2-8.7c5.4-1.1,23.2-4.5,23.2-4.5s16.9,8.5,22.4,12.2c6.7,4.5,25,20.1,25,20.1
		s-16.1,0.3-21.4,1.3c-5.2,1-21.6,6-21.6,6s-12.8-11.5-23.3-16.1C220.3,119.9,202.2,114.1,202.2,114.1z"/>
	<path class="st1" d="M147.8,142.5c0,0,17.6-13.3,24-16.9c5.2-2.9,22.5-9,22.5-9s18.4,7.4,24,10c7.7,3.7,29.3,15.9,29.3,15.9
		s-18.5,6.5-24.4,10.1c-5.8,3.5-22.7,18.5-22.7,18.5s-19.5-13.8-26.3-17.5C167.7,150.1,147.8,142.5,147.8,142.5z"/>
	<path class="st1" d="M143.4,148.8c0,0-6.4,12.1-7.6,15.9c-3.1,9.8-3.1,20.6-3.1,20.6s16.2,6.2,21.4,9.3
		c6.6,3.9,25.4,18.3,25.4,18.3s1.7-15.5,3.4-20.1c1.6-4.3,9.2-14.6,9.2-14.6s-17.9-14.1-24.4-18C162,156.8,143.4,148.8,143.4,148.8z
		"/>
	<path class="st1" d="M131.8,189.8c0,0-2,17.2-2.5,23c-0.6,7.1-1.1,28.5-1.1,28.5s13.8,6,18.1,8.5c8.8,5.1,32,25.7,32,25.7
		s0.8-51.6,0-52.7c-0.5-0.7-21-19.3-34.5-28.8C137.8,189.9,131.8,189.8,131.8,189.8z"/>
	<path class="st1" d="M128.2,247.3c0.9-1,9.5,8.9,20.8,18c13.4,10.8,29.7,21.2,29.7,21.2v47.4c0,0-33.6-13.3-36.4-16.1
		c-8.9-9-9.1-14.1-11.4-29.1C128,269.8,126.5,249.1,128.2,247.3z"/>
</g>
<path class="st2" d="M301.6,184.7c0,0-24,42-23.2,50.1l51.8-21.9C330.2,212.8,330.9,194.5,301.6,184.7
	C296.5,183,301.6,184.7,301.6,184.7z"/>
<path class="st2" d="M330.2,224.8c0,0-53,11.1-51.5,16.8c2.1,8.2,48.2,5.7,48.2,5.7l0,0C332.1,241.4,330.2,224.8,330.2,224.8z"/>
<g>
	<path class="st2" d="M208,198.6c-17.5,31.5-5.2,141.3,4.4,156.7c31.1,50.3,176.2,14.1,217.7-28c22.4-22.8,0-147.1-12.3-165
		c-16.1-23.4-76.1-19-113.1-11.6C276.4,156.3,223.5,170.7,208,198.6z"/>
	<g>
		<g>
			<path class="st1" d="M432,200.1c0,0,0.1,1.2,0.3,3.4c0.2,2.2,0.5,5.5,0.7,9.8c0.2,4.2,0.5,9.3,0.8,15.2
				c0.2,5.9,0.5,12.5,0.6,19.7c0.1,7.2,0,15.1-0.2,23.4c-0.3,8.3-0.8,17.1-1.8,26.1c-0.5,4.5-1.2,9.2-2.2,13.8
				c-1,4.7-2.2,9.4-4.4,14.1c-0.3,0.6-0.6,1.2-0.9,1.8l-0.3,0.4l-0.1,0.2l-0.1,0.1c0,0.1,0,0-0.1,0.2l-0.5,0.7c-0.3,0.5-0.6,1-1,1.5
				l-1.2,1.6c-1.6,2.1-3.3,4-5.1,5.7c-3.7,3.5-7.7,6.5-11.9,9.2c-4.2,2.7-8.5,5.1-12.9,7.2c-4.4,2.1-8.9,4-13.4,5.7
				c-9,3.4-18,6.3-26.8,8.5c-8.8,2.3-17.4,4.3-25.5,5.8c-8.2,1.5-15.9,2.8-23.1,3.8c-7.2,1-13.8,1.8-19.6,2.3
				c-5.9,0.5-11,0.9-15.2,1.2c-4.2,0.3-7.5,0.4-9.8,0.5c-2.3,0.1-3.5,0.1-3.5,0.1l0-0.4c0,0,4.8-0.4,13.1-1.3
				c8.4-1,20.3-2.5,34.5-4.9c14.2-2.4,30.7-5.7,48.1-10.6c8.7-2.4,17.6-5.2,26.4-8.7c8.8-3.4,17.5-7.5,25.6-12.6
				c4-2.6,7.9-5.4,11.4-8.7c3.4-3.3,6.5-7,8.7-11.1c2-4.2,3.3-8.8,4.3-13.3c1-4.5,1.7-9,2.3-13.5c1.2-8.9,1.8-17.6,2.3-25.9
				c0.5-8.2,0.7-16.1,0.8-23.3c0.2-14.4,0.1-26.4-0.1-34.8c-0.2-8.4-0.4-13.2-0.4-13.2L432,200.1z"/>
		</g>
		<path class="st1" d="M407.1,262.8c6.3,38.2-29,68.5-58.5,78c-37.4,12-72-3.5-77.2-34.6c-5.2-31.1,21-66,58.5-78
			C367.4,216.3,401.9,231.8,407.1,262.8z"/>
		<path class="st1" d="M359.5,144.4c0,0,32.2-1,51.7,12.6c15.1,10.6,18.8,23.2,18.8,23.2h-33.2c0,0-9.9-13.6-13.7-17.9
			C377.1,155.7,359.5,144.4,359.5,144.4z"/>
		<path class="st1" d="M356.5,144.4c0,0,12.3,6.4,21.7,15.5c9.9,9.5,16.6,20.3,16.6,20.3l-29,1.7c0,0-15.1-13.7-20.6-17.7
			c-6.1-4.4-26.6-15.6-26.6-15.6s15.1-3.4,19.9-4.1C348.3,143,356.5,144.4,356.5,144.4z"/>
		<path class="st1" d="M266.7,163.9c0,0,14.1-6.6,24.2-8.7c5.4-1.1,23.2-4.5,23.2-4.5s16.9,8.5,22.4,12.2c6.7,4.5,25,20.1,25,20.1
			s-16.1,0.3-21.4,1.3c-5.2,1-21.6,6-21.6,6s-12.8-11.5-23.3-16.1C284.9,169.7,266.7,163.9,266.7,163.9z"/>
		<path class="st1" d="M212.4,192.2c0,0,17.6-13.3,24-16.9c5.2-2.9,22.5-9,22.5-9s18.4,7.4,24,10c7.7,3.7,29.3,15.9,29.3,15.9
			s-18.5,6.5-24.4,10.1c-5.8,3.5-22.7,18.5-22.7,18.5s-19.5-13.8-26.3-17.5C232.3,199.9,212.4,192.2,212.4,192.2z"/>
		<path class="st1" d="M208,198.6c0,0-6.4,12.1-7.6,15.9c-3.1,9.8-3.1,20.6-3.1,20.6s16.2,6.2,21.4,9.3c6.6,3.9,25.4,18.3,25.4,18.3
			s1.7-15.5,3.4-20.1c1.6-4.3,9.2-14.6,9.2-14.6s-17.9-14.1-24.4-18C226.6,206.5,208,198.6,208,198.6z"/>
		<path class="st1" d="M196.4,239.6c0,0-2,17.2-2.5,23c-0.6,7.1-1.1,28.5-1.1,28.5s13.8,6,18.1,8.5c8.8,5.1,32,25.7,32,25.7
			s0.8-51.6,0-52.7c-0.5-0.7-21-19.3-34.5-28.8C202.4,239.6,196.4,239.6,196.4,239.6z"/>
		<path class="st1" d="M192.7,297c0.9-1,9.5,8.9,20.8,18c13.4,10.8,29.7,21.2,29.7,21.2v47.4c0,0-33.6-13.3-36.4-16.1
			c-8.9-9-9.1-14.1-11.4-29.1C192.5,319.6,191.1,298.9,192.7,297z"/>
	</g>
</g>
<path class="st2" d="M358.7,231.6c0,0-24,42-23.2,50.1l51.8-21.9C387.3,259.7,387.9,241.4,358.7,231.6
	C353.6,229.8,358.7,231.6,358.7,231.6z"/>
<path class="st2" d="M387.3,271.6c0,0-53,11.1-51.5,16.8c2.1,8.2,48.2,5.7,48.2,5.7l0,0C389.2,288.2,387.3,271.6,387.3,271.6z"/>
<g>
	<path class="st2" d="M270.6,253.3c-17.5,31.5-5.2,141.3,4.4,156.7c31.1,50.3,176.2,14.1,217.7-28c22.4-22.8,0-147.1-12.3-165
		c-16.1-23.4-76.1-19-113.1-11.6C339,211.1,286.1,225.5,270.6,253.3z"/>
	<g>
		<g>
			<path class="st1" d="M494.6,254.9c0,0,0.1,1.2,0.3,3.4c0.2,2.2,0.5,5.5,0.7,9.8c0.2,4.2,0.5,9.3,0.8,15.2
				c0.2,5.9,0.5,12.5,0.6,19.7c0.1,7.2,0,15.1-0.2,23.4c-0.3,8.3-0.8,17.1-1.8,26.1c-0.5,4.5-1.2,9.2-2.2,13.8
				c-1,4.7-2.2,9.4-4.4,14.1c-0.3,0.6-0.6,1.2-0.9,1.8l-0.3,0.4l-0.1,0.2l-0.1,0.1c0,0.1,0,0-0.1,0.2l-0.5,0.7c-0.3,0.5-0.6,1-1,1.5
				l-1.2,1.6c-1.6,2.1-3.3,4-5.1,5.7c-3.7,3.5-7.7,6.5-11.9,9.2c-4.2,2.7-8.5,5.1-12.9,7.2c-4.4,2.1-8.9,4-13.4,5.7
				c-9,3.4-18,6.3-26.8,8.5c-8.8,2.3-17.4,4.3-25.5,5.8c-8.2,1.5-15.9,2.8-23.1,3.8c-7.2,1-13.8,1.8-19.6,2.3
				c-5.9,0.5-11,0.9-15.2,1.2c-4.2,0.3-7.5,0.4-9.8,0.5c-2.3,0.1-3.5,0.1-3.5,0.1l0-0.4c0,0,4.8-0.4,13.1-1.3
				c8.4-1,20.3-2.5,34.5-4.9c14.2-2.4,30.7-5.7,48.1-10.6c8.7-2.4,17.6-5.2,26.4-8.7c8.8-3.4,17.5-7.5,25.6-12.6
				c4-2.6,7.9-5.4,11.4-8.7c3.4-3.3,6.5-7,8.7-11.1c2-4.2,3.3-8.8,4.3-13.3c1-4.5,1.7-9,2.3-13.5c1.2-8.9,1.8-17.6,2.3-25.9
				c0.5-8.2,0.7-16.1,0.8-23.3c0.2-14.4,0.1-26.4-0.1-34.8c-0.2-8.4-0.4-13.2-0.4-13.2L494.6,254.9z"/>
		</g>
		<path class="st1" d="M469.7,317.6c6.3,38.2-29,68.5-58.5,78c-37.4,12-72-3.5-77.2-34.6c-5.2-31.1,21-66,58.5-78
			C430,271.1,464.6,286.6,469.7,317.6z"/>
		<path class="st1" d="M422.2,199.2c0,0,32.2-1,51.7,12.6c15.1,10.6,18.8,23.2,18.8,23.2h-33.2c0,0-9.9-13.6-13.7-17.9
			C439.8,210.5,422.2,199.2,422.2,199.2z"/>
		<path class="st1" d="M419.1,199.2c0,0,12.3,6.4,21.7,15.5c9.9,9.5,16.6,20.3,16.6,20.3l-29,1.7c0,0-15.1-13.7-20.6-17.7
			c-6.1-4.4-26.6-15.6-26.6-15.6s15.1-3.4,19.9-4.1C410.9,197.8,419.1,199.2,419.1,199.2z"/>
		<path class="st1" d="M329.4,218.7c0,0,14.1-6.6,24.2-8.7c5.4-1.1,23.2-4.5,23.2-4.5s16.9,8.5,22.4,12.2c6.7,4.5,25,20.1,25,20.1
			s-16.1,0.3-21.4,1.3c-5.2,1-21.6,6-21.6,6s-12.8-11.5-23.3-16.1C347.5,224.5,329.4,218.7,329.4,218.7z"/>
		<path class="st1" d="M275,247c0,0,17.6-13.3,24-16.9c5.2-2.9,22.5-9,22.5-9s18.4,7.4,24,10c7.7,3.7,29.3,15.9,29.3,15.9
			s-18.5,6.5-24.4,10.1c-5.8,3.5-22.7,18.5-22.7,18.5s-19.5-13.8-26.3-17.5C294.9,254.7,275,247,275,247z"/>
		<path class="st1" d="M270.6,253.3c0,0-6.4,12.1-7.6,15.9c-3.1,9.8-3.1,20.6-3.1,20.6s16.2,6.2,21.4,9.3
			c6.6,3.9,25.4,18.3,25.4,18.3s1.7-15.5,3.4-20.1c1.6-4.3,9.2-14.6,9.2-14.6s-17.9-14.1-24.4-18
			C289.2,261.3,270.6,253.3,270.6,253.3z"/>
		<path class="st1" d="M259,294.4c0,0-2,17.2-2.5,23c-0.6,7.1-1.1,28.5-1.1,28.5s13.8,6,18.1,8.5c8.8,5.1,32,25.7,32,25.7
			s0.8-51.6,0-52.7c-0.5-0.7-21-19.3-34.5-28.8C265,294.4,259,294.4,259,294.4z"/>
		<path class="st1" d="M255.4,351.8c0.9-1,9.5,8.9,20.8,18c13.4,10.8,29.7,21.2,29.7,21.2v47.4c0,0-33.6-13.3-36.4-16.1
			c-8.9-9-9.1-14.1-11.4-29.1C255.2,374.4,253.7,353.7,255.4,351.8z"/>
	</g>
</g>
<path class="st2" d="M421.3,286.3c0,0-24,42-23.2,50.1l51.8-21.9C449.9,314.5,450.5,296.2,421.3,286.3
	C416.2,284.6,421.3,286.3,421.3,286.3z"/>
<path class="st2" d="M449.9,326.4c0,0-53,11.1-51.5,16.8c2.1,8.2,48.2,5.7,48.2,5.7l0,0C451.8,343,449.9,326.4,449.9,326.4z"/>
</svg>
