<?xml version="1.0" encoding="UTF-8" standalone="no"?>
<!-- Generator: Adobe Illustrator 19.0.1, SVG Export Plug-In . SVG Version: 6.00 Build 0)  -->

<svg
   xmlns:dc="http://purl.org/dc/elements/1.1/"
   xmlns:cc="http://creativecommons.org/ns#"
   xmlns:rdf="http://www.w3.org/1999/02/22-rdf-syntax-ns#"
   xmlns:svg="http://www.w3.org/2000/svg"
   xmlns="http://www.w3.org/2000/svg"
   xmlns:sodipodi="http://sodipodi.sourceforge.net/DTD/sodipodi-0.dtd"
   xmlns:inkscape="http://www.inkscape.org/namespaces/inkscape"
   version="1.1"
   id="Слой_1"
   x="0px"
   y="0px"
   viewBox="0 0 300 300"
   style="enable-background:new 0 0 300 300;"
   xml:space="preserve"
   inkscape:version="0.91 r13725"
   sodipodi:docname="misc__cart.svg"><metadata
     id="metadata3442"><rdf:RDF><cc:Work
         rdf:about=""><dc:format>image/svg+xml</dc:format><dc:type
           rdf:resource="http://purl.org/dc/dcmitype/StillImage" /><dc:title></dc:title></cc:Work></rdf:RDF></metadata><defs
     id="defs3440" /><sodipodi:namedview
     pagecolor="#ffffff"
     bordercolor="#666666"
     borderopacity="1"
     objecttolerance="10"
     gridtolerance="10"
     guidetolerance="10"
     inkscape:pageopacity="0"
     inkscape:pageshadow="2"
     inkscape:window-width="1292"
     inkscape:window-height="746"
     id="namedview3438"
     showgrid="false"
     inkscape:zoom="1.5733333"
     inkscape:cx="110.94744"
     inkscape:cy="176.81358"
     inkscape:window-x="66"
     inkscape:window-y="-8"
     inkscape:window-maximized="1"
     inkscape:current-layer="Слой_1" /><path
     style="fill:#ffffff;fill-opacity:1"
     d="M 103.46635,245.93092 C 81.978071,239.39448 74.333191,214.70577 88.876417,198.81356 L 91.784626,195.63559 77.563102,132.71186 63.341576,69.788136 41.196902,69.439197 C 25.43068,69.190765 18.767158,68.641545 18.062528,67.532417 16.340487,64.821829 16.902503,50.75033 18.838534,48.103131 c 1.681868,-2.299672 3.433052,-2.458906 25.741526,-2.340663 14.734146,0.0781 25.303135,0.685365 27.490576,1.579543 4.359933,1.782244 7.631407,8.62334 10.549866,22.061194 l 2.125028,9.78456 83.14077,0.0205 c 66.34596,0.01636 83.83735,0.360266 86.5891,1.70246 5.97569,2.914699 4.73261,9.447985 -10.53266,55.357115 -7.50836,22.58079 -14.48251,41.88693 -15.49811,42.90253 -1.56042,1.56044 -10.79499,1.84657 -59.59475,1.84657 l -57.74818,0 0,3.78934 c 0,3.10406 0.63218,3.92534 3.49576,4.54134 5.22327,1.1236 12.85394,4.54454 14.46381,6.48432 1.12822,1.35942 8.80683,1.71042 37.41767,1.71042 22.96565,0 36.28663,-0.46679 36.795,-1.28935 1.17249,-1.89712 9.53476,-5.85194 14.28963,-6.75808 l 4.13135,-0.78731 0,8.23093 c 0,6.32767 -0.42451,8.23093 -1.8359,8.23093 -1.00974,0 -3.42788,1.36937 -5.37365,3.04306 -5.04197,4.33692 -5.04197,12.45832 0,16.79524 1.94577,1.67368 4.36391,3.04306 5.37365,3.04306 1.43892,0 1.8359,2.08334 1.8359,9.6349 l 0,9.6349 -4.13135,-0.89855 c -6.77792,-1.47416 -9.3306,-2.73716 -14.23452,-7.04286 -5.05209,-4.43579 -9.60023,-12.19956 -9.60023,-16.38778 0,-2.57209 -0.47577,-2.61224 -26.96583,-2.27522 l -26.96584,0.34308 -1.11507,4.71839 c -2.14001,9.0555 -12.76248,18.42009 -23.44902,20.67226 l -4.13136,0.87068 0,-9.6349 c 0,-7.55156 0.39697,-9.6349 1.83589,-9.6349 3.46639,0 8.40254,-5.6142 9.16887,-10.42832 0.64753,-4.06782 0.22287,-5.23453 -3.1231,-8.58051 -2.12989,-2.12989 -4.73264,-3.87253 -5.78389,-3.87253 -1.05124,0 -2.17296,-1.00106 -2.49269,-2.22458 -0.55366,-2.11864 -0.58837,-2.11864 -0.72881,0 -0.0811,1.22352 -0.97361,2.22458 -1.98335,2.22458 -1.00974,0 -3.42788,1.36937 -5.37365,3.04306 -5.041973,4.33692 -5.041973,12.45832 0,16.79524 1.94577,1.67368 4.36391,3.04306 5.37365,3.04306 1.43721,0 1.83589,2.07038 1.83589,9.5339 0,10.07567 -0.12775,10.2432 -6.36416,8.34617 z"
     id="path3451"
     inkscape:connector-curvature="0" /><path
     style="fill:#ffffff;fill-opacity:1"
     d="m 221.69492,237.05016 c 0,-7.92579 0.35558,-9.6349 2.00456,-9.6349 3.60281,0 9.43612,-7.0725 9.43612,-11.44068 0,-4.36818 -5.83331,-11.44068 -9.43612,-11.44068 -1.6189,0 -2.00456,-1.58356 -2.00456,-8.23093 l 0,-8.23093 4.13135,0.78731 c 6.75581,1.28746 13.1048,5.08174 17.92372,10.71156 14.24326,16.64005 4.67963,41.29949 -17.92372,46.2156 l -4.13135,0.89855 0,-9.6349 z"
     id="path3453"
     inkscape:connector-curvature="0" /></svg>