<?xml version="1.0" encoding="UTF-8" standalone="no"?>
<!-- Created with Inkscape (http://www.inkscape.org/) -->

<svg
   xmlns:dc="http://purl.org/dc/elements/1.1/"
   xmlns:cc="http://creativecommons.org/ns#"
   xmlns:rdf="http://www.w3.org/1999/02/22-rdf-syntax-ns#"
   xmlns:svg="http://www.w3.org/2000/svg"
   xmlns="http://www.w3.org/2000/svg"
   xmlns:sodipodi="http://sodipodi.sourceforge.net/DTD/sodipodi-0.dtd"
   xmlns:inkscape="http://www.inkscape.org/namespaces/inkscape"
   id="svg3428"
   version="1.1"
   inkscape:version="0.91 r13725"
   width="600"
   height="600"
   viewBox="0 0 600 600"
   sodipodi:docname="koshelek.svg">
  <metadata
     id="metadata3434">
    <rdf:RDF>
      <cc:Work
         rdf:about="">
        <dc:format>image/svg+xml</dc:format>
        <dc:type
           rdf:resource="http://purl.org/dc/dcmitype/StillImage" />
        <dc:title></dc:title>
      </cc:Work>
    </rdf:RDF>
  </metadata>
  <defs
     id="defs3432" />
  <sodipodi:namedview
     pagecolor="#ffffff"
     bordercolor="#666666"
     borderopacity="1"
     objecttolerance="10"
     gridtolerance="10"
     guidetolerance="10"
     inkscape:pageopacity="0"
     inkscape:pageshadow="2"
     inkscape:window-width="1366"
     inkscape:window-height="705"
     id="namedview3430"
     showgrid="false"
     inkscape:zoom="0.55625733"
     inkscape:cx="488.42991"
     inkscape:cy="189.48229"
     inkscape:window-x="-8"
     inkscape:window-y="-8"
     inkscape:window-maximized="1"
     inkscape:current-layer="svg3428" />
  <path
     style="fill:#ffffff"
     d="m 64.089781,543.32611 c -38.308458,-0.71131 -44.852235,-19.49043 -45.5,-46.64286 -1.323177,-1.32317 -1.5,-24.71428 -1.5,-198.42857 0,-174.38095 -1.176552,-169.06377 1.5,-196.92857 4.06751,-20.442282 14.26047,-29.892497 29.925691,-33.975636 13.978085,-3.643388 40.070053,-4.423337 56.069838,-4.761701 38.92955,-0.823282 75.72954,1.187278 83.10561,1.186768 88.33333,0 134.39886,-0.787752 134.39886,-1.449432 41.76216,-14.614073 72.30748,-27.812049 105.27924,-33.752837 17.13534,4.270413 23.36761,17.434319 25.72076,32.752839 0,1.953098 0.66667,1.999998 28.42857,1.999998 23.93651,0 15.18262,-0.212412 29.92857,1.5 36.98315,7.130537 38.72062,30.46199 38.64286,57.468621 l 0,16.03138 c 9.72702,-0.43458 24.29219,5.66496 35.02161,15.25 9.47661,8.22591 11.73374,13.98291 13.18916,22.72149 3.98742,23.94103 0.49033,27.89844 1.9456,70.80408 0.7158,21.10456 -1.15777,64.44593 -1.15637,88.72443 0,141.11111 -0.62237,144.66873 -1.05057,158.60114 0.34126,14.26963 0.56164,26.26362 -8.60681,35.19091 -10.90084,12.69431 -21.08833,13.11613 -37.34262,13.70795 0,0.66393 -82,1 -244,1 -162,0 -243.999999,-0.33607 -243.999999,-1 z m 473.999999,-31 c 3.23186,-0.81966 10.40536,1.07086 23.24716,-9.43425 7.62057,-10.40864 6.94127,-13.45187 6.65171,-27.01518 -0.24846,-10.33694 0.10113,-13.8839 0.10113,-40.55057 l 0,-41 -33,0 c -15.51188,0.18174 -26.51351,-0.0614 -37.62516,-3.79773 -26.97679,-9.52459 -30.3608,-31.82224 -30.37484,-49.20227 -0.88432,-25.83579 10.70177,-46.56845 38,-51.5 13.03354,-1.30159 4.16667,-1.5 31.5,-1.5 l 31.5,0 0,-47 c 0,-30.66667 -0.34752,-47 -1,-47 -0.45992,-5.62696 -1.87293,-16.99836 -14.98865,-20.34262 -43.24164,-2.12956 -177.45736,-4.65124 -253.95233,-4.65738 -82.34051,0.97724 -166.5543,-0.72422 -248.118036,-2 -1.912935,0 -1.940983,2.23256 -1.940983,154.5 0,102.33333 0.339791,154.44676 1,154.5 1.050236,21.14645 3.622202,34.87782 29.000001,36 0,0.66377 77.333328,1 229.999998,1 152.66667,0 230,-0.33623 230,-1 z m 30,-171 0,-22 -22.5,0 c -14.33333,0 -22.5,0.36296 -22.5,1 -12.31219,0.92531 -17.66898,3.73293 -20.85114,15.36214 -1.60987,13.81279 2.54893,18.54219 9.85114,24.63786 8.66204,4.12487 21.63107,3.01271 30.5,3 l 25.5,0 z m -52,0 0,-15 17,0 17,0 0,15 0,15 -17,0 -17,0 z m -402,-204 c 39.05691,-12.39091 81.327,-27.50604 114,-40.613503 1.65,-0.33742 3,-1.01242 3,-1.499998 0,-0.50785 -35.09125,-2.234797 -80.3483,-2.234797 -39.69495,-1.051525 -46.56794,-0.438572 -78.997314,1.550566 -10.528654,2.924309 -15.473669,6.600572 -20.404385,15.261012 -2.611852,25.39282 20.549564,28.5603 39.250001,28.53672 14.999998,0 23.499998,-0.3617 23.499998,-1 z m 330,-2.07143 c -8.80065,-21.91394 -15.00419,-40.835773 -24,-64.999991 -2.78572,-7.499821 -9.19659,-5.37801 -9.19659,-5.37801 -71.12086,24.781139 -121.58065,43.472571 -198.80341,72.449431 0,0.66092 39.33333,1 116,1 l 116,0 z m 72,-10.92857 c 1.94185,-24.10223 -20.25755,-29.682566 -37,-30.000001 -14.2247,0 -12.5,3.642858 -12.5,3.642858 12.08052,26.893833 6.98486,40.404423 32.5,40.357143 l 17,0 z"
     id="path3438"
     inkscape:connector-curvature="0"
     sodipodi:nodetypes="ccscssccccsccccssccccsccccscccccscsccccsccscccscccccccccccccccccscccccccccscccccccc" />
</svg>
