<?xml version="1.0" encoding="utf-8"?>
<!-- Generator: Adobe Illustrator 16.0.0, SVG Export Plug-In . SVG Version: 6.00 Build 0)  -->
<!DOCTYPE svg PUBLIC "-//W3C//DTD SVG 1.1//EN" "http://www.w3.org/Graphics/SVG/1.1/DTD/svg11.dtd">
<svg version="1.1" id="Слой_1" xmlns="http://www.w3.org/2000/svg" xmlns:xlink="http://www.w3.org/1999/xlink" x="0px" y="0px"
	 width="150px" height="150px" viewBox="0 0 150 150" enable-background="new 0 0 150 150" xml:space="preserve">
<path fill="#FFFFFF" d="M92.75,82.375c0,0,7.375,0.875,10.5,3.25c5.781,4.394,7.416,11.542,7.416,11.542s24.833-29.833-1-62.167
	C98.679,21.248,66.833,9.668,39.333,31.667c-26.302,21.041-19.776,57.102-7.167,69.335c22.333,21.666,42.812,15.793,57.5,13.666
	c5.126-0.742,14.539,0.107,19.5,2c12.667,4.833,20,16,20,16s-4-12.333-17.667-18.833c-5.74-2.729-20.196-4.816-26.166-7
	c-6.834-2.5-10.167-9.668-10.167-9.668s-0.087,3.324,0,4.334c0.076,0.879,0.5,3,0.5,3S53.333,104.668,41,85
	c-6.28-10.015-9.589-34.75,3.333-47.166c8.5-8.167,27.917-15.22,49.167,4.167c19,17.333,12.125,42.249,12.125,42.249
	s-1.514-0.611-4.625-1.5C97.5,81.75,92.75,82.375,92.75,82.375z"/>
<ellipse transform="matrix(0.8245 -0.5659 0.5659 0.8245 -40.4286 72.6621)" fill="#FFFFFF" cx="96.917" cy="101.502" rx="2.583" ry="3.166"/>
<ellipse transform="matrix(0.967 -0.2546 0.2546 0.967 -21.2203 30.3275)" fill="#FFFFFF" cx="106.538" cy="97.132" rx="1.168" ry="2.765"/>
</svg>
