<?xml version="1.0" encoding="UTF-8" standalone="no"?>
<!-- Created with Inkscape (http://www.inkscape.org/) -->

<svg
   xmlns:dc="http://purl.org/dc/elements/1.1/"
   xmlns:cc="http://creativecommons.org/ns#"
   xmlns:rdf="http://www.w3.org/1999/02/22-rdf-syntax-ns#"
   xmlns:svg="http://www.w3.org/2000/svg"
   xmlns="http://www.w3.org/2000/svg"
   xmlns:sodipodi="http://sodipodi.sourceforge.net/DTD/sodipodi-0.dtd"
   xmlns:inkscape="http://www.inkscape.org/namespaces/inkscape"
   id="svg3403"
   version="1.1"
   inkscape:version="0.91 r13725"
   width="512"
   height="512"
   viewBox="0 0 512 512"
   sodipodi:docname="Bank_karta.svg">
  <metadata
     id="metadata3409">
    <rdf:RDF>
      <cc:Work
         rdf:about="">
        <dc:format>image/svg+xml</dc:format>
        <dc:type
           rdf:resource="http://purl.org/dc/dcmitype/StillImage" />
        <dc:title />
      </cc:Work>
    </rdf:RDF>
  </metadata>
  <defs
     id="defs3407" />
  <sodipodi:namedview
     pagecolor="#ffffff"
     bordercolor="#666666"
     borderopacity="1"
     objecttolerance="10"
     gridtolerance="10"
     guidetolerance="10"
     inkscape:pageopacity="0"
     inkscape:pageshadow="2"
     inkscape:window-width="1366"
     inkscape:window-height="705"
     id="namedview3405"
     showgrid="false"
     inkscape:zoom="0.4609375"
     inkscape:cx="256"
     inkscape:cy="256"
     inkscape:window-x="-8"
     inkscape:window-y="-8"
     inkscape:window-maximized="1"
     inkscape:current-layer="svg3403" />
  <path
     style="fill:#ffffff"
     d="m 52.332043,481.17502 c -11.22026,-2.97662 -19.77968,-8.1783 -28.39066,-17.25342 -8.62313,-9.08793 -13.09503,-16.91991 -15.8383,-27.73885 -1.8557799,-7.31887 -1.9335899,-11.22838 -1.9335899,-97.1531 0,-85.28626 0.0897,-89.88113 1.8935799,-96.99528 2.28807,-9.02372 5.22747,-15.06914 11.26756,-23.1738 8.22895,-11.04171 23.7168,-20.70517 36.80058,-22.96128 4.47324,-0.77135 50.510757,-1.00656 157.546757,-0.80493 l 151.22671,0.28487 7.3411,2.83987 c 15.255,5.90129 27.6867,17.22943 34.8049,31.71522 6.4874,13.20185 6.384,11.29362 6.0851,112.35947 l -0.2692,91.02188 -3.0699,8.65422 c -3.6683,10.34164 -10.6104,20.09608 -19.3598,27.20306 -7.0151,5.69816 -7.601,6.02664 -18.2939,10.25658 l -8.2171,3.25055 -152.20554,0.20022 C 64.144043,483.07444 59.296373,483.02258 52.332043,481.17502 Z M 362.94708,444.51473 c 6.034,-3.23395 9.3101,-6.70951 12.6194,-13.38764 l 2.5522,-5.15044 -0.016,-89.62922 -0.016,-89.62922 -2.2076,-3.94915 c -3.1777,-5.68465 -9.9741,-9.93816 -18.04146,-11.29122 -4.7684,-0.79975 -47.40836,-1.03466 -151.50055,-0.83462 l -144.864407,0.27838 -4.02926,2.17421 c -6.19156,3.34099 -9.49733,6.55561 -12.65565,12.30663 l -2.89137,5.26493 0,88.36228 0,88.36229 2.15555,4.06414 c 4.54465,8.56865 10.73718,13.57005 18.88895,15.25568 1.88421,0.38962 69.055297,0.64485 149.269067,0.56718 l 145.84323,-0.14124 4.8941,-2.62297 z M 83.931803,412.79834 c -0.27072,-0.7116 -0.36947,-7.71544 -0.21943,-15.56409 l 0.2728,-14.27027 30.343217,0 30.34322,0 0,15.30296 0,15.30297 -30.12379,0.26113 c -24.122097,0.20909 -30.221867,0.003 -30.616017,-1.0327 z m 93.965867,-5.9e-4 c -0.27059,-0.71127 -0.36923,-7.71485 -0.21919,-15.5635 l 0.27279,-14.27027 31.81145,0 31.81144,0 0,15.30296 0,15.30297 -31.59225,0.26053 c -25.32517,0.20885 -31.68983,0.004 -32.08424,-1.03269 z m 95.92381,2e-4 c -0.27064,-0.71138 -0.36931,-7.71505 -0.21927,-15.5637 l 0.2728,-14.27027 31.32203,0 31.32204,0 0,15.30296 0,15.30297 -31.10276,0.26072 c -24.92416,0.20893 -31.20052,0.004 -31.59484,-1.03268 z m -44.9719,-74.16129 c -9.01001,-2.23193 -16.59533,-8.39435 -21.4865,-17.45592 -2.42082,-4.48489 -2.95617,-6.76033 -3.30318,-14.03964 -0.39394,-8.26396 -0.25746,-8.99861 2.80064,-15.07572 3.69211,-7.33703 9.31343,-12.98861 16.64771,-16.73735 4.31464,-2.20533 6.44122,-2.62382 13.62205,-2.6807 7.12245,-0.0564 9.39351,0.34093 13.93512,2.43815 6.59483,3.04536 12.76897,8.50846 16.10507,14.25037 1.36723,2.3532 2.77436,4.2476 3.12697,4.20978 0.35261,-0.0378 2.42625,-2.81457 4.60808,-6.17055 11.59067,-17.82813 36.8876,-20.11311 52.36907,-4.7303 4.10015,4.07401 6.14785,7.10671 7.74012,11.46326 6.101,16.6928 -2.39277,36.80226 -18.15185,42.97545 -7.99214,3.13071 -19.31956,3.20121 -26.90732,0.16747 -6.42028,-2.56697 -14.77609,-10.13917 -16.93231,-15.34441 -1.84322,-4.44965 -3.02491,-4.54177 -5.14764,-0.40126 -4.15727,8.10903 -10.40156,13.39709 -19.58134,16.58274 -6.24759,2.16809 -12.2262,2.33678 -19.44469,0.54863 z m 205.2692,1.61468 c -1.7075,-0.57408 -1.6723,-22.85404 0.037,-23.38174 7.3869,-2.28065 15.6503,-6.04939 18.55,-8.46026 6.6475,-5.52691 11.8716,-20.13189 12.3549,-34.5407 0.059,-1.75729 4.6722,-38.9573 6.0606,-48.87076 1.7021,-12.15407 3.2386,-26.52155 3.3259,-31.09958 l 0.085,-4.4428 -18.108,-2.2011 c -24.7768,-3.0117 -32.9679,-4.04908 -45.5149,-5.76436 -5.9218,-0.80956 -21.7786,-2.77685 -35.2373,-4.37174 -39.2716,-4.65379 -41.76613,-4.95936 -48.45124,-5.93533 -3.49926,-0.51086 -19.35604,-2.51449 -35.23729,-4.45252 -15.88125,-1.93803 -44.95202,-5.50242 -64.6017,-7.92087 -19.64968,-2.41845 -39.47066,-4.85514 -44.04661,-5.41486 -4.57595,-0.55972 -11.62341,-1.44082 -15.66102,-1.958 -9.36035,-1.199 -23.60792,-2.78733 -29.63732,-3.30399 -5.81671,-0.49845 -5.91626,-0.32314 -7.48833,13.18506 -1.77383,15.24187 -0.45284,13.82204 -12.8598,13.82204 l -10.70099,0 0.003,-10.61335 c 0.002,-5.83734 0.63202,-14.38973 1.40066,-19.0053 0.76864,-4.61557 1.6561,-11.05763 1.97212,-14.31568 2.99302,-30.85704 5.58829,-51.346844 7.56561,-59.730924 3.93564,-16.687533 22.52197,-34.792328 39.97789,-38.942135 9.3395,-2.220282 17.05326,-1.910039 47.94763,1.928423 27.25617,3.386437 37.96688,4.682395 52.84907,6.394549 4.03761,0.464516 15.93019,1.974023 26.42797,3.35446 10.49777,1.380439 28.33665,3.631948 39.64195,5.003356 94.2253,11.430163 138.0968,17.081961 142.9068,18.410164 12.2783,3.390469 28.0726,16.839134 33.5946,28.605448 4.1775,8.901499 6.0473,16.768969 6.0473,25.444709 0,6.55927 -3.106,35.65942 -5.9174,55.44085 -0.5788,4.07257 -1.4197,10.9589 -1.8685,15.30297 -0.4489,4.34407 -1.9557,17.00604 -3.3485,28.13771 -1.3929,11.13167 -4.0818,32.77324 -5.9754,48.09236 -1.8936,15.31913 -4.1564,29.98036 -5.0283,32.58051 -7.3089,21.79453 -23.8918,35.4553 -47.3946,39.04315 -1.3662,0.20855 -3.0179,0.19967 -3.6705,-0.0197 z m 49.3049,-217.91184 c 0.3485,-1.40061 -0.2746,-5.38387 -1.4559,-9.30664 -2.6731,-8.87682 -9.1964,-16.403313 -17.4282,-20.108485 -5.9965,-2.699033 -1.2832,-2.040172 -114.80652,-16.048401 -52.03184,-6.420477 -51.67024,-6.375968 -60.19704,-7.409393 -4.30678,-0.52197 -12.89587,-1.615932 -19.08686,-2.431029 -6.191,-0.815095 -26.01197,-3.258262 -44.04661,-5.429259 -18.03464,-2.170997 -35.73813,-4.393006 -39.3411,-4.937797 -3.60295,-0.544792 -10.20994,-0.98619 -14.6822,-0.980886 -6.64153,0.0079 -9.11773,0.470748 -13.51484,2.52631 -6.57877,3.075444 -12.15782,8.334048 -15.11615,14.247944 -3.31989,6.636668 -3.81321,9.531413 -1.76142,10.335936 1.70734,0.669462 14.77089,2.367696 83.43689,10.846624 20.18803,2.492832 43.31251,5.38849 51.38772,6.434796 8.07521,1.0463 19.08686,2.39196 24.47034,2.99035 5.38347,0.5984 12.2107,1.48226 15.17161,1.96416 2.96091,0.4819 11.32977,1.57399 18.59746,2.42688 7.26769,0.85288 19.16027,2.26306 26.42796,3.13373 7.26766,0.87066 16.51746,1.93842 20.55506,2.37277 4.0376,0.43437 17.9123,2.17002 30.8327,3.85703 12.9203,1.687 29.2175,3.77516 36.2161,4.64035 6.9985,0.86519 14.9269,1.90439 17.6186,2.30935 2.6917,0.40495 7.4184,0.79883 10.5036,0.87528 5.2063,0.12902 5.6533,-0.037 6.2188,-2.30962 z"
     id="path3417"
     inkscape:connector-curvature="0" />
  <path
     style="fill:#000000"
     d=""
     id="path3415"
     inkscape:connector-curvature="0" />
</svg>
