<?xml version="1.0" encoding="UTF-8" standalone="no"?>
<!-- Created with Inkscape (http://www.inkscape.org/) -->

<svg
   xmlns:dc="http://purl.org/dc/elements/1.1/"
   xmlns:cc="http://creativecommons.org/ns#"
   xmlns:rdf="http://www.w3.org/1999/02/22-rdf-syntax-ns#"
   xmlns:svg="http://www.w3.org/2000/svg"
   xmlns="http://www.w3.org/2000/svg"
   xmlns:sodipodi="http://sodipodi.sourceforge.net/DTD/sodipodi-0.dtd"
   xmlns:inkscape="http://www.inkscape.org/namespaces/inkscape"
   id="svg3336"
   version="1.1"
   inkscape:version="0.91 r13725"
   width="1024"
   height="1024"
   viewBox="0 0 1024 1024"
   sodipodi:docname="yand_dengi.svg">
  <metadata
     id="metadata3342">
    <rdf:RDF>
      <cc:Work
         rdf:about="">
        <dc:format>image/svg+xml</dc:format>
        <dc:type
           rdf:resource="http://purl.org/dc/dcmitype/StillImage" />
        <dc:title></dc:title>
      </cc:Work>
    </rdf:RDF>
  </metadata>
  <defs
     id="defs3340" />
  <sodipodi:namedview
     pagecolor="#ffffff"
     bordercolor="#666666"
     borderopacity="1"
     objecttolerance="10"
     gridtolerance="10"
     guidetolerance="10"
     inkscape:pageopacity="0"
     inkscape:pageshadow="2"
     inkscape:window-width="1366"
     inkscape:window-height="705"
     id="namedview3338"
     showgrid="false"
     inkscape:zoom="2.09375"
     inkscape:cx="564.42036"
     inkscape:cy="269.54264"
     inkscape:window-x="-8"
     inkscape:window-y="-8"
     inkscape:window-maximized="1"
     inkscape:current-layer="svg3336" />
  <path
     style="fill:#ffffff"
     d="m 286.4467,748.80311 c -23.493,-3.45337 -40.05065,-17.87522 -46.25373,-40.28739 -1.59953,-5.77922 -1.72282,-18.49744 -1.72282,-177.72467 0,-162.89883 0.0914,-171.82599 1.8228,-178 4.35562,-15.53183 14.5721,-30.96982 27.08343,-40.92538 3.69213,-2.93792 15.57364,-10.29845 26.40337,-16.35673 64.08597,-35.85051 303.914,-169.05438 308.9768,-171.61006 9.7115,-4.90234 19.252,-7.10783 30.7472,-7.10783 8.7923,0 10.7243,0.32422 15.1887,2.54888 6.0038,2.99182 9.6491,7.39848 12.6246,15.26141 l 2.1531,5.68971 0.308,169 c 0.2142,117.54329 -0.026,172.29532 -0.7893,179.82286 -3.0251,29.83586 -15.8394,47.65105 -42.0187,58.41673 -4.125,1.69633 -68.4686,27.02007 -142.9859,56.275 -74.51722,29.25493 -137.53776,54.23055 -140.04563,55.50139 -6.14153,3.11215 -12.70186,9.86213 -14.09087,14.49822 -3.50911,11.71237 7.45206,22.11728 20.02626,19.00995 10.48136,-2.59014 306.50004,-86.33687 316.71014,-89.60055 21.8218,-6.97541 37.4635,-18.67688 44.7459,-33.47433 6.8215,-13.86109 6.6035,-9.58636 6.6227,-129.82365 l 0.017,-108.37438 23.75,0.52998 c 24.7532,0.55235 29.5321,1.25646 38.722,5.70523 6.0176,2.91307 12.9411,10.8289 15.5349,17.76162 1.163,3.10824 2.5531,9.27397 3.0892,13.70164 0.6083,5.02421 0.8623,70.82496 0.6757,175.05029 -0.2773,154.9634 -0.4237,167.41663 -2.0306,172.7805 -6.0617,20.23455 -18.1678,28.99102 -43.8153,31.69214 -11.0216,1.16075 -453.56381,1.19856 -461.44935,0.0394 z M 533.89995,378.13253 c 8.9151,-4.49343 22.6008,-17.47963 27.8319,-26.40932 7.3438,-12.53642 10.0646,-26.86162 6.75,-35.54058 -5.505,-14.41485 -17.9129,-17.91763 -34.5117,-9.74272 -10.4039,5.12394 -23.987,18.72655 -29.3091,29.35114 -8.4507,16.87052 -8.9197,30.41407 -1.3702,39.57288 7.0514,8.55459 17.2918,9.48084 30.6091,2.7686 z"
     id="path3346"
     inkscape:connector-curvature="0" />
</svg>
