<?xml version="1.0" encoding="UTF-8" standalone="no"?>
<!-- Created with Inkscape (http://www.inkscape.org/) -->

<svg
   xmlns:dc="http://purl.org/dc/elements/1.1/"
   xmlns:cc="http://creativecommons.org/ns#"
   xmlns:rdf="http://www.w3.org/1999/02/22-rdf-syntax-ns#"
   xmlns:svg="http://www.w3.org/2000/svg"
   xmlns="http://www.w3.org/2000/svg"
   xmlns:sodipodi="http://sodipodi.sourceforge.net/DTD/sodipodi-0.dtd"
   xmlns:inkscape="http://www.inkscape.org/namespaces/inkscape"
   width="210mm"
   height="297mm"
   viewBox="0 0 744.09448819 1052.3622047"
   id="svg2"
   version="1.1"
   inkscape:version="0.91 r13725"
   sodipodi:docname="wwbmm.svg">
  <defs
     id="defs4" />
  <sodipodi:namedview
     id="base"
     pagecolor="#ffffff"
     bordercolor="#666666"
     borderopacity="1.0"
     inkscape:pageopacity="0.0"
     inkscape:pageshadow="2"
     inkscape:zoom="0.35"
     inkscape:cx="375"
     inkscape:cy="634.28571"
     inkscape:document-units="px"
     inkscape:current-layer="layer1"
     showgrid="false"
     inkscape:window-width="1366"
     inkscape:window-height="705"
     inkscape:window-x="-8"
     inkscape:window-y="-8"
     inkscape:window-maximized="1" />
  <metadata
     id="metadata7">
    <rdf:RDF>
      <cc:Work
         rdf:about="">
        <dc:format>image/svg+xml</dc:format>
        <dc:type
           rdf:resource="http://purl.org/dc/dcmitype/StillImage" />
        <dc:title></dc:title>
      </cc:Work>
    </rdf:RDF>
  </metadata>
  <g
     inkscape:label="Layer 1"
     inkscape:groupmode="layer"
     id="layer1">
    <path
       style="fill:#000000"
       d=""
       id="path3347"
       inkscape:connector-curvature="0" />
    <path
       style="fill:#ffffff"
       d="m 367.81631,756.58815 c -33.2721,-3.59388 -59.0913,-10.89805 -88.3447,-24.99252 -24.2325,-11.67532 -35.567,-18.95465 -57.1198,-36.68378 -5.5361,-4.55395 -21.8976,-20.84256 -28.5533,-28.42602 -6.1672,-7.02695 -9.2733,-11.16995 -20.1552,-26.8835 -16.1023,-23.25198 -30.6986,-57.95932 -36.82215,-87.55614 -5.0078,-24.20499 -5.501,-29.13624 -5.4836,-54.82684 0.017,-25.81665 0.9968,-35.30115 5.85985,-56.75406 6.264,-27.63285 16.5147,-53.32353 30.3419,-76.04412 2.6241,-4.31184 5.2475,-8.64896 5.8299,-9.63807 0.5824,-0.98909 1.8292,-2.83793 2.7708,-4.10852 0.9416,-1.2706 3.8872,-5.29624 6.5457,-8.94588 2.6585,-3.64964 5.4677,-7.27199 6.2427,-8.04966 2.0522,-2.05926 10.2,-11.67057 11.7494,-13.85977 2.4123,-3.4084 25.5489,-23.81843 34.7246,-30.63238 43.2926,-32.14941 91.0723,-49.21548 146.7236,-52.40697 11.4468,-0.65644 39.9415,0.80231 48.8969,2.50322 2.576,0.48926 7.6131,1.41185 11.1934,2.05017 16.4076,2.92524 29.1303,6.65702 48.049,14.09351 12.7383,5.00715 32.0716,14.62365 32.0716,15.95264 0,0.40412 -1.9038,2.43306 -4.2306,4.50871 -2.3268,2.07568 -6.9846,6.3503 -10.3505,9.49915 -3.366,3.14886 -6.6451,5.72519 -7.287,5.72519 -0.9677,0 -15.0341,-13.95379 -31.366,-31.11515 -1.9544,-2.0536 -4.4136,-3.73383 -5.4649,-3.73383 -1.0513,0 -4.3859,2.28833 -7.4101,5.08518 -3.0243,2.79685 -7.9121,7.16542 -10.8619,9.70793 -7.4405,6.41318 -12.5824,10.95384 -28.1872,24.89135 -7.4362,6.64164 -14.0092,12.0792 -14.6067,12.08346 -0.5975,0.004 -2.3616,-1.44848 -3.9202,-3.22826 -1.5586,-1.7798 -7.3792,-8.12158 -12.9347,-14.09287 -5.5555,-5.9713 -12.0888,-13.02822 -14.5185,-15.68204 -2.4297,-2.65383 -4.7299,-4.82515 -5.1117,-4.82515 -0.3817,0 -1.8037,1.00812 -3.16,2.2403 -1.3562,1.23215 -5.8076,5.15266 -9.892,8.71223 -8.0965,7.05614 -17.1857,15.12439 -17.9797,15.96022 -0.2754,0.2899 -7.7116,6.9821 -16.5249,14.87155 -8.8133,7.88945 -20.5309,18.45236 -26.0392,23.47312 -5.5083,5.02075 -13.1698,11.81984 -17.0256,15.10906 -3.8558,3.28924 -9.7146,8.55583 -13.0195,11.70356 -3.305,3.14772 -7.0231,6.39813 -8.2625,7.22315 -3.9139,2.60543 -3.4341,3.42513 10.4769,17.89822 1.218,1.26716 8.392,9.13387 15.9422,17.48158 7.5503,8.3477 15.8588,17.41791 18.4633,20.15605 2.6046,2.73814 9.3615,10.09154 15.0152,16.34088 l 10.2796,11.36247 -3.4159,2.94256 c -13.0213,11.21673 -19.8129,17.08565 -22.2329,19.21252 -3.2978,2.8983 -3.3803,2.70832 5.4215,12.47642 3.6491,4.04971 10.5976,11.8437 15.4411,17.31997 9.2582,10.46778 11.4974,12.9478 20.585,22.79886 6.3009,6.83019 18.6808,20.68381 23.855,26.69474 l 3.4209,3.97411 -4.9232,4.41032 c -2.7077,2.42568 -8.8666,7.84461 -13.6863,12.04209 -4.8198,4.19748 -8.7632,8.12938 -8.7632,8.73758 0,0.60819 1.6398,2.87357 3.644,5.0342 2.0042,2.16061 8.8756,9.75314 15.2697,16.8723 13.0891,14.57323 49.5087,54.92967 55.3455,61.32821 14.7309,16.14862 18.2127,20.01352 21.8921,24.30072 2.35,2.73813 4.9077,5.34815 5.6839,5.80006 1.2942,0.75347 5.9851,-2.65335 11.335,-8.23227 0.8263,-0.8616 3.305,-3.07397 5.5083,-4.91638 2.2033,-1.84241 7.1608,-6.32891 11.0166,-9.96999 20.9516,-19.78495 32.4532,-29.97647 33.8298,-29.97647 0.8496,0 3.9511,2.73098 6.8921,6.06883 2.9411,3.33786 6.6313,7.48239 8.2006,9.21008 1.5693,1.7277 5.3951,6.05364 8.5018,9.61322 3.1067,3.55958 9.2739,10.50448 13.7048,15.43312 11.4178,12.70038 14.4997,16.38154 14.4997,17.31956 0,0.83475 -23.3199,17.03158 -24.5217,17.03158 -0.3607,0 -2.5398,1.28068 -4.8423,2.84595 -8.4984,5.77721 -28.8603,15.37618 -45.2483,21.33092 -34.8925,12.67866 -77.3456,17.99658 -112.958,14.14982 z m 203.9502,-90.87718 c -5.0187,-5.35481 -10.4115,-11.29157 -11.984,-13.19282 -1.5726,-1.90124 -4.9408,-5.6971 -7.485,-8.43524 -2.5442,-2.73813 -6.3478,-6.91056 -8.4525,-9.27205 l -3.8267,-4.29363 6.4119,-5.66322 c 3.5265,-3.11478 12.963,-11.48799 20.97,-18.60714 8.007,-7.11914 15.5386,-13.77361 16.7367,-14.78769 2.1548,-1.82367 2.2147,-1.80248 5.4924,1.94213 1.8226,2.08223 5.6052,6.27238 8.4059,9.31142 2.8007,3.03903 10.3496,11.23139 16.7753,18.20525 6.4256,6.97386 11.683,13.29195 11.683,14.0402 0,1.24835 -4.3584,5.57998 -13.1087,13.02819 -3.5323,3.00662 -22.2017,19.84382 -27.392,24.70378 -1.6194,1.51626 -3.4297,2.75685 -4.0229,2.75685 -0.5932,0 -5.1848,-4.38121 -10.2034,-9.73603 z m -131.1142,-21.80383 c -2.1693,-2.60158 -6.4553,-7.43481 -9.5243,-10.74052 -7.1114,-7.65965 -27.1644,-29.67324 -31.7784,-34.88522 -1.9392,-2.19052 -4.8368,-5.38084 -6.4393,-7.08961 l -2.9135,-3.10691 13.3053,-11.82838 c 7.318,-6.50563 16.2586,-14.51675 19.8682,-17.80251 22.4641,-20.44928 26.4065,-23.97168 27.5855,-24.64673 0.8985,-0.51446 6.2943,4.78791 17.1667,16.86957 8.721,9.69091 21.1553,23.39877 27.6317,30.4619 l 11.7753,12.84205 -5.2655,4.63506 c -2.8961,2.54928 -8.8739,7.9975 -13.2841,12.10716 -14.5969,13.60227 -41.6862,37.3379 -42.9451,37.62847 -0.681,0.15719 -3.0131,-1.84275 -5.1825,-4.44433 z m 96.1783,-65.29053 c -1.4905,-1.77978 -5.0073,-5.7003 -7.8152,-8.71224 -2.8078,-3.01196 -8.9453,-9.73283 -13.6388,-14.93529 -4.6935,-5.20245 -10.2254,-11.25123 -12.2932,-13.44174 -2.0678,-2.19051 -3.7645,-4.25379 -3.7704,-4.58507 -0.018,-1.00042 43.2188,-39.87512 45.0906,-40.5416 0.4956,-0.17645 3.5605,2.5119 6.8109,5.97412 10.4861,11.16949 34.2172,38.02231 34.2172,38.71822 0,0.5833 -13.8617,13.47473 -26.5399,24.6821 -2.2033,1.9477 -7.1029,6.36193 -10.8881,9.80938 -3.7851,3.44745 -7.2378,6.26809 -7.6726,6.26809 -0.4348,0 -2.0101,-1.45618 -3.5005,-3.23597 z m -141.2779,-42.81446 c -2.768,-2.87504 -10.6332,-11.50016 -17.4782,-19.16695 -12.5659,-14.07463 -17.6001,-19.61721 -24.4175,-26.8835 -2.0552,-2.1905 -4.6104,-5.18295 -5.6783,-6.64987 l -1.9417,-2.66715 4.2738,-3.89455 c 2.3505,-2.142 9.0058,-8.10523 14.7895,-13.2516 13.9131,-12.37996 16.5413,-14.73936 29.7731,-26.72828 6.1848,-5.6039 11.8937,-10.04216 12.6863,-9.86281 0.7927,0.17935 7.9006,7.53917 15.7955,16.35516 7.8949,8.81596 19.8752,22.12589 26.6228,29.5776 6.7477,7.4517 12.2685,13.92006 12.2685,14.37412 0,0.45407 -1.9145,2.37812 -4.2544,4.2757 -2.3399,1.89756 -5.1826,4.34622 -6.317,5.44148 -1.1345,1.09526 -5.6056,5.12778 -9.9359,8.96117 -4.3302,3.83339 -9.4871,8.4794 -11.4597,10.32447 -1.9726,1.84507 -6.9666,6.32566 -11.0978,9.95685 -4.1312,3.63121 -9.5394,8.50112 -12.0181,10.82204 -2.4787,2.32093 -4.9728,4.22518 -5.5425,4.23166 -0.5696,0.007 -3.3004,-2.3405 -6.0684,-5.21554 z m 222.8642,-6.92589 c -4.0957,-4.5173 -9.2495,-10.21459 -11.4528,-12.66062 -2.2033,-2.44605 -4.7947,-5.25654 -5.7586,-6.24555 -2.4128,-2.47555 -2.2371,-3.21254 1.5022,-6.30017 1.7902,-1.47819 5.2848,-4.54241 7.7657,-6.80939 14.4006,-13.15885 17.2627,-15.57214 18.4682,-15.57214 0.7328,0 5.2711,4.36857 10.0851,9.70793 4.814,5.33936 10.5325,11.60561 12.7078,13.92498 2.1754,2.31937 3.8082,4.81117 3.6286,5.53732 -0.3,1.21267 -27.0605,25.74366 -28.7564,26.36061 -0.4087,0.14867 -4.0941,-3.42566 -8.1898,-7.94297 z M 491.65771,474.5675 c -4.4353,-4.79173 -11.8111,-12.96878 -16.3905,-18.17125 -4.5795,-5.20245 -10.0586,-11.24664 -12.1758,-13.43151 -2.1172,-2.18488 -3.8494,-4.2627 -3.8494,-4.61738 0,-0.35469 4.394,-4.5607 9.7646,-9.3467 5.3706,-4.78599 11.5674,-10.33121 13.7707,-12.32272 14.3622,-12.98138 21.3594,-19.02711 22.0217,-19.02711 0.4183,0 2.62,2.11034 4.8928,4.68965 2.2727,2.5793 11.2304,12.42788 19.906,21.88575 8.6755,9.45785 15.7377,17.76488 15.6937,18.46004 -0.071,1.12422 -4.6765,5.43523 -27.4099,25.65821 -3.3859,3.01194 -8.5218,7.60454 -11.4132,10.20577 -2.8914,2.60122 -5.5922,4.72951 -6.0017,4.72951 -0.4096,0 -4.3737,-3.92052 -8.809,-8.71226 z m 80.6207,-44.66598 -13.281,-14.54654 5.4973,-5.11825 c 12.4587,-11.59977 23.2764,-21.0666 24.3775,-21.3334 0.645,-0.15631 2.4873,1.18787 4.094,2.98705 1.6067,1.79918 7.6466,8.37001 13.4222,14.60185 l 10.5011,11.33061 -6.624,6.09388 c -15.42,14.18587 -22.7427,20.53132 -23.6935,20.53132 -0.5569,0 -6.989,-6.54594 -14.2936,-14.54652 z m -221.0089,0.35801 c -2.7378,-2.87505 -6.1675,-6.65217 -7.6216,-8.39359 -1.454,-1.74143 -4.0949,-4.66461 -5.8686,-6.49598 -1.7737,-1.83135 -5.0321,-5.33519 -7.2409,-7.78631 -2.2089,-2.4511 -9.5761,-10.62903 -16.3717,-18.17316 -7.0877,-7.86848 -12.1357,-14.28608 -11.84,-15.05229 0.2836,-0.73463 9.9042,-9.75008 21.3792,-20.03436 11.475,-10.28427 24.6407,-22.10515 29.2573,-26.26863 4.6165,-4.1635 8.7352,-7.70272 9.1526,-7.86498 0.6763,-0.2629 25.7845,26.77521 46.0493,49.58873 4.1312,4.65081 7.8493,8.60535 8.2625,8.7879 2.0674,0.91354 0.026,4.16312 -5.566,8.85916 -3.411,2.86457 -8.0045,6.89954 -10.2078,8.9666 -2.2033,2.06706 -12.5689,11.37144 -23.0346,20.67642 -10.4658,9.30499 -19.1789,17.25557 -19.3625,17.66798 -0.6868,1.54277 -2.1425,0.60994 -6.9872,-4.47749 z m 101.3586,-44.80585 c -2.204,-2.32741 -9.8147,-10.7285 -16.9127,-18.66909 -7.098,-7.9406 -14.3978,-15.99258 -16.2218,-17.89331 -1.824,-1.90072 -3.3164,-3.76868 -3.3164,-4.15099 0,-0.61152 13.9606,-13.35689 36.9286,-33.71407 4.0161,-3.55957 7.7909,-6.47197 8.3886,-6.47197 0.5976,0 4.9174,4.25657 9.5996,9.45902 4.6821,5.20245 11.2544,12.38725 14.6049,15.96619 10.9396,11.68521 16.6078,18.16648 16.6078,18.98999 0,0.84406 -6.3159,6.92154 -14.0119,13.4828 -2.4737,2.10897 -7.8976,6.9709 -12.0532,10.80429 -11.539,10.64442 -18.2082,16.4288 -18.9419,16.4288 -0.3654,0 -2.4676,-1.90425 -4.6716,-4.23166 z m 85.0381,-41.83159 c -4.5134,-5.0585 -10.2595,-11.40316 -12.7692,-14.09926 -5.2132,-5.60028 -5.6017,-7.58306 -2.0327,-10.37409 1.3917,-1.08838 5.5605,-4.70251 9.2639,-8.03139 3.7034,-3.32889 8.7435,-7.84762 11.2002,-10.04163 2.4567,-2.19401 5.1957,-3.9891 6.0866,-3.9891 1.3523,0 25.9082,26.3986 26.7859,28.79588 0.1559,0.42584 -2.088,2.74611 -4.9865,5.15614 -2.8986,2.41001 -6.2068,5.27798 -7.3517,6.37324 -4.227,4.04376 -17.228,15.43271 -17.6029,15.42031 -0.2132,-0.007 -4.0803,-4.15161 -8.5937,-9.2101 z"
       id="path3360"
       inkscape:connector-curvature="0" />
  </g>
</svg>
