<?xml version="1.0" encoding="UTF-8" standalone="no"?>
<!-- Created with Inkscape (http://www.inkscape.org/) -->

<svg
   xmlns:dc="http://purl.org/dc/elements/1.1/"
   xmlns:cc="http://creativecommons.org/ns#"
   xmlns:rdf="http://www.w3.org/1999/02/22-rdf-syntax-ns#"
   xmlns:svg="http://www.w3.org/2000/svg"
   xmlns="http://www.w3.org/2000/svg"
   xmlns:sodipodi="http://sodipodi.sourceforge.net/DTD/sodipodi-0.dtd"
   xmlns:inkscape="http://www.inkscape.org/namespaces/inkscape"
   id="svg3377"
   version="1.1"
   inkscape:version="0.91 r13725"
   width="512"
   height="512"
   viewBox="0 0 512 512"
   sodipodi:docname="Ryka.svg">
  <metadata
     id="metadata3383">
    <rdf:RDF>
      <cc:Work
         rdf:about="">
        <dc:format>image/svg+xml</dc:format>
        <dc:type
           rdf:resource="http://purl.org/dc/dcmitype/StillImage" />
        <dc:title></dc:title>
      </cc:Work>
    </rdf:RDF>
  </metadata>
  <defs
     id="defs3381" />
  <sodipodi:namedview
     pagecolor="#ffffff"
     bordercolor="#666666"
     borderopacity="1"
     objecttolerance="10"
     gridtolerance="10"
     guidetolerance="10"
     inkscape:pageopacity="0"
     inkscape:pageshadow="2"
     inkscape:window-width="1366"
     inkscape:window-height="705"
     id="namedview3379"
     showgrid="false"
     inkscape:zoom="0.921875"
     inkscape:cx="361.475"
     inkscape:cy="378.85346"
     inkscape:window-x="-8"
     inkscape:window-y="-8"
     inkscape:window-maximized="1"
     inkscape:current-layer="svg3377" />
  <path
     style="fill:#ffffff"
     d="m 269.48655,427.87021 c -10.97746,-2.38827 -20.33748,-8.77091 -24.45472,-16.6758 -0.66989,-1.28616 -1.34074,-2.48468 -1.49078,-2.66338 -0.15003,-0.1787 -2.05529,0.8547 -4.23391,2.29644 -17.91074,11.85277 -44.54546,8.82555 -52.94922,-6.01804 -1.23106,-2.17442 -2.35864,-4.28484 -2.50573,-4.68982 -0.14709,-0.40498 -3.19244,0.44655 -6.76744,1.8923 -11.46192,4.63524 -27.32822,7.20924 -51.5,8.35487 -12.1,0.57349 -41.273872,2.15565 -64.830822,3.51593 -54.5777514,3.15155 -51.855318,3.17222 -55.8806784,-0.42443 -2.6396618,-2.35854 -3.2430493,-3.64607 -3.2430493,-6.92013 0,-4.34592 2.2974792,-7.77802 6.2077177,-9.27343 2.0046583,-0.76665 27.856124,-2.41276 115.746832,-7.37026 21.01811,-1.18553 27.88295,-1.94516 35.82694,-3.96444 20.06913,-5.10138 26.2867,-9.26957 53.17306,-35.64664 20.44267,-20.05544 21.19905,-20.67602 28.5,-23.38328 42.0615,-15.5968 65.92123,-31.11662 74.06225,-48.17459 4.0602,-8.50738 4.41001,-17.69683 0.94606,-24.8524 -4.04781,-8.36166 -10.2789,-11.16769 -20.97425,-9.44525 -9.68953,1.56045 -16.70346,4.22012 -38.03406,14.42246 -34.91279,16.69863 -96.41538,44.7462 -99.92638,45.57031 -6.66379,1.56414 -12.82408,-4.05273 -11.74406,-10.70809 0.81146,-5.00043 2.95062,-6.99209 11.9074,-11.08635 l 7.76304,-3.54857 0,-63.3223 0,-63.32229 -4.15923,-1.11997 c -8.55899,-2.30469 -14.64222,0.76005 -30.84077,15.53761 -5.225,4.76664 -18.95,15.76428 -30.500004,24.43919 -21.675857,16.28018 -79.62358,57.99148 -83.294254,59.95597 -7.3963631,3.95841 -16.21719659,-2.58264 -14.5724909,-10.80617 0.7790926,-3.89546 2.648272,-5.49066 25.3667449,-21.64856 10.12944,-7.20429 19.263401,-13.74324 27.513152,-19.70069 33.505757,-24.19577 52.426312,-38.79974 64.215942,-49.42974 19.77972,-17.83419 32.33503,-22.44454 48.2511,-17.71797 5.06507,1.50416 5.39364,1.49115 6.31217,-0.25 1.93981,-3.67703 14.32321,-14.99227 18.70764,-17.09396 11.34467,-5.4381 5.9332,-5.24328 145.4601,-5.23701 79.01097,0.004 131.36611,0.38375 135.0399,0.98067 18.61512,3.0246 36.14061,19.84087 39.49846,37.90003 1.36801,7.35746 1.35049,163.00051 -0.0192,170.22269 -3.41583,18.01162 -17.96665,32.57308 -35.86578,35.89203 -3.08455,0.57196 -24.92751,0.99879 -51.11277,0.99879 l -45.72631,0 -1.24864,7.75 c -3.91692,24.31154 -14.67264,41.57147 -30.83108,49.47532 -6.28356,3.07358 -7.33948,3.27332 -17.19468,3.25252 -8.09144,-0.0171 -11.24892,-0.42616 -13.76487,-1.78337 l -3.26487,-1.76121 -6.23513,5.06627 c -7.55449,6.13829 -14.43244,9.63315 -21.62162,10.98648 -6.60698,1.24374 -8.02192,1.20126 -15.71171,-0.47174 z m 17.36486,-21.4948 c 2.34666,-1.06513 6.52204,-4.28892 9.27862,-7.16398 l 5.01196,-5.22738 -0.63686,-5.62909 c -0.57011,-5.03914 0.73111,-23.07648 2.18218,-30.24902 l 0.55635,-2.75 -19.36667,0 -19.36666,0 -2.15029,17.75 c -2.58346,21.32561 -1.99779,26.57121 3.52464,31.56894 4.35662,3.94269 14.25766,4.74573 20.96673,1.70053 z m -61.26666,-11.40068 c 2.75,-1.29892 7.2918,-4.69031 10.09289,-7.53641 l 5.09289,-5.17474 1.23961,-11.70382 c 0.68178,-6.4371 1.4578,-12.49132 1.72449,-13.45382 0.40235,-1.45208 -0.18421,-1.75 -3.44554,-1.75 -3.74735,0 -4.7318,0.79402 -21.13511,17.04682 -16.24665,16.09757 -17.15475,17.19734 -16.30799,19.75 1.21987,3.67741 4.60946,5.17276 11.73876,5.17867 4.2362,0.004 7.46983,-0.68928 11,-2.3567 z m 115.27895,-2.28555 c 8.31816,-5.14272 14.80043,-17.30191 17.10414,-32.08324 l 0.81822,-5.25 -17.69035,0 -17.69036,0 -1.1603,9.44158 c -1.41966,11.55208 -1.49725,23.54197 -0.17484,27.02016 2.0302,5.33984 10.90078,5.75119 18.79349,0.8715 z m 135.60177,-59.42191 c 5.30588,-1.47324 13.08839,-9.38428 14.79898,-15.04342 1.02601,-3.39433 1.3203,-16.84994 1.3203,-60.36791 l 0,-56 -153.5,0 -153.5,0 -0.2633,33.75 c -0.14482,18.5625 -0.0563,33.75 0.19678,33.75 0.83663,0 50.77914,-23.04441 66.56652,-30.71504 8.525,-4.14205 20.225,-9.11402 26,-11.04882 9.31585,-3.12109 11.74054,-3.53013 21.5,-3.62698 9.9362,-0.0986 11.5319,0.14474 16.5,2.51623 7.98096,3.80965 13.21991,8.84984 17.22713,16.57353 4.74428,9.14433 6.18295,15.82733 5.45088,25.3207 -1.07347,13.9204 -7.38805,26.57931 -19.1013,38.29256 -7.31076,7.31076 -16.33488,13.5764 -31.57515,21.92331 l -10.50156,5.75158 97.5,8.9e-4 c 66.61119,6e-4 98.72944,-0.34048 101.38072,-1.07663 z m 15.97891,-177.66133 c -1.31281,-10.35663 -7.22067,-18.41409 -16.75746,-22.85473 l -5.10217,-2.37573 -131.7609,-0.01 c -131.55092,-0.01 -131.76798,-0.006 -136.20439,2.07892 -8.34405,3.92216 -15.42179,13.75986 -17.02315,23.66131 l -0.68736,4.25 167.1816,0.63543 140.95594,-0.63543 -0.60211,-4.75 z"
     id="path3387"
     inkscape:connector-curvature="0"
     sodipodi:nodetypes="sscsssssssssssssssssssscccssssssssssssssssscsssscssssscsscccssssscssssscssscccsssssscccsssssssssscsscscscsccccc" />
</svg>
