<?xml version="1.0" encoding="UTF-8" standalone="no"?>
<!-- Generator: Adobe Illustrator 19.0.1, SVG Export Plug-In . SVG Version: 6.00 Build 0)  -->

<svg
   xmlns:dc="http://purl.org/dc/elements/1.1/"
   xmlns:cc="http://creativecommons.org/ns#"
   xmlns:rdf="http://www.w3.org/1999/02/22-rdf-syntax-ns#"
   xmlns:svg="http://www.w3.org/2000/svg"
   xmlns="http://www.w3.org/2000/svg"
   xmlns:sodipodi="http://sodipodi.sourceforge.net/DTD/sodipodi-0.dtd"
   xmlns:inkscape="http://www.inkscape.org/namespaces/inkscape"
   version="1.1"
   id="Слой_1"
   x="0px"
   y="0px"
   viewBox="271 -147.3 594.99998 595.00001"
   xml:space="preserve"
   inkscape:version="0.91 r13725"
   sodipodi:docname="social__instagram.svg"
   width="595"
   height="595"><metadata
     id="metadata3390"><rdf:RDF><cc:Work
         rdf:about=""><dc:format>image/svg+xml</dc:format><dc:type
           rdf:resource="http://purl.org/dc/dcmitype/StillImage" /><dc:title></dc:title></cc:Work></rdf:RDF></metadata><defs
     id="defs3388" /><sodipodi:namedview
     pagecolor="#ffffff"
     bordercolor="#666666"
     borderopacity="1"
     objecttolerance="10"
     gridtolerance="10"
     guidetolerance="10"
     inkscape:pageopacity="0"
     inkscape:pageshadow="2"
     inkscape:window-width="1292"
     inkscape:window-height="746"
     id="namedview3386"
     showgrid="false"
     inkscape:zoom="0.39643878"
     inkscape:cx="420.95001"
     inkscape:cy="297.64999"
     inkscape:window-x="66"
     inkscape:window-y="-8"
     inkscape:window-maximized="1"
     inkscape:current-layer="Слой_1" /><style
     type="text/css"
     id="style3376">
	.st0{fill:#434344;}
	.st1{fill:none;stroke:#434344;stroke-width:18;stroke-miterlimit:10;}
</style><path
     class="st0"
     d="m 566.23221,242.97755 c 0,0 -42.7,0.5 -68.6,-28.4 -33.5,-37.5 -17.3,-79.2 -17.3,-79.2 l -25.4,0.5 c 0,0 -2,83.3 -0.5,120.4 0.1,2.9 3.7,8.8 10.2,9.1 20.3,1 100.8,-0.5 100.8,-0.5 l 0.7,31.3 -109.6,0 c 0,0 -11.7,0 -21.4,-10 -9.5,-9.8 -10.7,-17.7 -11,-24.4 -2.7,-51.2 -1.2,-147.8 0,-205.199996 0.1,-6.9 2.4,-19.3 11.6,-27.9 10.8,-10.2 25.1,-10.8 34,-10.8 23.9,0 95.8,0 95.8,0 l 5.8,0 -5.7,83.799996 c 0,0 -57.5,-0.4 -59.3,55.3 -1.5,48.4 59.2,54.5 59.2,54.5 l 19,2.5 -4.6,25.4 -13.7,3.6 z"
     id="path3378"
     inkscape:connector-curvature="0"
     style="fill:#434344" /><path
     class="st0"
     d="m 584.43221,38.177554 -12.5,58.7 12.5,-58.7 z"
     id="path3380"
     inkscape:connector-curvature="0"
     style="fill:#434344" /><path
     class="st0"
     d="m 639.83221,17.777554 2.5,29.1 17.3,2 c 0,0 5.9,1.1 7.1,2.5 4.9,5.6 4.1,46.599998 0.2,49.799996 -4,3.3 -45.9,5.1 -51.3,-2.399998 -2.2,-2.999998 -3.4,-41.799998 1.4,-46.899998 8,-8.5 67.2,-0.3 67.2,-0.3 l -24.2,-16.9 -20.2,-16.9 -74.4,0 c 0,0 -32.7,83.399996 -11.5,83.399996 11.5,0 56.4,-1.399998 65.5,48.8 3,16.8 -4.8,30.7 -12.2,40.9 -17.7,24.4 -53.8,18.2 -53.8,18.2 l 12.7,33.8 c 0,0 42.2,-1.5 67.6,-36.2 23.6,-32.2 13.1,-69.9 13.1,-69.9 l 24,0 c 0,0 2.1,85.4 0,113.8 -0.3,4.6 0,6.2 -2.7,10 -1.1,1.6 -5,3 -6.9,3.2 -23.7,3 -97.9,1.1 -97.9,1.1 l 1.2,31.3 c 0,0 77.9,0 106.2,0 5.8,0 15.4,-3.7 21.5,-10.3 10,-10.8 10.2,-25.6 10.2,-25.6 0,0 0,-175.399996 0,-200.699996 0,-11.6 -1.4,-25.5 -21,-37.1 -9.9,-5.9 -41.6,-4.7 -41.6,-4.7 z"
     id="path3382"
     inkscape:connector-curvature="0"
     style="fill:#434344" /><path
     class="st1"
     d="m 843.73221,151.17755 c 0,152.5 -123.6,276.2 -276.2,276.2 -152.5,0 -276.2,-123.6 -276.2,-276.2 0,-152.4999954 123.6,-276.2 276.2,-276.2 152.6,0 276.2,123.7000046 276.2,276.2 z"
     id="path3384"
     inkscape:connector-curvature="0"
     style="fill:none;stroke:#434344;stroke-width:18;stroke-miterlimit:10" /><path
     style="fill:#ffffff;fill-opacity:1"
     d="m 441.58668,289.65769 c -15.06547,-9.65151 -16.36374,-16.0929 -17.6923,-87.7808 -0.65939,-35.58028 -0.23682,-85.9311 0.93905,-111.890686 1.8975,-41.89091 2.72758,-47.99032 7.38071,-54.23284 12.13672,-16.28234 9.25071,-15.93053 130.81389,-15.94623 123.02143,-0.0159 119.62327,-0.47013 131.81424,17.62006 l 5.6841,8.43463 0,112.001596 c 0,123.62584 0.16623,122.24409 -15.88782,132.03284 -7.69582,4.69243 -13.41284,4.9224 -121.58612,4.89089 -109.55621,-0.032 -113.78772,-0.21062 -121.46575,-5.12946 z m 215.52729,-24.87755 c 5.95124,-1.15071 11.62677,-2.89644 12.61229,-3.87941 0.98552,-0.98296 2.13203,-29.5048 2.54781,-63.38185 l 0.75593,-61.59464 -13.48778,0 -13.48778,0 1.02338,16.07185 c 2.68353,42.14413 -22.40758,75.26537 -65.56393,86.54692 -14.77788,3.8631 -18.79581,4.00425 -32.6323,1.14637 -21.97635,-4.53914 -37.39554,-13.03337 -50.87606,-28.02695 -15.42804,-17.1597 -20.41351,-32.54827 -18.91742,-58.39218 l 1.15016,-19.86847 -9.46638,0 c -18.44626,0 -17.44636,-3.69166 -17.44636,64.41237 0,52.4096 0.57765,61.92781 3.96386,65.31402 3.46358,3.46358 15.64097,3.95 96.484,3.85401 50.88608,-0.0604 97.38934,-1.05134 103.34058,-2.20204 z m -77.71608,-55.92945 c 37.78975,-8.10444 53.5998,-54.84925 29.31829,-86.68394 -18.13627,-23.777878 -55.95837,-27.692516 -82.41182,-8.52973 -14.57671,10.55931 -20.81616,25.61359 -19.59237,47.27163 1.13252,20.04291 6.99538,29.77084 23.92013,39.68941 18.10386,10.60957 29.09933,12.47033 48.76577,8.25263 z M 667.39053,102.0836 c 3.99356,-2.468158 3.85321,-47.404616 -0.1606,-51.418426 -3.55174,-3.55174 -44.27332,-4.14499 -49.67634,-0.7237 -4.49276,2.8449 -6.81353,36.68544 -3.15973,46.07388 1.75369,4.506096 4.98364,7.159496 9.69723,7.966276 9.53318,1.63171 39.72996,0.30803 43.29944,-1.89803 z"
     id="path3400"
     inkscape:connector-curvature="0" /><path
     style="fill:#ffffff;fill-opacity:1"
     d="m 534.19085,433.42541 c -66.32986,-8.2442 -124.68763,-37.90462 -171.9145,-87.37574 -33.84413,-35.45243 -56.97555,-76.46156 -69.75237,-123.66227 -6.09042,-22.49951 -6.67604,-28.75644 -6.67604,-71.32842 0,-42.57196 0.58562,-48.8289 6.67604,-71.328406 12.76221,-47.14674 35.92817,-88.2429194 69.62351,-123.51144 24.30765,-25.442529 45.96426,-41.706208 76.04329,-57.106984 36.89885,-18.8926 64.66753,-26.90705 105.14068,-30.34516 118.49824,-10.06618 229.45949,53.762826 280.62489,161.425794 71.58776,150.636016 -2.87631,330.591016 -160.61754,388.159426 -37.45201,13.66832 -90.57103,19.86796 -129.14796,15.0732 z m 82.4629,-18.79985 c 55.90318,-10.60467 104.6577,-36.99305 143.66279,-77.75751 10.83473,-11.32346 23.88928,-26.93371 29.0101,-34.68949 C 842.70035,221.34121 850.47159,123.35831 810.26175,38.220484 772.36609,-42.017386 700.35326,-97.761511 615.4719,-112.56359 454.77594,-140.58662 308.18365,-23.786566 300.19051,138.64252 c -4.74772,96.4787 41.10638,185.14997 123.41184,238.65003 28.03956,18.22622 67.8141,33.45654 102.87445,39.39227 16.15372,2.73484 71.5763,1.46923 90.17695,-2.05926 z"
     id="path3402"
     inkscape:connector-curvature="0" /></svg>