<?xml version="1.0" encoding="UTF-8" standalone="no"?>
<!-- Generator: Adobe Illustrator 19.0.1, SVG Export Plug-In . SVG Version: 6.00 Build 0)  -->

<svg
   xmlns:dc="http://purl.org/dc/elements/1.1/"
   xmlns:cc="http://creativecommons.org/ns#"
   xmlns:rdf="http://www.w3.org/1999/02/22-rdf-syntax-ns#"
   xmlns:svg="http://www.w3.org/2000/svg"
   xmlns="http://www.w3.org/2000/svg"
   xmlns:sodipodi="http://sodipodi.sourceforge.net/DTD/sodipodi-0.dtd"
   xmlns:inkscape="http://www.inkscape.org/namespaces/inkscape"
   version="1.1"
   id="Слой_1"
   x="0px"
   y="0px"
   viewBox="271 -147.3 595 595.00002"
   xml:space="preserve"
   inkscape:version="0.91 r13725"
   sodipodi:docname="social__vk.svg"
   width="595"
   height="595"><metadata
     id="metadata3415"><rdf:RDF><cc:Work
         rdf:about=""><dc:format>image/svg+xml</dc:format><dc:type
           rdf:resource="http://purl.org/dc/dcmitype/StillImage" /><dc:title></dc:title></cc:Work></rdf:RDF></metadata><defs
     id="defs3413" /><sodipodi:namedview
     pagecolor="#ffffff"
     bordercolor="#666666"
     borderopacity="1"
     objecttolerance="10"
     gridtolerance="10"
     guidetolerance="10"
     inkscape:pageopacity="0"
     inkscape:pageshadow="2"
     inkscape:window-width="1292"
     inkscape:window-height="746"
     id="namedview3411"
     showgrid="false"
     inkscape:zoom="0.39643878"
     inkscape:cx="420.95001"
     inkscape:cy="297.64999"
     inkscape:window-x="66"
     inkscape:window-y="-8"
     inkscape:window-maximized="1"
     inkscape:current-layer="Слой_1"
     units="px" /><style
     type="text/css"
     id="style3405">
	.st0{fill:none;stroke:#434344;stroke-width:18;stroke-miterlimit:10;}
	.st1{fill:#434344;}
</style><path
     class="st0"
     d="m 846.25466,148.65509 c 0,152.5 -123.6,276.2 -276.2,276.2 -152.5,0 -276.2,-123.6 -276.2,-276.2 0,-152.4999947 123.6,-276.2 276.2,-276.2 152.6,0 276.2,123.7000053 276.2,276.2 z"
     id="path3407"
     inkscape:connector-curvature="0"
     style="fill:none;stroke:#434344;stroke-width:18;stroke-miterlimit:10" /><path
     class="st1"
     d="m 376.15466,78.155093 c 0,0 0.5,-15.199998 5.6,-18.599998 10.3,-6.8 51.6,-4.3 64.7,-0.5 5.6,1.6 9.7,6.7 9.7,6.7 0,0 50.7,91.499995 57.3,86.899995 10,-6.9 4.6,-74.699997 1.8,-79.099997 -2.9,-4.499998 -16.8,-1.299998 -17.2,-6.399998 -0.4,-4.6 4.3,-12.8 8.6,-16.2 8.3,-6.7 77.8,-6.4 86.9,1.1 4.6,3.8 4.5,13.4 4.5,13.4 l 0,82.699995 c 24.7,18.6 40.5,-72.499997 61.3,-89.999995 0,0 75.5,-4.6 84.9,1.7 12.4,8.3 -0.1,33.899998 -3.6,38.199998 -16.3,20.299997 -54.6,57.599997 -52,69.899997 4.9,22.5 46.9,51.4 58.6,71.3 2.6,4.3 3.7,15.9 -2,20 -14.3,10.4 -64.2,10 -79.2,3.3 -32.7,-14.6 -51.4,-62.7 -62,-50.7 -6.1,6.9 -6.7,36.1 -6.7,36.1 0,0 -1.3,12.6 -12.6,18.7 0,0 -53.3,1.5 -60,-1.4 -53.4,-22.6 -146,-179.799997 -146,-179.799997 l -2.6,-7.3 z"
     id="path3409"
     inkscape:connector-curvature="0"
     style="fill:#434344" /><path
     style="fill:#ffffff;fill-opacity:1"
     d="m 536.7133,430.90295 c -66.32986,-8.2442 -124.68763,-37.90462 -171.9145,-87.37574 -33.84413,-35.45243 -56.97555,-76.46156 -69.75237,-123.66227 -6.09042,-22.49951 -6.67604,-28.75644 -6.67604,-71.32842 0,-42.57196 0.58562,-48.828897 6.67604,-71.328407 12.76221,-47.146738 35.92817,-88.242918 69.62351,-123.511438 24.30765,-25.44253 45.96426,-41.706202 76.04329,-57.106985 36.89885,-18.89259 64.66753,-26.90705 105.14068,-30.34516 118.49824,-10.06618 229.45949,53.762833 280.62489,161.425795 71.58776,150.636015 -2.87631,330.591015 -160.61754,388.159425 -37.45201,13.66832 -90.57103,19.86796 -129.14796,15.0732 z m 82.4629,-18.79985 c 55.90318,-10.60467 104.6577,-36.99305 143.66279,-77.75751 10.83473,-11.32346 23.88928,-26.93371 29.0101,-34.68949 C 845.2228,218.81875 852.99404,120.83585 812.7842,35.698025 774.88854,-44.539845 702.87571,-100.28397 617.99435,-115.08604 457.29839,-143.10907 310.7061,-26.309025 302.71296,136.12006 c -4.74772,96.4787 41.10638,185.14997 123.41184,238.65003 28.03956,18.22622 67.8141,33.45654 102.87445,39.39227 16.15372,2.73484 71.5763,1.46923 90.17695,-2.05926 z"
     id="path3417"
     inkscape:connector-curvature="0" /><path
     style="fill:#ffffff;fill-opacity:1"
     d="m 538.86164,264.56957 c -12.95572,-0.98296 -18.95842,-2.88118 -27.20654,-8.60349 -21.54897,-14.95007 -59.84356,-60.8079 -96.03069,-114.99693 -39.09161,-58.538397 -42.29893,-65.852057 -34.0459,-77.634915 3.62534,-5.17589 5.91969,-5.60618 29.89309,-5.60618 37.73379,0 38.67683,0.53332 57.2035,32.350638 22.22331,38.165847 39.71302,63.502747 43.83506,63.502747 1.94526,0 4.39726,-2.55399 5.44889,-5.67553 2.76231,-8.19936 1.66368,-66.474557 -1.35971,-72.123827 -1.40562,-2.62641 -6.0013,-5.464418 -10.21262,-6.306678 -9.22783,-1.84557 -9.52505,-4.24933 -1.65647,-13.3971 5.6802,-6.60363 7.36231,-7.03068 31.51416,-8.00074 30.65876,-1.23142 51.94137,1.09102 57.07903,6.22868 3.07904,3.07904 3.78216,12.16185 3.78216,48.857355 0,28.94524 0.95396,45.66476 2.66583,46.72276 5.77666,3.57018 14.99733,-1.72324 21.069,-12.09534 3.44351,-5.88246 11.47477,-23.18155 17.84728,-38.442417 17.86468,-42.782418 14.22638,-40.231078 58.53603,-41.048238 40.48317,-0.74659 49.30708,1.25457 50.77987,11.51628 1.58698,11.057148 -5.36285,23.864388 -25.35567,46.725965 -23.31233,26.65738 -34.741,43.37233 -34.71724,50.77558 0.0227,7.34584 7.3847,17.62388 27.18044,37.9509 34.45748,35.38221 38.86388,43.43145 28.7743,52.56239 -6.85919,6.20749 -40.28006,10.13446 -60.05242,7.0562 -21.13646,-3.29065 -29.46491,-8.72634 -52.86963,-34.50617 -10.63867,-11.7183 -20.76722,-21.306 -22.50787,-21.306 -6.01644,0 -9.02281,7.1247 -11.20059,26.544 -1.51691,13.52624 -3.61236,20.8651 -6.84338,23.96743 -5.29562,5.08469 -25.04491,6.99358 -51.54991,4.98263 z"
     id="path3419"
     inkscape:connector-curvature="0" /></svg>