<?xml version="1.0" encoding="utf-8"?>
<!-- Generator: Adobe Illustrator 19.0.1, SVG Export Plug-In . SVG Version: 6.00 Build 0)  -->
<svg version="1.1" id="Слой_1" xmlns="http://www.w3.org/2000/svg" xmlns:xlink="http://www.w3.org/1999/xlink" x="0px" y="0px"
	 viewBox="0 0 841.9 595.3" style="enable-background:new 0 0 841.9 595.3;" xml:space="preserve">
<g>
	<g>
		<path d="M294.6,228.3c0,12.2,9.8,22,22,22h228c12.2,0,22-9.8,22-22v-3c0-12.2-9.8-22-22-22h-228c-12.2,0-22,9.8-22,22V228.3z"/>
	</g>
	<g>
		<path d="M294.6,299.3c0,12.2,9.8,22,22,22h228c12.2,0,22-9.8,22-22v-3c0-12.2-9.8-22-22-22h-228c-12.2,0-22,9.8-22,22V299.3z"/>
	</g>
	<g>
		<path d="M294.6,374.3c0,12.2,9.8,22,22,22h228c12.2,0,22-9.8,22-22v-3c0-12.2-9.8-22-22-22h-228c-12.2,0-22,9.8-22,22V374.3z"/>
	</g>
</g>
</svg>
