<?xml version="1.0" encoding="utf-8"?>
<!-- Generator: Adobe Illustrator 16.0.0, SVG Export Plug-In . SVG Version: 6.00 Build 0)  -->
<!DOCTYPE svg PUBLIC "-//W3C//DTD SVG 1.1//EN" "http://www.w3.org/Graphics/SVG/1.1/DTD/svg11.dtd">
<svg version="1.1" id="Слой_1" xmlns="http://www.w3.org/2000/svg" xmlns:xlink="http://www.w3.org/1999/xlink" x="0px" y="0px"
	 width="841.89px" height="595.28px" viewBox="0 0 841.89 595.28" enable-background="new 0 0 841.89 595.28" xml:space="preserve">
<g>
	<path fill="#6BB2C2" d="M713.842,297.175c0,157.554-127.717,285.263-285.264,285.263c-157.548,0-285.264-127.709-285.264-285.263
		c0-157.542,127.716-285.261,285.264-285.261C586.125,11.914,713.842,139.632,713.842,297.175z"/>
	<path fill="#FFFFFF" d="M519.012,477.863c0,0,15.139,8.65,32.212,2.418c10.292-3.751,32.683-39.274,37.579-49.064
		c7.247-14.471,0.062-21.185-4.349-26.524c-16.024-19.411-37.036-41.492-49.719-54.548c-4.004-4.122-13.552-4.848-22.957-0.448
		c-11.161,5.215-26.29,28.011-45.045,19.988c-43.759-18.706-96.544-84.236-106.284-109.235
		c-4.571-11.75,20.463-32.119,24.524-44.051c1.729-5.111,7.144-9.604,0.416-21.563c-9.519-16.944-55.286-54.658-55.286-54.658
		s-8.578-8.983-15.86-7.269c-12.362,2.904-49.067,24.939-55.668,35.785c-4.523,7.428-3.58,26.579-0.685,34.78
		c12.206,34.516,49.238,99.209,111.672,160.135C435.783,428.22,519.012,477.863,519.012,477.863"/>
</g>
</svg>
