<?xml version="1.0" standalone="no"?>
<!DOCTYPE svg PUBLIC "-//W3C//DTD SVG 1.1//EN" "http://www.w3.org/Graphics/SVG/1.1/DTD/svg11.dtd" >
<svg xmlns="http://www.w3.org/2000/svg">
<metadata></metadata>
<defs>
<font id="svgfont_1regular" horiz-adv-x="2048" >
<font-face units-per-em="2048" ascent="1638" descent="-410" />
<missing-glyph horiz-adv-x="500" />
<glyph horiz-adv-x="0" />
<glyph unicode="&#xd;" />
<glyph unicode="a" d="M143 787q-9 65 -9 127q0 66 10 130q20 124 75 243t138 214t197 167t244 106q86 22 226 22t224 -22q134 -36 256 -116t215 -195t141 -245q34 -92 40 -269q1 -31 1 -60q0 -134 -23 -213q-40 -138 -121 -257t-194 -207t-249 -136q-90 -32 -237 -43q-52 -4 -97 -4 q-81 0 -136 13q-200 42 -368 174t-256 316q-58 122 -77 255zM378 994q0 -26 7 -36t27 -14h2q28 -4 37 -38t37 -238q0 -10 2 -14q12 -92 23 -161t15 -75q10 -16 490 -16h478l14 34q14 34 38 236q28 238 44 260q6 10 28 12q20 4 27 14t7 36v46l-222 4l-224 4l-76 164 q-78 164 -100 172q-9 1 -16 1h-7q-9 -1 -25 -24t-35 -58t-51 -103l-76 -152l-222 -4l-222 -4v-46zM686 698q0 86 5 115t19 35q12 4 23 4q23 0 34 -21q17 -31 21 -129q2 -28 1 -53t-2 -43t-4 -31t-9 -17q-12 -16 -39 -20t-39 8q-10 10 -10 152zM942 1056q0 8 10 33t23 52 t25 49t16 22q6 0 24 -33t35 -70t17 -47q0 -2 -2 -4t-6 -3t-9 -3t-12 -3t-14 -1t-16 -1t-17 -1q-30 0 -52 3t-22 7zM960 702q2 74 8 102t22 38q26 18 52 0q16 -10 22 -38t10 -102q1 -19 0 -35q0 -41 -3 -66q-5 -35 -17 -50t-38 -15t-44 21q-14 16 -14 89q0 25 2 56z M1002 1317q0 15 15 15t15 -16q-4 -12 -16 -14q-14 0 -14 15zM1241 694v11q0 111 19 129q8 8 20 13q10 4 20 4h4q12 -1 22 -6t16 -15q7 -12 7 -65q0 -35 -3 -89q-4 -62 -7 -88t-10 -36t-21 -12q-4 -1 -8 -1q-8 0 -18 3q-14 4 -22 12q-18 18 -19 140z" />
<glyph unicode="b" d="M226 920q0 326 232 556q124 124 252 177t308 53q328 0 556 -228q208 -210 229 -494q2 -32 3 -64q0 -247 -145 -454q-163 -234 -451 -310q-42 -10 -97 -18t-100 -10q-15 -1 -29 -1q-27 0 -48 3q-208 32 -370 142t-251 279t-89 369zM594 1136q0 -34 10 -72t28 -77t44 -80 t57 -80t67 -77t75 -73t80 -64t84 -52t83 -39q68 -24 108 -24q9 0 17 1q41 7 99 61q68 64 81 90q5 10 5 19q0 16 -14 31q-26 24 -116 72l-88 48l-48 -42l-48 -40l-50 26q-30 14 -79 59t-90 92t-51 73q-6 16 -6 26t6 21t20 29q10 10 18 21t12 19t4 10q0 20 -58 120t-72 106h-2 q-10 0 -34 -17q-26 -19 -64 -55q-52 -52 -65 -74t-13 -58z" />
<glyph unicode="c" d="M213 909v6q0 65 21 161q42 190 159 345t279 235q194 96 389 96q64 0 128 -10q259 -42 459 -242q126 -126 183 -266t57 -318q0 -180 -58 -320t-184 -266q-170 -172 -404 -232q-32 -8 -73 -13t-84 -6h-29l-57 1q-43 2 -84 8t-73 16q-234 66 -390 230t-212 400 q-26 108 -27 175zM666 910q0 -120 1 -224t4 -166t5 -64q4 -4 110 -7t252 -3q212 0 284 4t78 16q4 11 4 56q0 30 -2 76l-4 112l-20 -62q-20 -60 -66 -112l-44 -52l-10 58q-2 11 -2 24q0 28 9 63q13 51 63 187q78 214 78 258q0 26 -23 59t-87 103l-108 120h-262h-260v-446z M808 888q0 4 27 7t79 5t122 2q228 0 228 -15t-228 -15t-228 16zM808 958q0 14 228 14t228 -14t-228 -14t-228 14zM808 1030q0 6 59 10t161 4q220 0 228 -14q4 -14 -220 -14q-228 0 -228 14zM814 749q0 4 27 5q29 2 82 3h36q37 0 79 -1q163 -2 163 -5l-2 -1q-19 -4 -225 -8 q-32 -1 -60 -1t-51 1q-49 3 -49 7zM815 817q0 13 219 13h46h41t36 -1t32 -2t26 -2t20 -2t15 -2t10 -2t4 -3q0 -14 -220 -14q-229 0 -229 15zM1178 1228v106l100 -106q40 -44 69 -78t29 -38q0 -8 -44 -10q-22 -1 -45 -1t-46 1q-47 2 -53 8q-10 10 -10 118zM1278 524l32 40 q32 40 134 328q42 118 73 207t31 95q0 14 -22 26t-30 4q-18 -18 -118 -317t-100 -331v-52zM1504 1274q0 -12 16 -20t40 -10h3q9 0 11 10q-2 4 -2 6q-2 10 -19 17q-15 6 -29 6h-4q-16 -1 -16 -9z" />
<glyph unicode="d" d="M236 916l28 130q30 138 81 236t137 186q76 74 164 126t187 78t205 26q326 0 554 -230q164 -162 213 -380q20 -88 20 -174q0 -129 -44 -255q-73 -211 -253 -357q-94 -76 -209 -120t-233 -51q-24 -1 -47 -1q-94 0 -187 22q-236 62 -387 224t-201 408zM416 1122 q-2 -6 -2 -11q0 -21 40 -27q34 -6 112 -6q38 0 61 -1t37 -3t19 -6t5 -10q0 -20 -70 -24q-38 -2 -53 -7t-15 -15q0 -8 7 -13t22 -8t39 -3q30 -2 45 -5t20 -8t5 -17q0 -4 -1 -8t-3 -7t-7 -5t-11 -3t-17 -2t-24 -2t-33 -1q-38 -2 -58 -5t-29 -7t-9 -12q0 -12 20 -17t76 -7 l96 -4v-96q0 -96 10 -106t42 -6q10 2 16 5t11 8t9 13t8 20q8 36 37 60t63 24q18 0 44 -18t45 -44t19 -44q0 -20 20 -22q13 -3 69 -3q28 0 67 1l154 4l4 242q1 53 1 96q0 150 -11 172q-10 18 -53 21q-26 2 -110 2q-56 0 -139 -1q-212 -2 -251 -7t-47 -27q-8 -14 -18 -20 t-35 -7t-91 -1q-54 0 -81 -2t-40 -6t-15 -14zM812 702q-1 -3 -1 -6q0 -5 2 -10q3 -8 13 -26q16 -22 40 -29q9 -3 19 -3q14 0 28 7q23 11 31 35q5 14 5 27q0 20 -13 36q-22 27 -54 25t-56 -30q-12 -18 -14 -26zM862 690q2 14 13 20t21 2t10 -18q0 -20 -24 -24q-14 -2 -18 2 q-3 3 -3 10q0 3 1 8zM1338 870q-1 -54 -1 -91q0 -55 2 -72q3 -27 23 -27q26 0 26 22q0 6 3 14t9 16t14 16t16 15t18 14t19 12t18 8t15 3q16 0 33 -9t32 -23t25 -30t10 -30q0 -28 16 -28q18 0 29 12t16 38t5 68q0 52 -8 82t-34 74q-42 74 -75 92q-30 16 -101 16h-16l-90 -4z M1402 892v60v60h66q34 0 47 -4t22 -13t23 -37q10 -20 18 -38t8 -21t-27 -5t-65 -2h-92zM1429 687q0 -27 15 -43q8 -10 24 -13q8 -2 16 -1.5t17 1.5q17 3 32 11t21 20q11 15 11 31q0 13 -8 27q-17 30 -48 36q-7 1 -13 1q-24 0 -46 -17q-21 -21 -21 -53zM1474 682q-4 6 -4 12 q0 8 8 16q7 7 15 7q6 0 12 -3q15 -8 15 -28q0 -16 -18 -18h-4q-15 0 -24 14z" />
<glyph unicode="e" d="M235 965v10q0 143 27 219q82 242 277 394t445 168q26 2 52 2q303 0 542 -240q234 -230 234 -553t-234 -553q-102 -102 -182 -144q-188 -99 -377 -99l-203 29q-4 2 -6 2q-198 58 -339 197t-209 339q-26 78 -27 229zM512 938q0 -22 178 -228q102 -118 145 -161 q41 -41 58 -41h1q28 4 316 342q118 138 202 245t84 119q0 24 -70 96t-94 72q-6 0 -38 -31t-82 -87t-112 -130l-208 -250l-90 104q-88 104 -108 116q-2 1 -4 1q-14 0 -53 -29q-45 -34 -85 -78t-40 -60z" />
<glyph unicode="f" d="M240 940q0 126 12 156q4 12 17 44t25 66q118 310 456 450q18 8 32 13t28 9t28 7t29 6t34 4t40 2t49 3h57h44t36 -2t31 -5t31 -7t33 -12q32 -10 60 -21t53 -24t49 -26t46 -28t44 -31t42 -35t42 -39q154 -156 207 -356q24 -92 24 -182q0 -106 -33 -208q-66 -202 -202 -338 t-336 -200q-101 -33 -204 -33q-115 0 -232 41q-124 44 -225 118t-171 170t-108 213t-38 245zM650 662q0 -6 21 -30t43 -46t28 -22q10 2 134 124q124 126 138 126q6 0 47 -37t95 -91l128 -128l48 46q46 46 46 54q0 2 -4 7t-13 14t-20 21t-25 27t-30 31t-34 32 q-126 124 -126 136q0 6 38 48t92 96l128 128l-46 46q-12 14 -24 24t-21 17t-13 7q-14 0 -142 -130l-130 -128l-128 128q-34 36 -65 65t-51 47t-24 18q-12 0 -51 -39t-39 -49q0 -12 130 -140l128 -130l-128 -130q-54 -52 -92 -94t-38 -48z" />
<glyph unicode="g" d="M388 972v754h660h660l-20 -784l-22 -786l-588 -20q-127 -5 -240 -5q-100 0 -189 4q-187 9 -209 31q-38 36 -48 566q-4 118 -4 240zM462 266h584q448 0 536 42q46 24 48 68q0 66 -27 71h-5q-29 0 -104 -47q-56 -34 -117 -44q-27 -4 -51 -4q-32 0 -60 7q-50 13 -95 41 t-71 70t-35 88q-3 15 -3 31q0 32 12 67q18 52 64 98q52 52 122 69q29 7 58 7l82 -14q98 -30 110 -64q2 -6 2 -13q0 -37 -48 -113q-38 -60 -91 -91q-37 -21 -65 -21q-13 0 -25 4q-22 8 -40 8q-13 0 -24 -4q-27 -10 -27 -40q0 -70 69 -70h11q100 8 210 122q12 12 22 24 q68 80 97 222t29 400v474h-584h-584v-694v-694zM608 850q0 30 64 51t155 21t155 -21t64 -51t-64 -52t-155 -22t-155 22t-64 52zM608 1068q0 32 138 53t340 21q438 0 438 -62q0 -6 -4 -12q-36 -58 -378 -70q-61 -2 -116 -2q-252 0 -370 38q-48 16 -48 34zM608 1288 q0 30 138 51t340 21q438 0 438 -62q0 -6 -4 -10q-36 -58 -378 -70q-71 -2 -133 -2q-239 0 -353 36q-48 16 -48 36zM608 1508q0 30 137 51t338 21t337 -21t136 -52t-136 -52t-338 -21q-132 0 -241 10t-171 26t-62 38zM1264 704q0 -12 2 -23t5 -20t7 -16t9 -11t11 -4 q8 0 21 10t28 27t27 37t12 36q0 8 -3 15q-9 21 -41 21q-16 0 -30 -5t-24 -15t-17 -24t-7 -28z" />
<glyph unicode="h" d="M343 1061q-9 52 -9 104q0 59 12 117q22 108 91 204t177 156q94 48 190 56q20 2 39 1q75 0 143 -24q86 -31 161 -96t130 -156t86 -209t31 -248q0 -42 4 -85t12 -83t18 -78t23 -71t28 -60t32 -47t35 -30q96 -60 138 -168q14 -38 14 -70q0 -120 -96 -136q-15 -3 -31 -3 q-88 0 -185 87q-58 52 -98 122q-50 88 -197 167t-305 99q-122 18 -218 85t-151 160t-74 206zM482 1232q0 -120 32 -236t76 -160q72 -74 174 -82q16 -1 32 -1q84 0 158 36q88 43 150 133t62 200q0 98 -39 171t-115 118t-188 61q-66 8 -118 8q-22 0 -41 -1q-65 -5 -106 -34 t-59 -81t-18 -132z" />
<glyph unicode="i" d="M215 894q5 106 66 211t189 249q154 178 273 243t283 65t283 -65t273 -243q128 -144 188 -249t66 -211q1 -11 1 -22q0 -94 -46 -185q-51 -101 -165 -235q-48 -58 -87 -98t-82 -71t-84 -49t-95 -30t-112 -16t-140 -4q-236 0 -348 50t-254 218q-112 134 -163 235 q-46 92 -46 188v19zM374 880q0 -62 53 -174t127 -206q122 -156 297 -211q88 -28 175 -27l175 27q175 55 297 211q170 216 170 379t-170 381q-122 154 -297 210q-88 28 -175 28l-175 -28q-175 -56 -297 -210q-74 -96 -127 -207t-53 -173zM868 676q-1 3 -1 8q0 43 61 238 q68 224 94 224q18 0 32 -96q4 -24 4 -49q0 -59 -20 -125q-28 -94 -82 -146q-60 -61 -79 -61q-7 0 -9 7z" />
<glyph unicode="j" d="M400 674v428h648h648l-24 -462l-24 -464l-568 -22q-170 -7 -295 -7q-290 0 -329 39q-16 16 -29 87t-20 178t-7 223zM400 1266q0 34 41 74t99 62q16 6 34 14t34 17t33 20t31 22t27 22t24 22t17 21q28 40 43 40q17 0 17 -54q0 -38 50 -64t122 -32q36 -3 72 -3t71 3 q71 6 121 32t50 64q0 50 15 54h3q14 0 42 -40q24 -36 83 -77t117 -61q156 -58 156 -104q0 -20 -28 -38q-118 -76 -630 -76q-194 0 -340 10t-225 29t-79 43zM480 338q0 -50 35 -85t85 -35t86 35t36 85t-36 85t-86 35q-32 0 -60 -16t-44 -44t-16 -60zM480 619q0 -33 35 -56 t85 -23q34 0 61 10t44 29t17 41t-17 40t-44 29t-61 11q-50 0 -85 -24t-35 -57zM480 902q0 -50 35 -86t85 -36q34 0 61 17t44 44t17 61q0 10 -2 19t-5 18t-7 18t-10 16l-12 14t-14 12t-16 9t-17 7t-19 5t-20 2q-50 0 -85 -35t-35 -85zM802 338q0 -38 71 -66t170 -28t170 28 t71 66t-71 66t-170 28t-170 -28t-71 -66zM802 633q0 -27 71 -47t170 -20t170 20t71 47t-71 47t-170 20t-170 -20t-71 -47zM802 902q0 -20 19 -37t51 -30t77 -20t95 -7q98 0 169 27t71 67q0 24 -32 46t-88 35t-121 13t-121 -13t-88 -35t-32 -46zM1366 338q0 -50 35 -85 t85 -35t85 35t35 85t-35 85t-85 35q-32 0 -60 -16t-44 -44t-16 -60zM1366 620q0 -22 16 -41t44 -29t60 -10t60 10t44 29t16 41q0 32 -35 56t-85 24t-85 -24t-35 -56zM1366 902q0 -50 35 -86t85 -36q20 0 38 6t33 18t26 26t17 33t6 39q0 50 -35 85t-85 35t-85 -35t-35 -85z " />
<glyph unicode="k" d="M325 405q5 31 37 63t104 88q86 64 177 121t133 71q42 15 42 97v8q-2 89 -50 217q-54 141 -54 244q0 12 1 24q7 110 85 216q102 140 237 140q31 0 65 -8q140 -32 228 -176q66 -109 66 -224q0 -72 -26 -146q-16 -50 -46 -96q-40 -64 -52 -108q-5 -17 -5 -35q0 -28 12 -57 q19 -48 68 -94t141 -114q82 -60 139 -125t75 -119q9 -26 9 -48q0 -25 -11 -46q-72 -116 -589 -121h-43q-481 0 -646 109q-56 38 -79 63q-19 21 -19 45q0 5 1 11z" />
<glyph unicode="l" d="M278 218v566v564l142 114q72 58 125 78t140 27t311 7h434v-368v-368l142 84q134 79 190 79q11 0 18 -3q12 -4 12 -15q0 -22 -56 -71q-38 -32 -96 -70l-210 -136v-244v-244h-576h-576zM320 260h370q152 0 261 6t109 16q0 22 -64 144q-37 71 -37 99q0 8 3 13q4 6 14 6 q23 0 78 -34q13 -8 28 -8q20 0 43 13q41 23 103 93q60 70 82 118t29 124t7 268v374h-370q-274 0 -322 -13t-48 -89q0 -68 -24 -86t-118 -18h-144v-512v-514zM442 547q0 17 61 29t145 12t145 -12t61 -28q0 -12 -28 -21t-75 -15t-103 -6q-84 0 -145 12t-61 29zM442 712 q0 18 108 29t283 11t283 -11t108 -29q0 -12 -49 -22t-138 -15t-203 -5q-36 0 -69 1t-62 2t-57 2t-51 3t-44 4t-38 4t-30 5t-22 6t-14 7t-5 8zM442 834q0 20 108 31t284 11q114 0 203 -5t138 -15t49 -22t-49 -21t-138 -14t-203 -5q-372 2 -392 40zM442 999q0 19 108 30 t283 11t283 -11t108 -30t-108 -30t-283 -11t-283 11t-108 30zM442 1122q0 20 113 31t298 11t298 -11t113 -30t-113 -30t-297 -11q-62 0 -117 1t-100 4t-81 6t-61 8t-39 10t-14 11zM834 1246q-2 4 -2 7q0 15 54 25q54 8 150 8q94 0 161 -12t67 -28q0 -26 -100 -36 q-50 -5 -102 -5t-106 5q-108 10 -122 36zM1168 282q10 -22 74 -22q70 0 87 25t17 129q-2 122 -16 122q-10 0 -50 -50q-114 -148 -114 -194q0 -6 2 -10z" />
<glyph unicode="m" d="M285 1125q-4 30 -4 57q0 72 25 132q24 58 79 108t127 78t144 28q80 0 197 -102t117 -172q0 -24 16 -42t40 -18q30 0 40 -36q18 -60 30 -584v-9q0 -40 -17 -67q-19 -30 -47 -38t-62 8t-62 56q-52 76 -157 77h-3q-103 0 -168 -73q-16 -18 -33 -33t-33 -24t-32 -13t-30 -3 t-27 7t-23 16t-18 86t-8 172q0 62 -4 119t-12 93t-16 40q-46 30 -59 137zM351 1137q15 -83 79 -147q91 -91 193 -91h14q109 7 203 117q40 48 59 100q17 47 17 91v9q-2 48 -22 92t-56 76t-89 51t-117 19q-92 0 -164 -48t-102 -117q-20 -46 -20 -98q0 -26 5 -54zM602 1286 l4 112l30 -104q14 -42 36 -89t40 -69q38 -44 12 -50q-4 -1 -9 -1q-28 0 -71 43q-18 18 -31 65q-11 41 -11 81v12zM650 358q-13 33 -13 62q0 34 18 61q28 43 80 43q10 0 21 -2q34 -6 57 -27t29 -50t0 -57t-29 -49t-57 -27q-10 -1 -18 -1q-27 0 -49 9q-29 12 -39 38zM1162 810 l12 256l166 8q34 2 61 2q68 0 96 -14q39 -20 111 -122q56 -82 79 -152t23 -164q0 -146 -32 -161q-4 -2 -10 -2q-35 0 -120 85q-88 88 -134 88t-132 -88q-52 -50 -77 -60t-35 18q-12 32 -12 149q0 66 4 157zM1318 358q-13 34 -13 63q0 33 17 60q27 43 80 43q10 0 22 -2 q42 -6 65 -38t23 -67t-23 -67t-65 -38q-10 -1 -18 -1q-27 0 -49 9q-29 12 -39 38zM1332 898q-8 -53 -8 -85q0 -36 10 -45q18 -18 136 -18h25q141 2 141 22q0 22 -76 130q-50 70 -99 95q-24 12 -45 12t-39 -13q-35 -26 -45 -98z" />
<glyph unicode="n" d="M377 746q-29 99 -29 192q0 141 66 270q42 78 116 147t163 116t184 73q82 23 162 23q12 0 24 -1q91 -4 159 -40q61 -34 61 -67q0 -18 -17 -35q-58 -58 -228 -58q-234 0 -368 -126t-134 -346q0 -112 48 -208t130 -155t180 -86q55 -15 113 -15q45 0 92 9q107 21 197 91 q92 70 143 225q31 95 31 174q0 50 -12 93q-14 49 -14 87q0 11 1 21q5 46 35 88q12 18 19 27t15 17t15 5t13 -5t16 -18t18 -32t24 -46q52 -99 52 -246q0 -34 -3 -71q-15 -195 -97 -305q-106 -142 -262 -219q-145 -71 -298 -71h-24q-166 6 -300 96q-218 148 -291 396zM566 906 q0 6 20 14q14 4 29 6t27 -1t18 -9q16 -14 -18 -20h-32q-42 0 -44 10zM691 1132q-8 18 -8 32q0 27 27 44q8 5 19 5q51 0 157 -115l128 -138l190 302q122 190 172 242q38 40 78 40q12 0 24 -4q34 -10 66 -25t44 -27q1 -1 1 -4q0 -38 -271 -408q-276 -378 -308 -382 q-6 0 -51 55t-101 133q-144 200 -167 250zM990 520q2 40 10 42h1q6 0 13 -18q6 -14 8 -29q1 -6 1 -12q0 -8 -2 -15q-3 -12 -9 -20q-4 -4 -7 -4q-8 0 -13 24q-2 14 -2 32z" />
<glyph unicode="o" d="M298 216q-3 3 -3 10q0 19 19 68q110 276 213 437t293 347l286 282l168 -170l166 -172l-304 -298q-202 -198 -339 -286t-421 -200q-50 -21 -69 -21q-6 0 -9 3zM452 418q0 -42 16 -44h3q25 0 153 46q60 20 101 44t41 38q0 12 -18 37t-45 52t-55 50t-50 35t-28 4 q-30 -34 -74 -132t-44 -130zM1194 1456l106 86q99 81 184 81q83 0 152 -77q71 -77 71 -148q0 -69 -67 -164q-26 -36 -41 -55t-36 -29q-16 -8 -28 -8q-4 0 -7 1q-14 3 -44 24t-57 48l-79 79z" />
<glyph unicode="p" d="M446 1202q0 56 109 166t245 200t203 90t203 -90t245 -200t109 -166q0 -20 -163 -35t-393 -15q-152 0 -280 7t-203 18t-75 25zM548 636v364h460h460l-30 -406q-6 -72 -10 -115t-10 -90t-18 -72t-23 -52t-35 -39t-46 -25t-63 -20t-80 -12t-103 -9q-74 -6 -142.5 -6 t-131.5 6q-126 12 -156 42q-20 20 -36 85t-26 158t-10 191zM922 1470l72 -6q18 -1 34 -1q101 0 108 33q0 10 -8 20q-26 26 -83 28h-9q-53 0 -102 -20q-49 -19 -49 -33q0 -13 37 -21z" />
<glyph unicode="q" d="M320 929q0 129 45 166t199 37q88 0 131 7t71 35t35 72t7 130q0 156 37 200t166 44t166 -44t37 -200q0 -86 7 -130t35 -72t72 -35t130 -7q32 0 57 -1t48 -3t39 -6t31 -11t25 -15t18 -20t13 -26t8 -33t4 -40t1 -47q0 -68 -8 -105t-37 -61t-73 -31t-126 -7q-86 0 -130 -7 t-72 -35t-35 -71t-7 -131q0 -80 -7 -125t-30 -73t-60 -37t-105 -9q-130 0 -167 45t-37 199q0 88 -7 131t-35 71t-71 35t-131 7q-154 0 -199 37t-45 166z" />
<glyph unicode="r" d="M218 906q0 122 26 158q42 56 236 68q122 8 534 8q540 0 654 -20q110 -20 132 -86q12 -34 12 -128q0 -122 -28 -158q-42 -56 -236 -68q-122 -8 -534 -8q-540 0 -654 20q-108 20 -132 86q-10 36 -10 128z" />
<glyph unicode="s" d="M442 1250v5q0 15 9 35q11 24 28 44t52 54t54 52t43 28t39 8t42 -18t51 -38t66 -66l166 -164l178 168q48 44 74 67t54 39t44 18h6q14 0 34 -7q24 -9 44 -26t52 -51q50 -50 69 -75t19 -57t-20 -59t-70 -81q-64 -72 -92 -116t-28 -93t28 -94t92 -115q50 -56 70 -83t20 -59 t-19 -57t-69 -73q-32 -34 -52 -51t-44 -27q-20 -8 -34 -8h-6q-16 2 -44 19t-54 40t-74 65l-178 170l-156 -156q-44 -46 -65 -66t-49 -36t-39 -16t-36 14t-43 32t-56 60q-34 38 -51 59t-28 46t-10 39t16 39t36 45t63 58l156 142l-166 176q-42 46 -65 72t-39 54t-18 44z" />
<glyph unicode="t" d="M316 1127q-17 70 -17 133q0 160 113 274q80 78 163 100q32 8 60 8q45 0 81 -21q58 -35 93 -99q27 -49 27 -116q0 -21 -3 -45q-11 -97 -73 -197q-40 -64 -45 -137q-1 -11 0 -21q0 -61 24 -116q29 -64 80 -123t122 -95t152 -52q36 -7 74 -7q47 0 97 11q82 15 153 15 q66 0 122 -13q117 -26 171 -103q31 -44 31 -96q0 -38 -17 -81q-28 -76 -129 -116t-263 -40q-198 0 -336 78t-348 312q-270 298 -332 547z" />
<glyph unicode="u" d="M572 1136q-4 43 -4 83q0 181 89 289q109 132 335 132q106 0 229 -75t207 -186t84 -205q0 -86 -228 -502q-216 -394 -290 -454q-8 -6 -12 -6q-16 0 -83 111t-147 267q-156 306 -180 546zM749 1147q13 -59 67 -113q42 -42 105 -48q13 -1 26 -1q49 0 96 18q59 23 106 73 t59 114q5 25 5 47q0 55 -34 81q-47 36 -183 36q-86 0 -147 -29t-87 -74q-17 -30 -17 -66q0 -18 4 -38z" />
<glyph unicode="v" d="M280 898q0 154 72 306t192 252q28 22 67 46t82 45t87 36t78 23q73 15 144 15q160 0 314 -75q118 -58 198 -137t136 -197q76 -157 76 -314t-76 -314q-56 -116 -136 -196t-198 -136q-154 -76 -316 -76q-73 0 -148 16q-44 10 -103 34t-115 55t-90 59q-80 66 -140 158 t-92 195t-32 205zM584 578q0 -68 52 -100t200 -54q38 -6 122 -6q31 0 69 1q139 3 199 15q72 12 115 30t62 45t19 67q0 108 -222 200q-78 34 -87 62q-1 5 -1 10q0 29 38 88q30 46 55 114t25 108q0 52 -17 99t-48 80t-73 53t-90 20q-36 0 -80 -18t-68 -42q-40 -36 -56 -78 t-16 -106q0 -126 80 -238q34 -48 34 -79q0 -13 -6 -23q-4 -4 -36 -22t-74 -38q-100 -48 -148 -96q-14 -12 -22 -21t-14 -17t-8 -16t-3 -16t-1 -22z" />
<glyph unicode="w" d="M168 692l6 28q24 100 24 210q0 78 -12 160l-2 12l22 -4q36 -8 42 -11t6.5 -15t-0.5 -52t-4 -70q-2 -12 -3 -20t1 -10l18 20q26 34 73 78t73 60l10 6l18 -18l20 -16l-30 -16q-86 -46 -134 -96l-12 -10l8 -18q12 -28 28 -55t37 -53t47 -52l32 -32l-22 -10l-20 -8l-12 14 q-18 20 -36 49t-34 61t-26 58q-8 30 -11 31t-19 -15q-12 -12 -15 -19t-7 -23q-8 -48 -38 -132q-12 -32 -20 -32h-8zM500 858q0 4 3 5t15 -1q6 0 20 -1t26 -1h30l12 42q12 42 22 68q16 46 39 90t29 42q2 -2 22 -4q22 -6 24 -8t-8 -16l-2 -4q-10 -16 -2 -44q0 -6 4 -20l2 -8 q6 -22 12 -40l11 -33t11 -29l10 -20l36 8q8 4 18 6t18 5t12 3l14 6v-24q0 -20 -6 -25t-40 -11q-12 -2 -21 -4t-11 -2q-2 -2 56 -90l8 -12t7 -10t5 -8l3 -6l1 -2q0 -2 -26 -8l-26 -4l-6 6q-24 34 -50 98l-12 32h-72h-70l-8 -22q-6 -20 -12 -48t-10 -50q-2 -16 -4 -19t-8 -3 h-8l2 30q2 30 10 68q2 16 5 28t3 14l-2 1t-5 2t-8 1t-9 2q-26 2 -45 7t-19 13zM626 860q0 -4 15 -4q19 0 63 6q6 0 12 2q28 4 28 6q2 0 1 4t-3 10t-4 14q-16 46 -26 94q-6 32 -6 34q-2 0 -8 -10t-15 -26t-15 -30q-8 -14 -25 -55t-17 -45zM926 1100q0 4 24 2q36 -4 41 -6 t9 -16q14 -64 14 -160q0 -108 -22 -212q-2 -16 -10 -16q-6 0 -7 2t-1 12q6 40 6 87q0 28 -2 59q-10 116 -44 216q-8 28 -8 32zM1058 989v18q0 25 4 41q6 22 8 24q8 10 63 21t89 11q56 0 92 -16l10 -4l-10 -26q-8 -26 -10 -28l-7 3q-7 3 -15 9q-58 36 -116 36h-28l-16 -26 q-32 -50 -38 -92q-2 -6 -3 -13t0 -13t1 -12t1 -9t3 -3l4 1q4 1 11 2t13 3q29 5 58 5q47 0 96 -13q32 -8 36 -12t11 -29t9 -49q3 -22 3 -40q0 -32 -9 -52q-8 -16 -80 -30q-28 -4 -78 -4t-70 6q-24 6 -26 9t4 17q2 8 5 15t3 9q4 8 26 -6q55 -31 108 -31q11 0 22 1l18 2l14 26 q16 26 24 43t12 35l4 20q-4 4 -10 8t-14 8t-17 9t-19 9t-19 8t-17 7t-16 5q-18 6 -30 8t-42 2h-44l-8 24q-8 26 -10 63zM1370 902q0 6 2 6t12 -2q16 -2 36 -2h22l-4 18q-6 54 -28 138q-6 18 -9 30t-1 12q0 1 3 1q6 0 25 -3l28 -4l4 -22q12 -50 16 -122l2 -50l42 2q28 0 72 6 t48 10q2 2 6 54q2 24 5 52t7 47t6 21t28 6q17 3 24 3q3 0 3 -1q1 -2 -9 -36q-20 -78 -26 -122l-4 -18l16 6q16 4 37 10t22 6t-1 -24v-24l-14 -4q-16 -6 -40 -10l-24 -4l-2 -20q-2 -12 -1 -34t2 -45t3 -46t6 -37q0 -6 -1 -7t-7 -1q-4 0 -6 1t-5 6t-5 14l-6 27q-2 10 -5 34 t-4 50t-3 42v10h-82h-84l-2 -44q-4 -80 -16 -124q-2 -8 -4 -11t-4 -4t-6 -1q-8 0 -9 1t-1 5q4 12 6 32t3 43t1 47q2 58 0 60q-2 0 -9 2t-17 2q-16 2 -25 4t-14 4t-7 4t-2 6zM1802 1102h11q11 0 23 -1t23 -3l11 -2q4 -4 9 -43t9 -75q2 -30 2 -61q0 -92 -18 -191 q-4 -14 -6 -24l-2 -10h-8q-8 0 -6 16q4 42 4 84q0 128 -40 266q-14 42 -12 44z" />
<glyph unicode="x" d="M252 128l14 782l14 784l428 14q96 2 157 3h20q51 0 104 -4q63 -5 101 -13t83 -28t74 -42t68 -63t72 -84t81 -111l98 -134l-108 -288l-106 -286h-438q-392 0 -392 -38q0 -8 8 -16q40 -40 252 -40q70 0 160 4l358 18l-22 -204q-6 -54 -6 -94q0 -52 10 -80q11 -30 32 -30 q14 0 32 13q46 33 114 141l96 158v-182v-180h-652h-652zM496 1144q0 -52 394 -52q340 0 362 26q2 2 0 4q-18 18 -101 31t-191 18t-214 6h-21q-92 0 -157 -8q-72 -9 -72 -25zM520 996q8 -14 53 -24t112 -15t145 -8q39 -2 77.5 -2t77.5 2q77 3 140 8t102 15t39 24t-49 25 t-138 17t-201 6q-359 -2 -359 -43q0 -2 1 -5zM544 754q0 -20 96 -34t238 -14q270 0 350 38q10 6 14 10q2 3 2 7q0 34 -232 41h-104q-62 0 -118 -2t-101 -6t-78 -10t-50 -14t-17 -16zM648 876q34 -8 258 -8q276 0 276 10q0 1 -2 2q-8 2 -44 6q-102 9 -210.5 9t-223.5 -9 q-58 -5 -58 -8q0 -1 4 -2zM1122 1470q0 -154 34 -194t168 -40q62 0 85 6t27 25t-18 53q-14 24 -41 59t-62 73t-69 70l-124 116v-168zM1314 354q0 50 350 994q8 22 18 41t20 31t20 20q9 7 16 7h2q8 -1 16 -7q6 -6 6 -24q0 -67 -75 -307q-95 -305 -253 -703q-26 -66 -76 -84 q-8 -2 -14 -2q-27 0 -30 34z" />
<glyph unicode="&#x2000;" horiz-adv-x="1024" />
<glyph unicode="&#x2001;" />
<glyph unicode="&#x2002;" horiz-adv-x="1024" />
<glyph unicode="&#x2003;" />
<glyph unicode="&#x2004;" horiz-adv-x="682" />
<glyph unicode="&#x2005;" horiz-adv-x="512" />
<glyph unicode="&#x2006;" horiz-adv-x="341" />
<glyph unicode="&#x2007;" horiz-adv-x="341" />
<glyph unicode="&#x2008;" horiz-adv-x="256" />
<glyph unicode="&#x2009;" horiz-adv-x="409" />
<glyph unicode="&#x200a;" horiz-adv-x="113" />
<glyph unicode="&#x202f;" horiz-adv-x="409" />
<glyph unicode="&#x205f;" horiz-adv-x="512" />
<glyph unicode="&#x25fc;" horiz-adv-x="1710" d="M0 0v1710h1710v-1710h-1710z" />
</font>
</defs>
</svg>
