<?xml version="1.0" encoding="UTF-8" standalone="no"?>
<!-- Created with Inkscape (http://www.inkscape.org/) -->

<svg
   xmlns:dc="http://purl.org/dc/elements/1.1/"
   xmlns:cc="http://creativecommons.org/ns#"
   xmlns:rdf="http://www.w3.org/1999/02/22-rdf-syntax-ns#"
   xmlns:svg="http://www.w3.org/2000/svg"
   xmlns="http://www.w3.org/2000/svg"
   xmlns:sodipodi="http://sodipodi.sourceforge.net/DTD/sodipodi-0.dtd"
   xmlns:inkscape="http://www.inkscape.org/namespaces/inkscape"
   width="1024"
   height="1024"
   viewBox="0 0 1024 1024"
   id="svg3475"
   version="1.1"
   inkscape:version="0.91 r13725"
   sodipodi:docname="app_button_onway.svg">
  <defs
     id="defs3477" />
  <sodipodi:namedview
     id="base"
     pagecolor="#ffffff"
     bordercolor="#666666"
     borderopacity="1.0"
     inkscape:pageopacity="0.0"
     inkscape:pageshadow="2"
     inkscape:zoom="0.35"
     inkscape:cx="375"
     inkscape:cy="520"
     inkscape:document-units="px"
     inkscape:current-layer="layer1"
     showgrid="false"
     units="px"
     inkscape:window-width="1292"
     inkscape:window-height="749"
     inkscape:window-x="66"
     inkscape:window-y="-8"
     inkscape:window-maximized="1" />
  <metadata
     id="metadata3480">
    <rdf:RDF>
      <cc:Work
         rdf:about="">
        <dc:format>image/svg+xml</dc:format>
        <dc:type
           rdf:resource="http://purl.org/dc/dcmitype/StillImage" />
        <dc:title></dc:title>
      </cc:Work>
    </rdf:RDF>
  </metadata>
  <g
     inkscape:label="Layer 1"
     inkscape:groupmode="layer"
     id="layer1"
     transform="translate(0,-28.362161)">
    <path
       style="fill:#ffffff"
       d="m 341.41371,828.5975 c -19.20521,-50.05003 7.7138,-91.41789 55.11165,-84.6876 61.81737,8.77692 61.81737,100.02318 0,108.80015 -26.08396,3.70599 -48.14039,-5.94503 -55.11165,-24.11255 z m 347.22274,0 c -19.20521,-50.05003 7.7144,-91.41789 55.11225,-84.6876 61.81737,8.77692 61.81737,100.02318 0,108.80015 -26.08396,3.70599 -48.14039,-5.94503 -55.11225,-24.11255 z M 211.7491,766.15942 c -7.074,-7.07219 -12.86055,-67.32481 -12.86055,-133.89098 0,-66.56881 -7.71801,-125.80507 -17.153,-131.63458 -32.08378,-19.8282 -43.01888,-113.15989 -19.8228,-169.16289 25.9644,-62.68187 106.06301,-111.86579 182.17856,-111.86579 56.24049,0 163.43954,93.91798 163.43954,143.19273 0,16.73054 13.02095,30.41876 28.93518,30.41876 28.54168,0 30.35899,15.69813 37.37471,322.84598 1.54336,67.3167 -58.1365,83.2099 -98.11552,26.13441 -36.28672,-51.80745 -124.6242,-52.71628 -170.74122,-1.75549 -35.5634,39.29787 -70.12353,48.83139 -93.2349,25.71983 z M 439.62594,486.61378 C 525.43,384.64005 466.0319,258.1852 332.33016,258.1852 c -134.79213,0 -199.2847,148.1027 -105.38415,242.0053 68.00344,68.00115 148.35076,62.87213 212.67993,-13.57672 z M 337.77728,427.93906 c -12.73138,-12.73138 -22.40127,-49.62397 -21.48931,-81.9832 l 1.65931,-58.835 16.29451,54.28025 c 8.96039,29.85585 26.63966,66.74778 39.28393,81.98327 27.73005,33.41495 -2.97438,37.32664 -35.74603,4.55468 z M 611.99884,752.797 c -5.45133,-14.2071 -7.3149,-85.73329 -4.14167,-158.94697 l 5.76974,-133.11768 86.80553,-5.05218 c 81.36802,-4.73372 90.12956,-0.307 139.85416,70.59807 39.1782,55.8721 53.04743,98.79852 53.04743,164.19614 0,100.83517 -16.64536,108.72668 -85.05191,40.32019 -60.19711,-60.19717 -78.31614,-60.22186 -138.34144,-0.19344 -35.20474,35.20456 -50.67741,41.1329 -57.94184,22.19947 z M 854.75419,613.20945 c 0,-6.31955 -17.95141,-36.70161 -39.89431,-67.51567 -53.24868,-74.78221 -107.42674,-73.88876 -118.55709,1.95386 -4.68175,31.88913 -4.21916,62.27113 1.0219,67.51568 13.62472,13.62484 157.4271,11.83859 157.4271,-1.95387 z"
       id="path3599"
       inkscape:connector-curvature="0" />
  </g>
</svg>
