<?xml version="1.0" encoding="UTF-8" standalone="no"?>
<!-- Created with Inkscape (http://www.inkscape.org/) -->

<svg
   xmlns:dc="http://purl.org/dc/elements/1.1/"
   xmlns:cc="http://creativecommons.org/ns#"
   xmlns:rdf="http://www.w3.org/1999/02/22-rdf-syntax-ns#"
   xmlns:svg="http://www.w3.org/2000/svg"
   xmlns="http://www.w3.org/2000/svg"
   xmlns:sodipodi="http://sodipodi.sourceforge.net/DTD/sodipodi-0.dtd"
   xmlns:inkscape="http://www.inkscape.org/namespaces/inkscape"
   width="1024"
   height="1024"
   viewBox="0 0 1024 1024"
   id="svg3475"
   version="1.1"
   inkscape:version="0.91 r13725"
   sodipodi:docname="app_button_delete.svg">
  <defs
     id="defs3477" />
  <sodipodi:namedview
     id="base"
     pagecolor="#ffffff"
     bordercolor="#666666"
     borderopacity="1.0"
     inkscape:pageopacity="0.0"
     inkscape:pageshadow="2"
     inkscape:zoom="0.35"
     inkscape:cx="375"
     inkscape:cy="520"
     inkscape:document-units="px"
     inkscape:current-layer="layer1"
     showgrid="false"
     units="px"
     inkscape:window-width="1292"
     inkscape:window-height="749"
     inkscape:window-x="66"
     inkscape:window-y="-8"
     inkscape:window-maximized="1" />
  <metadata
     id="metadata3480">
    <rdf:RDF>
      <cc:Work
         rdf:about="">
        <dc:format>image/svg+xml</dc:format>
        <dc:type
           rdf:resource="http://purl.org/dc/dcmitype/StillImage" />
        <dc:title></dc:title>
      </cc:Work>
    </rdf:RDF>
  </metadata>
  <g
     inkscape:label="Layer 1"
     inkscape:groupmode="layer"
     id="layer1"
     transform="translate(0,-28.362161)">
    <path
       style="fill:#ffffff"
       d="M 327.80753,888.2292 C 308.82969,869.25337 293.3022,775.82929 293.3022,680.61712 l 0,-173.10461 219.57737,0 219.57679,0 -14.26478,193.23505 C 704.67186,883.89129 695.00674,894.73151 533.11952,908.35957 439.17536,916.2677 346.78476,907.1999 327.80753,888.2292 Z m -82.8139,-477.33424 c 0,-54.89832 198.59786,-217.38976 265.6983,-217.38976 67.10045,0 265.69832,162.49144 265.69832,217.38976 0,13.28479 -119.56418,24.15428 -265.69832,24.15428 -146.13411,0 -265.6983,-10.86949 -265.6983,-24.15428 z M 570.07162,260.9347 c -16.05245,-16.05306 -57.71883,-17.76817 -92.59182,-3.81642 -38.53735,15.42 -27.09065,26.86957 29.18683,29.18805 50.92483,2.07753 79.45744,-9.32369 63.40499,-25.37632 z"
       id="path3638"
       inkscape:connector-curvature="0" />
  </g>
</svg>
