<?xml version="1.0" encoding="UTF-8" standalone="no"?>
<!-- Created with Inkscape (http://www.inkscape.org/) -->

<svg
   xmlns:dc="http://purl.org/dc/elements/1.1/"
   xmlns:cc="http://creativecommons.org/ns#"
   xmlns:rdf="http://www.w3.org/1999/02/22-rdf-syntax-ns#"
   xmlns:svg="http://www.w3.org/2000/svg"
   xmlns="http://www.w3.org/2000/svg"
   xmlns:sodipodi="http://sodipodi.sourceforge.net/DTD/sodipodi-0.dtd"
   xmlns:inkscape="http://www.inkscape.org/namespaces/inkscape"
   width="1024"
   height="1024"
   viewBox="0 0 1024 1024"
   id="svg3475"
   version="1.1"
   inkscape:version="0.91 r13725"
   sodipodi:docname="app_button_ready.svg">
  <defs
     id="defs3477" />
  <sodipodi:namedview
     id="base"
     pagecolor="#ffffff"
     bordercolor="#666666"
     borderopacity="1.0"
     inkscape:pageopacity="0.0"
     inkscape:pageshadow="2"
     inkscape:zoom="0.35"
     inkscape:cx="375"
     inkscape:cy="520"
     inkscape:document-units="px"
     inkscape:current-layer="layer1"
     showgrid="false"
     units="px"
     inkscape:window-width="1292"
     inkscape:window-height="749"
     inkscape:window-x="66"
     inkscape:window-y="-8"
     inkscape:window-maximized="1" />
  <metadata
     id="metadata3480">
    <rdf:RDF>
      <cc:Work
         rdf:about="">
        <dc:format>image/svg+xml</dc:format>
        <dc:type
           rdf:resource="http://purl.org/dc/dcmitype/StillImage" />
        <dc:title></dc:title>
      </cc:Work>
    </rdf:RDF>
  </metadata>
  <g
     inkscape:label="Layer 1"
     inkscape:groupmode="layer"
     id="layer1"
     transform="translate(0,-28.362161)">
    <path
       style="fill:#ffffff"
       d="m 120.72995,596.31177 6.1e-4,-297.54055 74.58144,-59.50848 c 70.74474,-56.44819 86.32601,-59.508 302.9504,-59.508 l 228.36893,0 0,194.02512 0,194.0225 75.03386,-44.26982 c 128.77335,-75.978 160.71155,-38.84468 36.01121,41.86807 l -111.04507,71.87273 0,128.2913 0,128.2886 -302.95037,0 -302.95163,0 6.2e-4,-297.54147 z m 411.14809,264.00737 c 0,-6.54186 -14.85764,-40.62376 -33.01568,-75.73802 -33.4381,-64.66027 -23.84789,-78.63749 30.38626,-44.28696 20.93011,13.25868 48.36798,-2.22004 91.96688,-51.87592 58.7057,-66.86152 62.13773,-81.66706 62.13773,-268.07726 l 0,-197.30722 -194.75451,0 c -193.31157,0 -194.75392,0.41079 -194.75392,54.09799 0,47.40143 -9.37717,54.09848 -75.73851,54.09848 l -75.73729,0 0,270.49204 0,270.49198 194.75451,0 c 107.11473,0 194.75453,-5.35166 194.75453,-11.89511 z M 207.28737,720.73882 c 0,-11.90191 48.68817,-21.63954 108.19648,-21.63954 59.50769,0 108.19711,9.73763 108.19711,21.63954 0,11.90135 -48.68942,21.63948 -108.19711,21.63948 -59.50831,0 -108.19648,-9.73813 -108.19648,-21.63948 z m 0,-86.55755 c 0,-12.90837 82.95031,-21.63954 205.57343,-21.63954 122.62314,0 205.57405,8.73117 205.57405,21.63954 0,12.90782 -82.95091,21.63948 -205.57405,21.63948 -122.62312,0 -205.57343,-8.73166 -205.57343,-21.63948 z m 0,-64.918 c 0,-12.90783 82.95031,-21.63948 205.57343,-21.63948 122.62314,0 205.57405,8.73165 205.57405,21.63948 0,12.90776 -82.95091,21.63898 -205.57405,21.63898 -122.62312,0 -205.57343,-8.73122 -205.57343,-21.63898 z m 0,-86.55755 c 0,-12.90776 82.95031,-21.63948 205.57343,-21.63948 122.62314,0 205.57405,8.73172 205.57405,21.63948 0,12.90782 -82.95091,21.63954 -205.57405,21.63954 -122.62312,0 -205.57343,-8.73172 -205.57343,-21.63954 z m 0,-64.9185 c 0,-12.98275 86.55743,-21.63899 216.39359,-21.63899 129.83613,0 216.39294,8.65624 216.39294,21.63899 0,12.98386 -86.55681,21.63954 -216.39294,21.63954 -129.83616,0 -216.39359,-8.65568 -216.39359,-21.63954 z M 412.8608,352.86977 c -8.30336,-13.43628 32.23453,-21.63954 106.92004,-21.63954 66.16116,0 120.29306,9.73763 120.29306,21.63954 0,28.23447 -209.76213,28.23447 -227.2131,0 z m 269.80431,438.197 c -0.65874,-77.43481 -2.21558,-79.16748 -34.04542,-37.86901 -75.20834,97.58008 -78.83321,119.01649 -20.1269,119.01649 49.08978,0 54.7882,-8.53483 54.17232,-81.14748 z"
       id="path3575"
       inkscape:connector-curvature="0" />
  </g>
</svg>
